<svg width="21" height="22" viewBox="0 0 21 22" fill="none" xmlns="http://www.w3.org/2000/svg">
<path fill-rule="evenodd" clip-rule="evenodd" d="M15.8452 16.5224C14.3456 18.0797 12.3119 18.9546 10.1912 18.9546C8.07056 18.9546 6.03677 18.0797 4.53724 16.5224C3.03772 14.9651 2.1953 12.8529 2.1953 10.6505C2.1953 8.44807 3.03772 6.33587 4.53724 4.77854C6.03677 3.22121 8.07056 2.34631 10.1912 2.34631C12.3119 2.34631 14.3456 3.22121 15.8452 4.77854C17.3447 6.33587 18.1871 8.44807 18.1871 10.6505C18.1871 12.8529 17.3447 14.9651 15.8452 16.5224ZM0.19632 10.6505C0.19632 16.3835 4.67103 21.0307 10.1912 21.0307C15.7114 21.0307 20.1861 16.3835 20.1861 10.6505C20.1861 4.91748 15.7114 0.270264 10.1912 0.270264C4.67103 0.270264 0.19632 4.91748 0.19632 10.6505ZM7.26971 7.04386H13.1127C14.2591 7.04386 15.1887 7.9978 15.1887 9.17595V12.1758C15.1887 13.3529 14.2591 14.3079 13.1127 14.3079H7.26971C6.1233 14.3079 5.19377 13.354 5.19377 12.1758V9.17595C5.19377 7.99884 6.1233 7.04386 7.26971 7.04386ZM8.97584 12.1613L11.7094 10.8223C11.7276 10.8129 11.7429 10.7985 11.7537 10.7806C11.7644 10.7628 11.7702 10.7422 11.7705 10.7212C11.7707 10.7001 11.7653 10.6794 11.7548 10.6613C11.7444 10.6433 11.7294 10.6286 11.7114 10.6188L8.97883 9.19671C8.96215 9.18787 8.94356 9.1836 8.92484 9.18431C8.90612 9.18502 8.88788 9.19069 8.87186 9.20077C8.85584 9.21086 8.84257 9.22503 8.8333 9.24194C8.82403 9.25885 8.81908 9.27794 8.81892 9.2974V12.0585C8.81899 12.0777 8.82373 12.0966 8.8327 12.1134C8.84167 12.1302 8.85457 12.1444 8.87022 12.1546C8.88586 12.1649 8.90374 12.1709 8.92221 12.172C8.94067 12.1732 8.95911 12.1695 8.97584 12.1613Z" fill="white"/>
</svg>
