<svg width="459" height="105" viewBox="0 0 459 105" fill="none" xmlns="http://www.w3.org/2000/svg">
<g clip-path="url(#clip0_28_88)">
<path d="M17.3345 105L38.9149 50.7945C40.9672 45.7088 43.2061 41.1813 44.9475 37.5842C46.1913 40.065 48.5546 44.9025 50.7934 50.6704L63.6048 83.5411C68.3936 80.6261 72.0628 77.4011 74.9858 74.052C68.6423 58.671 61.366 41.4914 56.5772 31.6302C53.903 26.1105 52.6592 23.5676 45.445 23.5676C39.9722 23.5676 36.7382 25.6763 33.9396 31.7543C22.8074 56.5003 11.1154 84.2853 3.34151 105H17.2723H17.3345ZM68.5801 96.1932L72.0007 105H87.2997C86.2425 102.023 83.6304 95.3249 80.2721 86.9522C77.2247 89.9911 73.3689 93.2162 68.5801 96.2552V96.1932Z" fill="white"/>
<path fill-rule="evenodd" clip-rule="evenodd" d="M66.3419 44.3444C109.378 42.4838 96.3803 95.4489 21.5642 104.628L26.5395 91.6037C80.2106 83.9132 93.2086 53.8955 69.7003 52.593C68.5808 49.8021 67.4614 47.0732 66.2798 44.3444H66.3419ZM16.4024 63.0124C-7.91442 67.6019 -10.6508 36.7779 46.9383 7.87655L47.9333 9.92321C33.0696 16.3113 -11.1484 56.1902 21.1911 51.8488C19.5741 55.57 17.9571 59.3532 16.4024 63.0744V63.0124ZM46.1298 48.8718L43.3312 49.6781C43.0202 50.4843 42.6471 51.2906 42.3361 52.1589L39.5997 59.0431L49.2393 56.9965L47.4358 52.0348C47.0005 50.9805 46.6273 49.9262 46.192 48.9338L46.1298 48.8718Z" fill="url(#paint0_linear_28_88)"/>
<path fill-rule="evenodd" clip-rule="evenodd" d="M62.7342 0.186061C61.4903 3.41111 58.7539 6.63615 54.9603 8.99291C54.8981 10.6675 54.214 12.342 53.0323 13.5824C52.5348 11.4117 51.6641 9.30301 50.4825 7.25635C49.3009 5.20969 47.8705 3.47313 46.2535 1.92262C47.9326 1.48848 49.674 1.73656 51.2288 2.54282C55.1468 0.434142 59.3136 -0.310099 62.7342 0.186061Z" fill="white"/>
<path d="M105.833 100.348C105.833 100.348 106.828 98.4879 108.818 94.7667C109.378 95.0148 110 95.3249 110.684 95.635C111.43 95.9451 112.176 96.2552 112.985 96.5032C113.793 96.7513 114.664 96.9994 115.535 97.1855C116.405 97.3715 117.276 97.4335 118.084 97.4335C119.079 97.4335 119.95 97.3715 120.634 97.1855C121.318 96.9994 121.94 96.7513 122.376 96.4412C122.811 96.1311 123.184 95.759 123.371 95.3249C123.557 94.8907 123.682 94.3946 123.682 93.8984C123.682 93.4643 123.557 93.0921 123.246 92.72C122.997 92.4099 122.562 92.0998 122.065 91.8517C121.567 91.6037 120.945 91.3556 120.199 91.1075C119.453 90.8594 118.644 90.6113 117.711 90.3633C117.276 90.2392 116.716 90.1152 116.156 89.9291C115.597 89.7431 114.975 89.557 114.415 89.3089C113.793 89.0608 113.233 88.7507 112.674 88.4406C112.114 88.1305 111.616 87.6964 111.181 87.2623C110.746 86.8281 110.373 86.332 110.124 85.7118C109.875 85.1536 109.751 84.4714 109.751 83.7271C109.751 82.3627 110 81.0602 110.497 79.8819C110.995 78.7035 111.803 77.6491 112.86 76.7809C113.918 75.9126 115.286 75.2304 116.903 74.7342C118.582 74.238 120.51 73.99 122.811 73.99C123.806 73.99 124.801 74.052 125.734 74.238C126.667 74.3621 127.537 74.6102 128.346 74.8582C129.154 75.1063 129.963 75.3544 130.709 75.6645C131.456 75.9746 132.14 76.2847 132.824 76.5948L130.149 81.9285C129.839 81.7425 129.279 81.4944 128.595 81.2463C127.911 80.9982 127.164 80.7501 126.356 80.5021C125.547 80.254 124.677 80.0679 123.806 79.8819C122.935 79.6958 122.127 79.6338 121.318 79.6338C120.385 79.6338 119.577 79.6958 118.955 79.8819C118.333 80.0679 117.836 80.316 117.462 80.5641C117.089 80.8742 116.841 81.1843 116.654 81.5564C116.467 81.9285 116.405 82.3006 116.405 82.6107C116.405 83.0449 116.53 83.417 116.841 83.7271C117.089 84.0372 117.525 84.2853 117.96 84.5334C118.458 84.7815 119.017 84.9675 119.639 85.1536C120.323 85.3396 121.007 85.4637 121.754 85.6497C122.997 85.9598 124.117 86.2699 125.174 86.6421C126.231 87.0142 127.164 87.5103 127.911 88.0685C128.657 88.6267 129.279 89.3089 129.714 90.1152C130.149 90.9214 130.398 91.9138 130.398 93.0921C130.398 94.7667 130.025 96.1931 129.341 97.4335C128.657 98.674 127.662 99.7283 126.418 100.597C125.174 101.465 123.744 102.085 122.065 102.519C120.385 102.953 118.644 103.201 116.716 103.201C115.472 103.201 114.291 103.139 113.171 102.953C112.114 102.767 111.057 102.581 110.186 102.271C109.253 102.023 108.445 101.713 107.761 101.403C107.014 101.093 106.392 100.783 105.833 100.473V100.348ZM149.304 96.0691L152.414 100.038C151.17 101.031 149.802 101.775 148.309 102.333C146.817 102.829 145.324 103.077 143.707 103.077C142.152 103.077 140.784 102.829 139.54 102.271C138.297 101.775 137.239 101.093 136.431 100.224C135.56 99.3562 134.938 98.3639 134.441 97.1855C133.943 96.0071 133.757 94.7667 133.757 93.4643C133.757 91.7277 134.13 90.1152 134.876 88.5647C135.622 87.0142 136.617 85.6497 137.861 84.4714C139.105 83.293 140.598 82.3627 142.277 81.6184C143.956 80.9362 145.759 80.5641 147.687 80.5641C149.242 80.5641 150.673 80.8122 151.979 81.3083C153.285 81.8045 154.342 82.5487 155.275 83.541L150.797 87.5103C150.424 87.0142 149.864 86.6421 149.18 86.394C148.496 86.1459 147.687 86.0219 146.817 86.0219C145.946 86.0219 145.138 86.2079 144.329 86.518C143.521 86.8281 142.837 87.3243 142.215 87.8825C141.593 88.5027 141.095 89.1849 140.722 90.0532C140.349 90.9214 140.162 91.8517 140.162 92.9061C140.162 93.6503 140.287 94.3325 140.535 94.8907C140.784 95.5109 141.095 96.0071 141.468 96.3792C141.904 96.8133 142.339 97.1234 142.899 97.3095C143.458 97.4956 144.08 97.6196 144.702 97.6196C145.635 97.6196 146.506 97.4956 147.252 97.2475C147.998 96.9994 148.682 96.5653 149.304 96.0691ZM179.405 91.0455C179.405 91.0455 178.721 94.8287 177.415 102.395H171.071L173.061 91.1695C173.248 90.1772 173.31 89.3089 173.186 88.6267C173.124 87.9445 172.875 87.4483 172.564 87.0762C172.253 86.7041 171.818 86.394 171.258 86.2699C170.698 86.1459 170.138 86.0219 169.392 86.0219C168.708 86.0219 168.024 86.1459 167.402 86.394C166.78 86.6421 166.22 87.0142 165.723 87.5103C165.225 88.0065 164.79 88.5027 164.417 89.1849C164.044 89.8051 163.795 90.5493 163.671 91.2936L161.68 102.457H155.337L160.437 73.7419H166.656L165.039 82.6728C165.909 82.1146 166.967 81.6184 168.024 81.2463C169.143 80.8742 170.263 80.6261 171.444 80.6261C173.124 80.6261 174.554 80.8742 175.673 81.3703C176.793 81.8665 177.664 82.5487 178.286 83.417C178.907 84.2853 179.281 85.4017 179.405 86.7041C179.529 88.0065 179.467 89.433 179.156 91.1075L179.405 91.0455ZM182.763 93.5263C182.763 91.7897 183.136 90.1772 183.821 88.6267C184.567 87.0762 185.5 85.7118 186.806 84.5334C188.05 83.355 189.542 82.4247 191.221 81.6804C192.9 80.9982 194.704 80.6261 196.632 80.6261C198.187 80.6261 199.617 80.8742 200.861 81.3703C202.105 81.8665 203.162 82.5487 204.033 83.417C204.903 84.2853 205.587 85.2776 206.023 86.456C206.52 87.6344 206.707 88.8748 206.707 90.1772C206.707 91.9138 206.334 93.5883 205.65 95.1388C204.903 96.6893 203.971 98.0537 202.664 99.2321C201.421 100.411 199.928 101.341 198.249 102.023C196.57 102.705 194.704 103.077 192.776 103.077C191.221 103.077 189.853 102.829 188.609 102.333C187.365 101.837 186.308 101.155 185.438 100.286C184.567 99.4182 183.883 98.4259 183.447 97.2475C182.95 96.0691 182.763 94.8287 182.763 93.5263ZM189.107 92.8441C189.107 93.5883 189.231 94.2085 189.418 94.8287C189.667 95.4489 189.977 95.9451 190.351 96.3792C190.786 96.8133 191.221 97.1234 191.781 97.3715C192.341 97.6196 192.963 97.7436 193.647 97.7436C194.517 97.7436 195.388 97.5576 196.197 97.2475C197.005 96.9374 197.689 96.4412 198.311 95.821C198.933 95.2008 199.431 94.5186 199.804 93.6503C200.177 92.8441 200.363 91.9138 200.363 90.8594C200.363 90.1152 200.239 89.495 200.052 88.8748C199.804 88.2546 199.493 87.7584 199.12 87.3863C198.746 86.9522 198.249 86.6421 197.689 86.394C197.129 86.1459 196.508 86.0839 195.823 86.0839C194.953 86.0839 194.144 86.2699 193.336 86.58C192.527 86.8901 191.843 87.3863 191.221 88.0065C190.599 88.6267 190.102 89.3089 189.729 90.1772C189.356 90.9835 189.169 91.9138 189.169 92.9681L189.107 92.8441ZM209.381 93.5263C209.381 91.7897 209.754 90.1772 210.438 88.6267C211.185 87.0762 212.118 85.7118 213.424 84.5334C214.667 83.355 216.16 82.4247 217.839 81.6804C219.518 80.9982 221.322 80.6261 223.25 80.6261C224.805 80.6261 226.235 80.8742 227.479 81.3703C228.723 81.8665 229.78 82.5487 230.651 83.417C231.521 84.2853 232.205 85.2776 232.641 86.456C233.138 87.6344 233.325 88.8748 233.325 90.1772C233.325 91.9138 232.952 93.5883 232.268 95.1388C231.521 96.6893 230.588 98.0537 229.282 99.2321C228.039 100.411 226.546 101.341 224.867 102.023C223.188 102.705 221.322 103.077 219.394 103.077C217.839 103.077 216.471 102.829 215.227 102.333C213.983 101.837 212.926 101.155 212.055 100.286C211.185 99.4182 210.501 98.4259 210.065 97.2475C209.568 96.0691 209.381 94.8287 209.381 93.5263ZM215.725 92.8441C215.725 93.5883 215.849 94.2085 216.036 94.8287C216.284 95.4489 216.595 95.9451 216.968 96.3792C217.404 96.8133 217.839 97.1234 218.399 97.3715C218.959 97.6196 219.581 97.7436 220.265 97.7436C221.135 97.7436 222.006 97.5576 222.814 97.2475C223.623 96.9374 224.307 96.4412 224.929 95.821C225.551 95.2008 226.048 94.5186 226.422 93.6503C226.795 92.8441 226.981 91.9138 226.981 90.8594C226.981 90.1152 226.857 89.495 226.67 88.8748C226.422 88.2546 226.111 87.7584 225.737 87.3863C225.364 86.9522 224.867 86.6421 224.307 86.394C223.747 86.1459 223.125 86.0839 222.441 86.0839C221.571 86.0839 220.762 86.2699 219.954 86.58C219.145 86.8901 218.461 87.3863 217.839 88.0065C217.217 88.6267 216.72 89.3089 216.347 90.1772C215.973 90.9835 215.787 91.9138 215.787 92.9681L215.725 92.8441ZM240.726 73.6799H247.007L243.275 94.7047C243.213 95.2008 243.151 95.5729 243.151 95.883C243.151 96.1931 243.213 96.4412 243.338 96.5653C243.462 96.7513 243.586 96.8754 243.835 96.9374C244.084 96.9994 244.333 96.9994 244.706 96.9994H245.763L244.83 102.333H243.524C241.907 102.333 240.663 102.209 239.668 101.961C238.673 101.713 237.989 101.279 237.492 100.721C236.994 100.1 236.745 99.3562 236.683 98.3639C236.621 97.3715 236.745 96.1931 236.994 94.7047L240.726 73.6178V73.6799Z" fill="url(#paint1_linear_28_88)"/>
<path d="M133.757 43.9722L132.886 46.0189L126.916 54.2676H133.881V43.9722H133.694H133.757ZM140.598 63.6946H133.881V59.1672H123.371L120.137 63.6946H112.114L133.383 34.1731H140.535V63.6946H140.598ZM163.546 55.8801H161.805L154.342 45.3987V63.6946H147.439V34.2351H153.471L162.676 46.7631L171.942 34.2351H177.975V63.6946H171.134V45.4607L163.546 55.8801ZM191.657 51.2286V58.0508H198.498C198.871 58.0508 199.244 57.9888 199.679 57.8647C200.115 57.7407 200.488 57.4926 200.799 57.2445C201.172 56.9344 201.421 56.6243 201.669 56.1902C201.918 55.7561 202.043 55.2599 202.043 54.6397C202.043 54.1435 201.918 53.6474 201.732 53.2132C201.545 52.7791 201.296 52.469 200.985 52.1589C200.674 51.8488 200.301 51.6627 199.866 51.4767C199.431 51.2906 198.995 51.2286 198.498 51.2286H191.657ZM197.565 39.8789C197.565 39.8789 195.575 39.8789 191.657 39.8789V46.0189H197.503C197.876 46.0189 198.187 45.9569 198.56 45.8328C198.933 45.7088 199.244 45.4607 199.493 45.2126C199.741 44.9646 199.99 44.6545 200.177 44.2203C200.363 43.8482 200.426 43.4141 200.426 42.9799C200.426 42.5458 200.363 42.1116 200.177 41.7395C199.99 41.3674 199.804 41.0573 199.493 40.7472C199.244 40.4991 198.933 40.251 198.56 40.127C198.187 39.9409 197.876 39.8789 197.503 39.8789H197.565ZM199.182 63.6946H184.816V34.2351H197.938C199.368 34.2351 200.674 34.4211 201.856 34.7933C203.038 35.1654 204.033 35.7236 204.841 36.4058C205.65 37.088 206.334 37.9563 206.769 39.0106C207.204 40.003 207.453 41.1813 207.453 42.4838C207.453 43.104 207.329 43.6621 207.142 44.2823C206.956 44.9025 206.707 45.3987 206.334 45.8949C206.023 46.391 205.65 46.8252 205.214 47.1973C204.779 47.5694 204.344 47.8795 203.846 48.0656C204.53 48.3136 205.214 48.6237 205.836 49.1199C206.458 49.554 207.018 50.0502 207.515 50.6704C208.013 51.2906 208.386 51.9108 208.635 52.6551C208.946 53.3993 209.07 54.1435 209.07 54.9498C209.07 56.5003 208.759 57.8647 208.2 58.9811C207.64 60.0975 206.893 61.0278 205.961 61.71C205.028 62.3922 203.97 62.9504 202.789 63.2605C201.607 63.5706 200.363 63.7566 199.182 63.7566V63.6946ZM227.168 43.29L226.919 44.2203L223.312 53.1512H230.962L227.354 44.2203L227.168 43.29H227.106H227.168ZM242.529 63.6946H235.253L233.387 58.9811H221.011L219.145 63.6946H211.869L223.996 34.1731H230.464L242.591 63.6946H242.529ZM244.581 54.5157C244.581 54.5157 246.882 54.5157 251.422 54.5157C251.422 55.7561 251.92 56.6864 252.915 57.4306C253.91 58.1748 255.34 58.547 257.144 58.547C258.139 58.547 259.01 58.4849 259.694 58.2989C260.378 58.1748 260.938 57.9268 261.373 57.6787C261.808 57.3686 262.119 57.0585 262.306 56.6864C262.492 56.2522 262.617 55.8181 262.617 55.3219C262.617 54.6397 262.43 54.0195 262.119 53.5854C261.808 53.1512 261.311 52.7791 260.689 52.469C260.067 52.1589 259.321 51.9108 258.45 51.6627C257.579 51.4146 256.522 51.1666 255.403 50.8565C254.843 50.7324 254.221 50.5464 253.537 50.3603C252.853 50.1742 252.107 49.9882 251.422 49.7401C250.676 49.492 249.992 49.1819 249.308 48.8098C248.624 48.4377 248.002 48.0035 247.442 47.4454C246.882 46.8872 246.447 46.267 246.136 45.5227C245.825 44.7785 245.639 43.9102 245.639 42.9799C245.639 41.4914 245.887 40.189 246.385 39.0106C246.882 37.8322 247.567 36.8399 248.562 36.0337C249.557 35.2274 250.801 34.6072 252.355 34.1731C253.91 33.7389 255.714 33.5529 257.828 33.5529C259.569 33.5529 261.124 33.8009 262.43 34.2351C263.798 34.6692 264.918 35.2894 265.851 36.0957C266.784 36.9019 267.468 37.8943 267.965 39.0106C268.463 40.127 268.712 41.4294 268.712 42.8559H261.808C261.808 42.4217 261.746 41.9876 261.56 41.5535C261.373 41.1193 261.124 40.8092 260.813 40.4991C260.44 40.189 260.005 39.9409 259.383 39.7549C258.823 39.5688 258.077 39.4448 257.268 39.4448C256.336 39.4448 255.589 39.5068 254.967 39.6929C254.345 39.8789 253.91 40.065 253.537 40.3131C253.164 40.5611 252.915 40.8712 252.791 41.2434C252.666 41.5535 252.604 41.9256 252.604 42.2977C252.604 42.7939 252.791 43.228 253.102 43.6001C253.413 43.9722 253.848 44.2823 254.408 44.5304C254.967 44.7785 255.651 45.0266 256.398 45.2126C257.144 45.3987 258.015 45.5848 258.885 45.7088C260.44 46.0809 261.871 46.453 263.177 46.9492C264.483 47.3833 265.602 48.0035 266.597 48.6858C267.592 49.368 268.338 50.2983 268.836 51.3526C269.396 52.407 269.644 53.7094 269.644 55.2599C269.644 56.7484 269.334 58.0508 268.712 59.1672C268.09 60.2835 267.219 61.2758 266.1 62.0201C264.98 62.7643 263.674 63.3845 262.119 63.7566C260.565 64.1288 258.885 64.3768 257.082 64.3768C254.843 64.3768 252.915 64.0667 251.298 63.5086C249.743 62.9504 248.437 62.1441 247.442 61.2138C246.447 60.2835 245.701 59.2292 245.265 58.0508C244.83 56.8724 244.581 55.694 244.581 54.5157ZM273.811 54.5157C273.811 54.5157 276.112 54.5157 280.652 54.5157C280.652 55.7561 281.15 56.6864 282.145 57.4306C283.14 58.1748 284.57 58.547 286.374 58.547C287.369 58.547 288.24 58.4849 288.924 58.2989C289.608 58.1748 290.168 57.9268 290.603 57.6787C291.038 57.3686 291.349 57.0585 291.536 56.6864C291.722 56.2522 291.847 55.8181 291.847 55.3219C291.847 54.6397 291.66 54.0195 291.349 53.5854C291.038 53.1512 290.541 52.7791 289.919 52.469C289.297 52.1589 288.551 51.9108 287.68 51.6627C286.809 51.4146 285.752 51.1666 284.633 50.8565C284.073 50.7324 283.451 50.5464 282.767 50.3603C282.083 50.1742 281.336 49.9882 280.652 49.7401C279.906 49.492 279.222 49.1819 278.538 48.8098C277.854 48.4377 277.232 48.0035 276.672 47.4454C276.112 46.8872 275.677 46.267 275.366 45.5227C275.055 44.7785 274.869 43.9102 274.869 42.9799C274.869 41.4914 275.117 40.189 275.615 39.0106C276.112 37.8322 276.796 36.8399 277.792 36.0337C278.787 35.2274 280.03 34.6072 281.585 34.1731C283.14 33.7389 284.944 33.5529 287.058 33.5529C288.799 33.5529 290.354 33.8009 291.66 34.2351C293.028 34.6692 294.148 35.2894 295.081 36.0957C296.014 36.9019 296.698 37.8943 297.195 39.0106C297.693 40.127 297.941 41.4294 297.941 42.8559H291.038C291.038 42.4217 290.976 41.9876 290.789 41.5535C290.603 41.1193 290.354 40.8092 290.043 40.4991C289.67 40.189 289.235 39.9409 288.613 39.7549C288.053 39.5688 287.307 39.4448 286.498 39.4448C285.565 39.4448 284.819 39.5068 284.197 39.6929C283.575 39.8789 283.14 40.065 282.767 40.3131C282.394 40.5611 282.145 40.8712 282.021 41.2434C281.896 41.5535 281.834 41.9256 281.834 42.2977C281.834 42.7939 282.021 43.228 282.331 43.6001C282.642 43.9722 283.078 44.2823 283.637 44.5304C284.197 44.7785 284.881 45.0266 285.628 45.2126C286.374 45.3987 287.245 45.5848 288.115 45.7088C289.67 46.0809 291.1 46.453 292.406 46.9492C293.712 47.3833 294.832 48.0035 295.827 48.6858C296.822 49.368 297.568 50.2983 298.066 51.3526C298.626 52.407 298.874 53.7094 298.874 55.2599C298.874 56.7484 298.563 58.0508 297.941 59.1672C297.32 60.2835 296.449 61.2758 295.329 62.0201C294.21 62.7643 292.904 63.3845 291.349 63.7566C289.794 64.1288 288.115 64.3768 286.312 64.3768C284.073 64.3768 282.145 64.0667 280.528 63.5086C278.973 62.9504 277.667 62.1441 276.672 61.2138C275.677 60.2835 274.931 59.2292 274.495 58.0508C274.06 56.8724 273.811 55.694 273.811 54.5157ZM317.221 43.29L316.972 44.2203L313.365 53.1512H321.014L317.407 44.2203L317.221 43.29H317.159H317.221ZM332.582 63.6946H325.306L323.44 58.9811H311.064L309.198 63.6946H301.922L314.049 34.1731H320.517L332.644 63.6946H332.582ZM343.776 57.8027H348.752C351.675 57.8027 353.914 57.0585 355.468 55.57C357.023 54.0815 357.769 51.9108 357.769 49.0579C357.769 47.6934 357.583 46.453 357.21 45.3987C356.837 44.2823 356.277 43.352 355.531 42.6078C354.784 41.8636 353.851 41.2434 352.732 40.8092C351.613 40.3751 350.307 40.189 348.752 40.189H343.776V57.8647V57.8027ZM336.873 63.6946V34.2351H348.876C351.115 34.2351 353.23 34.5452 355.157 35.1654C357.085 35.7856 358.765 36.7159 360.195 37.9563C361.625 39.1967 362.745 40.7472 363.491 42.5458C364.3 44.3444 364.673 46.5151 364.673 48.8718C364.673 51.0425 364.362 53.0892 363.615 54.8878C362.931 56.6864 361.936 58.2369 360.568 59.5393C359.2 60.8417 357.583 61.834 355.593 62.5783C353.665 63.3225 351.426 63.6326 348.876 63.6326H336.811L336.873 63.6946ZM368.653 48.9338C368.653 46.7631 369.088 44.7785 369.959 42.9179C370.83 41.0573 371.949 39.3828 373.442 38.0183C374.872 36.5918 376.613 35.5375 378.541 34.7312C380.531 33.925 382.584 33.5529 384.823 33.5529C387.062 33.5529 389.176 33.925 391.104 34.7312C393.094 35.5375 394.773 36.6539 396.266 38.0183C397.696 39.3828 398.878 41.0573 399.749 42.9179C400.619 44.7785 401.055 46.8252 401.055 48.9338C401.055 51.0425 400.619 53.0892 399.749 54.9498C398.878 56.8104 397.758 58.4849 396.266 59.8494C394.835 61.2138 393.094 62.3302 391.104 63.1364C389.176 63.9427 387.062 64.3768 384.823 64.3768C382.584 64.3768 380.469 63.9427 378.541 63.1364C376.551 62.3302 374.872 61.2138 373.442 59.8494C372.011 58.4229 370.83 56.8104 369.959 54.9498C369.088 53.0892 368.653 51.0425 368.653 48.9338ZM375.494 48.9338C375.494 50.2983 375.743 51.5387 376.24 52.7171C376.738 53.8955 377.36 54.8878 378.23 55.7561C379.101 56.6243 380.034 57.2445 381.216 57.7407C382.335 58.2369 383.517 58.4849 384.823 58.4849C386.129 58.4849 387.373 58.2369 388.492 57.7407C389.611 57.2445 390.606 56.5623 391.415 55.7561C392.223 54.8878 392.908 53.8955 393.405 52.7171C393.903 51.5387 394.151 50.2983 394.151 48.9338C394.151 47.5694 393.903 46.329 393.405 45.1506C392.908 43.9722 392.286 42.9799 391.415 42.1116C390.606 41.2434 389.611 40.5611 388.492 40.127C387.373 39.6308 386.129 39.3828 384.823 39.3828C383.517 39.3828 382.335 39.6308 381.216 40.127C380.096 40.6232 379.101 41.3054 378.23 42.1116C377.422 42.9799 376.738 43.9722 376.24 45.1506C375.743 46.329 375.494 47.5694 375.494 48.9338ZM413.12 48.1896H418.903C419.463 48.1896 420.023 48.0656 420.52 47.8795C421.018 47.6934 421.453 47.3833 421.826 47.0732C422.2 46.7011 422.511 46.329 422.697 45.8328C422.884 45.3367 423.008 44.7785 423.008 44.1583C423.008 43.5381 422.884 43.0419 422.697 42.5458C422.511 42.0496 422.2 41.6155 421.826 41.2434C421.453 40.8712 421.018 40.6232 420.52 40.3751C420.023 40.189 419.525 40.065 418.903 40.065H413.12V48.1276V48.1896ZM430.595 63.6946H422.697L417.535 54.0815H413.182V63.6946H406.279V34.2351H419.214C420.769 34.2351 422.2 34.4832 423.506 34.9793C424.812 35.4755 425.931 36.1577 426.864 37.026C427.797 37.8943 428.543 38.9486 429.041 40.189C429.6 41.4294 429.849 42.7939 429.849 44.2203C429.849 45.2747 429.725 46.267 429.476 47.1353C429.227 48.0656 428.854 48.8718 428.357 49.6161C427.859 50.3603 427.299 51.0425 426.615 51.6007C425.931 52.1589 425.185 52.6551 424.314 53.0272L430.533 63.6326L430.595 63.6946ZM433.829 54.5157C433.829 54.5157 436.13 54.5157 440.67 54.5157C440.67 55.7561 441.168 56.6864 442.163 57.4306C443.158 58.1748 444.588 58.547 446.392 58.547C447.387 58.547 448.258 58.4849 448.942 58.2989C449.626 58.1748 450.186 57.9268 450.621 57.6787C451.056 57.3686 451.367 57.0585 451.554 56.6864C451.74 56.2522 451.865 55.8181 451.865 55.3219C451.865 54.6397 451.678 54.0195 451.367 53.5854C451.056 53.1512 450.559 52.7791 449.937 52.469C449.315 52.1589 448.569 51.9108 447.698 51.6627C446.827 51.4146 445.77 51.1666 444.651 50.8565C444.091 50.7324 443.469 50.5464 442.785 50.3603C442.101 50.1742 441.355 49.9882 440.67 49.7401C439.924 49.492 439.24 49.1819 438.556 48.8098C437.872 48.4377 437.25 48.0035 436.69 47.4454C436.13 46.8872 435.695 46.267 435.384 45.5227C435.073 44.7785 434.887 43.9102 434.887 42.9799C434.887 41.4914 435.135 40.189 435.633 39.0106C436.13 37.8322 436.815 36.8399 437.81 36.0337C438.805 35.2274 440.049 34.6072 441.603 34.1731C443.158 33.7389 444.962 33.5529 447.076 33.5529C448.817 33.5529 450.372 33.8009 451.678 34.2351C453.046 34.6692 454.166 35.2894 455.099 36.0957C456.032 36.9019 456.716 37.8943 457.213 39.0106C457.711 40.127 457.96 41.4294 457.96 42.8559H451.056C451.056 42.4217 450.994 41.9876 450.808 41.5535C450.621 41.1193 450.372 40.8092 450.061 40.4991C449.688 40.189 449.253 39.9409 448.631 39.7549C448.071 39.5688 447.325 39.4448 446.516 39.4448C445.584 39.4448 444.837 39.5068 444.215 39.6929C443.593 39.8789 443.158 40.065 442.785 40.3131C442.412 40.5611 442.163 40.8712 442.039 41.2434C441.914 41.5535 441.852 41.9256 441.852 42.2977C441.852 42.7939 442.039 43.228 442.35 43.6001C442.661 43.9722 443.096 44.2823 443.656 44.5304C444.215 44.7785 444.899 45.0266 445.646 45.2126C446.392 45.3987 447.263 45.5848 448.133 45.7088C449.688 46.0809 451.119 46.453 452.425 46.9492C453.731 47.3833 454.85 48.0035 455.845 48.6858C456.84 49.368 457.586 50.2983 458.084 51.3526C458.644 52.407 458.892 53.7094 458.892 55.2599C458.892 56.7484 458.581 58.0508 457.96 59.1672C457.338 60.2835 456.467 61.2758 455.348 62.0201C454.228 62.7643 452.922 63.3845 451.367 63.7566C449.813 64.1288 448.133 64.3768 446.33 64.3768C444.091 64.3768 442.163 64.0667 440.546 63.5086C438.991 62.9504 437.685 62.1441 436.69 61.2138C435.695 60.2835 434.949 59.2292 434.513 58.0508C434.078 56.8724 433.829 55.694 433.829 54.5157Z" fill="white"/>
</g>
<defs>
<linearGradient id="paint0_linear_28_88" x1="53.2196" y1="17.9238" x2="84.4092" y2="110.51" gradientUnits="userSpaceOnUse">
<stop stop-color="#B315E8"/>
<stop offset="0.329412" stop-color="#318BEF"/>
<stop offset="0.690196" stop-color="#99FFFF"/>
<stop offset="1" stop-color="#7AE6BD"/>
</linearGradient>
<linearGradient id="paint1_linear_28_88" x1="168.273" y1="60.0975" x2="203.501" y2="134.225" gradientUnits="userSpaceOnUse">
<stop stop-color="#B315E8"/>
<stop offset="0.501961" stop-color="#8AE0E6"/>
<stop offset="1" stop-color="#7FE3AF"/>
</linearGradient>
<clipPath id="clip0_28_88">
<rect width="459" height="105" fill="white"/>
</clipPath>
</defs>
</svg>
