<svg width="67" height="68" viewBox="0 0 67 68" fill="none" xmlns="http://www.w3.org/2000/svg">
<g filter="url(#filter0_d_34_10)">
<path d="M32.2426 12.3061C32.2426 12.8723 32.7007 13.3303 33.2669 13.3303C33.8318 13.3303 34.2911 12.8723 34.2911 12.3061V8.87584C34.2911 8.30963 33.8331 7.85156 33.2669 7.85156C32.7007 7.85156 32.2426 8.30963 32.2426 8.87584V12.3061Z" fill="url(#paint0_linear_34_10)"/>
<path d="M43.5499 44.7349C43.7517 44.9396 44.0166 45.0424 44.2816 45.0424C44.5403 45.0424 44.7995 44.9442 44.9955 44.7481C48.2322 41.5713 50.0146 37.3265 50.0146 32.7932C50.0146 23.5557 42.5005 16.0408 33.2633 16.0408C24.0254 16.0408 16.5099 23.5562 16.5099 32.7932C16.5099 37.3265 18.2922 41.5713 21.5289 44.7481C21.9329 45.1447 22.5812 45.1389 22.9779 44.7349C23.3745 44.3309 23.3682 43.6826 22.9646 43.2864C20.1241 40.4987 18.5601 36.7718 18.5601 32.7932C18.5601 24.6852 25.1565 18.0893 33.264 18.0893C41.3707 18.0893 47.9668 24.6857 47.9668 32.7932C47.9668 36.7718 46.4027 40.4988 43.5626 43.2864C43.1586 43.6826 43.1528 44.3309 43.5494 44.7349H43.5499Z" fill="url(#paint1_linear_34_10)"/>
<path fill-rule="evenodd" clip-rule="evenodd" d="M45.6428 56.7903H20.8909V59.4187C20.8896 59.982 20.4315 60.4401 19.8654 60.4401H8.0245C7.60605 60.4401 7.22968 60.1854 7.07451 59.7975C6.9181 59.4096 7.01467 58.9664 7.31593 58.6767L11.1043 55.0419L7.28244 51.0281C7.00017 50.731 6.92093 50.2952 7.08353 49.9193C7.24447 49.5429 7.61465 49.2986 8.02444 49.2986H18.8321V47.3846C18.8321 46.8184 19.2897 46.3603 19.8563 46.3603H24.1069V40.778C24.1069 37.9742 26.3883 35.6946 29.1903 35.6946H37.5793C40.383 35.6946 42.6627 37.9742 42.6627 40.778V46.3603H46.6735C47.2397 46.3603 47.6978 46.8184 47.6978 47.3846V49.2957H58.5086C58.9184 49.2957 59.2886 49.54 59.4495 49.916C59.6104 50.2924 59.5329 50.7298 59.2502 51.0253L55.4283 55.039L59.2167 58.6739C59.518 58.9636 59.6133 59.4068 59.4581 59.7947C59.3001 60.1851 58.9241 60.4401 58.5069 60.4401H46.666C46.0998 60.4401 45.6418 59.982 45.6418 59.4158L45.6428 56.7903ZM36.5192 46.3601H30.2506V41.2606C30.2506 40.6944 29.7925 40.2363 29.2263 40.2363C28.6601 40.2363 28.2021 40.6944 28.2021 41.2606V46.3601H26.1564V40.7778C26.1564 39.1039 27.5175 37.7429 29.1913 37.7429H37.5803C39.2529 37.7429 40.6152 39.1039 40.6152 40.7778V46.3601H38.5679V41.2606C38.5679 40.6944 38.1098 40.2363 37.5436 40.2363C36.9774 40.2363 36.5193 40.6944 36.5193 41.2606L36.5192 46.3601ZM10.4151 51.347H18.8334V55.766C18.8334 55.8155 18.8367 55.8642 18.8433 55.9116V58.3943H10.5732L13.2609 55.8159C13.6679 55.4251 13.6827 54.7784 13.2931 54.3702L10.4151 51.347ZM47.6987 55.766V51.3441H56.1199L53.2415 54.3674C52.8523 54.7768 52.8672 55.4222 53.2737 55.8131L55.9618 58.3911H47.6913V55.8893L47.6921 55.8807C47.693 55.8761 47.6934 55.872 47.6938 55.8675C47.695 55.8547 47.6959 55.8419 47.6967 55.8291C47.6979 55.8085 47.6987 55.7874 47.6987 55.766V55.766ZM20.8815 54.7417H45.6503V48.4087H20.8815V54.7417Z" fill="url(#paint2_linear_34_10)"/>
<path d="M22.8728 16.0763C22.5187 16.0763 22.1749 15.8934 21.9847 15.5641L20.2701 12.5937C19.9874 12.1034 20.1541 11.4774 20.6444 11.1951C21.1346 10.9124 21.7611 11.0792 22.0433 11.5694L23.7584 14.5399C24.0407 15.0301 23.874 15.6566 23.3837 15.9389C23.2228 16.0309 23.0469 16.0763 22.8728 16.0763V16.0763Z" fill="url(#paint3_linear_34_10)"/>
<path d="M14.7327 23.5137C14.8937 23.6074 15.0695 23.6512 15.2436 23.6512C15.5977 23.6512 15.9415 23.4683 16.1317 23.139C16.4156 22.6488 16.2473 22.0228 15.757 21.7401L12.7865 20.0254C12.2967 19.7427 11.6703 19.9099 11.388 20.3997C11.1041 20.89 11.2724 21.5164 11.7623 21.7987L14.7327 23.5137Z" fill="url(#paint4_linear_34_10)"/>
<path d="M12.4254 34.0236H8.99519C8.42899 34.0236 7.97092 33.5655 7.97092 32.9993C7.97092 32.4331 8.42899 31.975 8.99519 31.975H12.4254C12.9916 31.975 13.4497 32.4331 13.4497 32.9993C13.4497 33.5655 12.9916 34.0236 12.4254 34.0236Z" fill="url(#paint5_linear_34_10)"/>
<path d="M11.313 45.6214C11.5032 45.9503 11.847 46.1335 12.2011 46.1335C12.3752 46.1335 12.551 46.0881 12.712 45.9957L15.6824 44.281C16.1723 43.9983 16.3394 43.3723 16.0567 42.882C15.7744 42.3918 15.148 42.2251 14.6582 42.5073L11.6877 44.2224C11.1974 44.5047 11.0307 45.1311 11.313 45.6214L11.313 45.6214Z" fill="url(#paint6_linear_34_10)"/>
<path d="M43.6376 16.1503C43.4635 16.1503 43.2881 16.1065 43.1271 16.0129C42.6369 15.7306 42.4685 15.1041 42.7524 14.6139L44.4675 11.6434C44.7498 11.1536 45.3762 10.9864 45.8665 11.2691C46.3563 11.5514 46.5247 12.1779 46.2408 12.6677L44.5261 15.6381C44.3371 15.9675 43.9917 16.1503 43.6376 16.1503L43.6376 16.1503Z" fill="url(#paint7_linear_34_10)"/>
<path d="M50.3261 23.2655C50.5163 23.5948 50.8601 23.7776 51.2142 23.7776C51.3883 23.7776 51.5641 23.7339 51.7251 23.6402L54.6955 21.9255C55.1854 21.6429 55.3525 21.0168 55.0698 20.5266C54.7876 20.0363 54.1611 19.8696 53.6713 20.1519L50.7008 21.8669C50.2106 22.1492 50.0438 22.7757 50.3261 23.2655H50.3261Z" fill="url(#paint8_linear_34_10)"/>
<path d="M57.3896 34.1714H53.9598C53.3936 34.1714 52.9355 33.7133 52.9355 33.1471C52.9355 32.5809 53.3936 32.1229 53.9598 32.1229H57.3896C57.9562 32.1229 58.4138 32.5809 58.4138 33.1471C58.4138 33.7133 57.9562 34.1714 57.3896 34.1714Z" fill="url(#paint9_linear_34_10)"/>
<path d="M53.6001 46.1243C53.761 46.218 53.9364 46.2618 54.1106 46.2618C54.4634 46.2618 54.8088 46.0773 54.9991 45.7496C55.283 45.2594 55.1146 44.6334 54.6244 44.3506L51.6539 42.636C51.1636 42.3533 50.5372 42.5205 50.2549 43.0103C49.971 43.5006 50.1394 44.127 50.6296 44.4093L53.6001 46.1243Z" fill="url(#paint10_linear_34_10)"/>
<path fill-rule="evenodd" clip-rule="evenodd" d="M33.3846 34.6649C30.5123 34.6649 28.3454 32.3296 28.3454 29.2319C28.3454 26.0989 30.9044 24.4601 33.4317 24.4601C35.9131 24.4601 38.4244 26.0989 38.4244 29.2319C38.4244 32.3295 36.2573 34.6649 33.3847 34.6649H33.3846ZM33.4316 26.5087C31.9682 26.5087 30.3939 27.36 30.3939 29.2319C30.3939 31.1926 31.6521 32.6163 33.3846 32.6163C35.117 32.6163 36.3757 31.1925 36.3757 29.2319C36.3757 27.2214 34.7893 26.5087 33.4316 26.5087Z" fill="url(#paint11_linear_34_10)"/>
</g>
<defs>
<filter id="filter0_d_34_10" x="0" y="0.851562" width="66.5323" height="66.5886" filterUnits="userSpaceOnUse" color-interpolation-filters="sRGB">
<feFlood flood-opacity="0" result="BackgroundImageFix"/>
<feColorMatrix in="SourceAlpha" type="matrix" values="0 0 0 0 0 0 0 0 0 0 0 0 0 0 0 0 0 0 127 0" result="hardAlpha"/>
<feOffset/>
<feGaussianBlur stdDeviation="3.5"/>
<feComposite in2="hardAlpha" operator="out"/>
<feColorMatrix type="matrix" values="0 0 0 0 0 0 0 0 0 0 0 0 0 0 0 0 0 0 1 0"/>
<feBlend mode="normal" in2="BackgroundImageFix" result="effect1_dropShadow_34_10"/>
<feBlend mode="normal" in="SourceGraphic" in2="effect1_dropShadow_34_10" result="shape"/>
</filter>
<linearGradient id="paint0_linear_34_10" x1="33.2669" y1="7.85156" x2="33.2669" y2="13.3303" gradientUnits="userSpaceOnUse">
<stop stop-color="#B315E8"/>
<stop offset="1" stop-color="#159CE8"/>
</linearGradient>
<linearGradient id="paint1_linear_34_10" x1="33.2622" y1="16.0408" x2="33.2622" y2="45.0424" gradientUnits="userSpaceOnUse">
<stop stop-color="#B315E8"/>
<stop offset="1" stop-color="#159CE8"/>
</linearGradient>
<linearGradient id="paint2_linear_34_10" x1="33.2661" y1="35.6946" x2="33.2661" y2="60.4401" gradientUnits="userSpaceOnUse">
<stop stop-color="#B315E8"/>
<stop offset="1" stop-color="#159CE8"/>
</linearGradient>
<linearGradient id="paint3_linear_34_10" x1="22.0141" y1="11.0576" x2="22.0141" y2="16.0763" gradientUnits="userSpaceOnUse">
<stop stop-color="#B315E8"/>
<stop offset="1" stop-color="#159CE8"/>
</linearGradient>
<linearGradient id="paint4_linear_34_10" x1="13.7598" y1="19.8879" x2="13.7598" y2="23.6512" gradientUnits="userSpaceOnUse">
<stop stop-color="#B315E8"/>
<stop offset="1" stop-color="#159CE8"/>
</linearGradient>
<linearGradient id="paint5_linear_34_10" x1="10.7103" y1="31.975" x2="10.7103" y2="34.0236" gradientUnits="userSpaceOnUse">
<stop stop-color="#B315E8"/>
<stop offset="1" stop-color="#159CE8"/>
</linearGradient>
<linearGradient id="paint6_linear_34_10" x1="13.685" y1="42.3701" x2="13.685" y2="46.1335" gradientUnits="userSpaceOnUse">
<stop stop-color="#B315E8"/>
<stop offset="1" stop-color="#159CE8"/>
</linearGradient>
<linearGradient id="paint7_linear_34_10" x1="44.4966" y1="11.1317" x2="44.4966" y2="16.1503" gradientUnits="userSpaceOnUse">
<stop stop-color="#B315E8"/>
<stop offset="1" stop-color="#159CE8"/>
</linearGradient>
<linearGradient id="paint8_linear_34_10" x1="52.6981" y1="20.0146" x2="52.6981" y2="23.7776" gradientUnits="userSpaceOnUse">
<stop stop-color="#B315E8"/>
<stop offset="1" stop-color="#159CE8"/>
</linearGradient>
<linearGradient id="paint9_linear_34_10" x1="55.6747" y1="32.1229" x2="55.6747" y2="34.1714" gradientUnits="userSpaceOnUse">
<stop stop-color="#B315E8"/>
<stop offset="1" stop-color="#159CE8"/>
</linearGradient>
<linearGradient id="paint10_linear_34_10" x1="52.627" y1="42.4985" x2="52.627" y2="46.2618" gradientUnits="userSpaceOnUse">
<stop stop-color="#B315E8"/>
<stop offset="1" stop-color="#159CE8"/>
</linearGradient>
<linearGradient id="paint11_linear_34_10" x1="33.3849" y1="24.4601" x2="33.3849" y2="34.6649" gradientUnits="userSpaceOnUse">
<stop stop-color="#B315E8"/>
<stop offset="1" stop-color="#159CE8"/>
</linearGradient>
</defs>
</svg>
