<svg width="71" height="71" viewBox="0 0 71 71" fill="none" xmlns="http://www.w3.org/2000/svg">
<g filter="url(#filter0_d_36_166)">
<path d="M27.9744 17.9316C27.981 16.5674 27.2701 15.2998 26.1028 14.5941L21.0284 11.414C20.4273 11.0243 19.7306 10.8074 19.0142 10.7877C18.2983 10.7676 17.5905 10.9453 16.9688 11.3012C16.3511 11.642 15.8352 12.1414 15.4742 12.7481C15.1137 13.3542 14.9209 14.0458 14.9164 14.7517V21.1119C14.9209 21.8177 15.1137 22.5094 15.4742 23.1155C15.8351 23.7221 16.3511 24.2215 16.9688 24.5623C17.5498 24.8815 18.2007 25.0522 18.8632 25.0587C19.6067 25.0617 20.3346 24.8503 20.9608 24.4496L26.0352 21.2695C27.2288 20.5808 27.9668 19.3102 27.9744 17.9319V17.9316ZM24.3206 18.4054L19.224 21.5855C19.0413 21.6856 18.8203 21.6856 18.6375 21.5855C18.4528 21.4898 18.3385 21.297 18.3445 21.0891V14.7516C18.3385 14.5437 18.4528 14.3509 18.6375 14.2557C18.7347 14.2371 18.8338 14.2371 18.931 14.2557C19.0272 14.2316 19.1278 14.2316 19.224 14.2557L24.2984 17.4358V17.4353C24.4706 17.531 24.5778 17.7122 24.5778 17.909C24.5778 18.1058 24.4706 18.2876 24.2984 18.3827L24.3206 18.4054Z" fill="url(#paint0_linear_36_166)"/>
<path d="M59.8191 23.0067H38.957V6.65518C38.957 5.01049 38.3036 3.43282 37.1407 2.26947C35.9773 1.10659 34.3995 0.453125 32.755 0.453125H10.2021C8.55736 0.453125 6.97969 1.10655 5.81635 2.26947C4.65347 3.43286 4 5.01062 4 6.65518V29.2081C4 30.8528 4.65343 32.4305 5.81635 33.5938C6.97973 34.7567 8.55749 35.4102 10.2021 35.4102H26.5536V56.2723C26.5536 57.9169 27.207 59.4946 28.3699 60.658C29.5333 61.8208 31.1111 62.4743 32.7556 62.4743H59.8191C61.4638 62.4743 63.0415 61.8209 64.2048 60.658C65.3677 59.4946 66.0212 57.9168 66.0212 56.2723V29.2087C66.0212 27.5641 65.3678 25.9864 64.2048 24.823C63.0415 23.6602 61.4637 23.0067 59.8191 23.0067ZM10.2027 32.0279C9.45513 32.0279 8.73779 31.7308 8.20915 31.2023C7.68051 30.6737 7.38356 29.9563 7.38356 29.2087V6.6558C7.38356 5.90823 7.68057 5.19089 8.20915 4.66225C8.73772 4.13361 9.4551 3.83666 10.2027 3.83666H32.7556C33.5032 3.83666 34.2205 4.13367 34.7492 4.66225C35.2778 5.19082 35.5748 5.9082 35.5748 6.6558V23.0073H32.7556C31.111 23.0073 29.5333 23.6607 28.3699 24.8237C27.2071 25.987 26.5536 27.5648 26.5536 29.2094V32.0285L10.2027 32.0279ZM62.6389 56.2716C62.6389 57.0192 62.3419 57.7365 61.8133 58.2652C61.2847 58.7938 60.5673 59.0907 59.8197 59.0907H32.7562C32.0087 59.0907 31.2913 58.7937 30.7627 58.2652C30.234 57.7366 29.9371 57.0192 29.9371 56.2716V29.2081C29.9371 28.4605 30.2341 27.7432 30.7627 27.2146C31.2913 26.6859 32.0086 26.389 32.7562 26.389H59.8197C60.5673 26.389 61.2847 26.686 61.8133 27.2146C62.3419 27.7431 62.6389 28.4605 62.6389 29.2081V56.2716Z" fill="url(#paint1_linear_36_166)"/>
<path d="M36.1386 35.4095H49.6703C50.6046 35.4095 51.3618 34.6524 51.3618 33.718C51.3618 32.7837 50.6046 32.0266 49.6703 32.0266H36.1386C35.2042 32.0266 34.4471 32.7837 34.4471 33.718C34.4471 34.6524 35.2042 35.4095 36.1386 35.4095Z" fill="url(#paint2_linear_36_166)"/>
<path d="M56.4362 50.0703H36.1386C35.2042 50.0703 34.4471 50.8274 34.4471 51.7617C34.4471 52.6961 35.2042 53.4532 36.1386 53.4532H56.4362C57.3705 53.4532 58.1277 52.6961 58.1277 51.7617C58.1277 50.8274 57.3705 50.0703 56.4362 50.0703Z" fill="url(#paint3_linear_36_166)"/>
<path d="M56.4362 41.0491H36.1386C35.2042 41.0491 34.4471 41.8062 34.4471 42.7405C34.4471 43.6749 35.2042 44.432 36.1386 44.432H56.4362C57.3705 44.432 58.1277 43.6749 58.1277 42.7405C58.1277 41.8062 57.3705 41.0491 56.4362 41.0491Z" fill="url(#paint4_linear_36_166)"/>
</g>
<defs>
<filter id="filter0_d_36_166" x="0" y="0.453125" width="70.0212" height="70.0212" filterUnits="userSpaceOnUse" color-interpolation-filters="sRGB">
<feFlood flood-opacity="0" result="BackgroundImageFix"/>
<feColorMatrix in="SourceAlpha" type="matrix" values="0 0 0 0 0 0 0 0 0 0 0 0 0 0 0 0 0 0 127 0" result="hardAlpha"/>
<feOffset dy="4"/>
<feGaussianBlur stdDeviation="2"/>
<feComposite in2="hardAlpha" operator="out"/>
<feColorMatrix type="matrix" values="0 0 0 0 0 0 0 0 0 0 0 0 0 0 0 0 0 0 0.25 0"/>
<feBlend mode="normal" in2="BackgroundImageFix" result="effect1_dropShadow_36_166"/>
<feBlend mode="normal" in="SourceGraphic" in2="effect1_dropShadow_36_166" result="shape"/>
</filter>
<linearGradient id="paint0_linear_36_166" x1="21.4454" y1="10.7862" x2="21.4454" y2="25.0587" gradientUnits="userSpaceOnUse">
<stop stop-color="#B315E8"/>
<stop offset="1" stop-color="#159CE8"/>
</linearGradient>
<linearGradient id="paint1_linear_36_166" x1="35.0106" y1="0.453125" x2="35.0106" y2="62.4743" gradientUnits="userSpaceOnUse">
<stop stop-color="#B315E8"/>
<stop offset="1" stop-color="#159CE8"/>
</linearGradient>
<linearGradient id="paint2_linear_36_166" x1="42.9044" y1="32.0266" x2="42.9044" y2="35.4095" gradientUnits="userSpaceOnUse">
<stop stop-color="#B315E8"/>
<stop offset="1" stop-color="#159CE8"/>
</linearGradient>
<linearGradient id="paint3_linear_36_166" x1="46.2874" y1="50.0703" x2="46.2874" y2="53.4532" gradientUnits="userSpaceOnUse">
<stop stop-color="#B315E8"/>
<stop offset="1" stop-color="#159CE8"/>
</linearGradient>
<linearGradient id="paint4_linear_36_166" x1="46.2874" y1="41.0491" x2="46.2874" y2="44.432" gradientUnits="userSpaceOnUse">
<stop stop-color="#B315E8"/>
<stop offset="1" stop-color="#159CE8"/>
</linearGradient>
</defs>
</svg>
