<svg width="78" height="79" viewBox="0 0 78 79" fill="none" xmlns="http://www.w3.org/2000/svg">
<g filter="url(#filter0_d_34_10)">
<path d="M37.753 12.9175C37.753 13.6073 38.3111 14.1654 39.0009 14.1654C39.6892 14.1654 40.2487 13.6073 40.2487 12.9175V8.73847C40.2487 8.04867 39.6907 7.4906 39.0009 7.4906C38.3111 7.4906 37.753 8.04867 37.753 8.73847V12.9175Z" fill="url(#paint0_linear_34_10)"/>
<path d="M51.5287 52.4256C51.7746 52.6749 52.0974 52.8001 52.4201 52.8001C52.7354 52.8001 53.0511 52.6805 53.2899 52.4417C57.2332 48.5714 59.4046 43.3999 59.4046 37.877C59.4046 26.6229 50.2502 17.4676 38.9965 17.4676C27.7421 17.4676 18.5859 26.6236 18.5859 37.877C18.5859 43.3999 20.7573 48.5714 24.7006 52.4417C25.1928 52.9248 25.9826 52.9178 26.4658 52.4256C26.949 51.9334 26.9414 51.1435 26.4497 50.6608C22.9891 47.2646 21.0837 42.7241 21.0837 37.877C21.0837 27.9991 29.1201 19.9633 38.9974 19.9633C48.8738 19.9633 56.9099 27.9996 56.9099 37.877C56.9099 42.7241 55.0043 47.2647 51.5442 50.6608C51.052 51.1435 51.045 51.9333 51.5282 52.4256H51.5287Z" fill="url(#paint1_linear_34_10)"/>
<path fill-rule="evenodd" clip-rule="evenodd" d="M54.0784 67.1126H23.9232V70.3148C23.9217 71.0011 23.3636 71.5591 22.6738 71.5591H8.24815C7.73835 71.5591 7.27982 71.2489 7.09077 70.7763C6.90022 70.3037 7.01787 69.7637 7.3849 69.4109L12.0003 64.9825L7.3441 60.0926C7.0002 59.7306 6.90367 59.1997 7.10177 58.7417C7.29784 58.2831 7.74882 57.9855 8.24807 57.9855H21.415V55.6537C21.415 54.9639 21.9726 54.4058 22.6629 54.4058H27.8413V47.6048C27.8413 44.189 30.6207 41.4117 34.0344 41.4117H44.2547C47.6705 41.4117 50.4478 44.189 50.4478 47.6048V54.4058H55.3342C56.024 54.4058 56.5821 54.9639 56.5821 55.6537V57.982H69.7528C70.2521 57.982 70.7031 58.2797 70.8992 58.7377C71.0952 59.1962 71.0007 59.7291 70.6563 60.0891L66.0001 64.979L70.6155 69.4074C70.9825 69.7603 71.0987 70.3003 70.9096 70.7729C70.7171 71.2485 70.2591 71.5592 69.7508 71.5592H55.3251C54.6353 71.5592 54.0772 71.0011 54.0772 70.3113L54.0784 67.1126ZM42.9633 54.4056H35.3262V48.1928C35.3262 47.503 34.7681 46.9449 34.0783 46.9449C33.3885 46.9449 32.8304 47.503 32.8304 48.1928V54.4056H30.3382V47.6046C30.3382 45.5653 31.9964 43.9072 34.0357 43.9072H44.2559C46.2936 43.9072 47.9534 45.5653 47.9534 47.6046V54.4056H45.4591V48.1928C45.4591 47.503 44.901 46.9449 44.2112 46.9449C43.5214 46.9449 42.9634 47.503 42.9634 48.1928L42.9633 54.4056ZM11.1606 60.481H21.4166V65.8647C21.4166 65.925 21.4206 65.9843 21.4287 66.0421V69.0668H11.3532L14.6277 65.9255C15.1234 65.4494 15.1415 64.6616 14.6669 64.1643L11.1606 60.481ZM56.5832 65.8647V60.4776H66.8427L63.3359 64.1608C62.8618 64.6596 62.8799 65.4459 63.3752 65.9221L66.6502 69.0628H56.5742V66.015L56.5752 66.0044C56.5762 65.9989 56.5767 65.9939 56.5772 65.9884C56.5787 65.9728 56.5797 65.9572 56.5807 65.9416C56.5822 65.9165 56.5832 65.8908 56.5832 65.8647V65.8647ZM23.9118 64.6168H54.0876V56.9013H23.9118V64.6168Z" fill="url(#paint2_linear_34_10)"/>
<path d="M26.3378 17.5107C25.9064 17.5107 25.4876 17.288 25.2558 16.8868L23.1669 13.2679C22.8225 12.6706 23.0256 11.9079 23.6229 11.564C24.2202 11.2196 24.9834 11.4227 25.3273 12.02L27.4167 15.6389C27.7606 16.2362 27.5575 16.9994 26.9602 17.3433C26.7641 17.4554 26.55 17.5107 26.3378 17.5107V17.5107Z" fill="url(#paint3_linear_34_10)"/>
<path d="M16.4208 26.5718C16.6169 26.6859 16.831 26.7392 17.0432 26.7392C17.4746 26.7392 17.8934 26.5165 18.1252 26.1153C18.4711 25.518 18.2659 24.7553 17.6686 24.4109L14.0497 22.322C13.453 21.9776 12.6898 22.1812 12.3459 22.778C12 23.3753 12.2051 24.1384 12.8019 24.4823L16.4208 26.5718Z" fill="url(#paint4_linear_34_10)"/>
<path d="M13.6098 39.3759H9.43073C8.74093 39.3759 8.18286 38.8178 8.18286 38.128C8.18286 37.4382 8.74093 36.8801 9.43073 36.8801H13.6098C14.2996 36.8801 14.8577 37.4382 14.8577 38.128C14.8577 38.8178 14.2996 39.3759 13.6098 39.3759Z" fill="url(#paint5_linear_34_10)"/>
<path d="M12.2545 53.5055C12.4863 53.9062 12.9051 54.1294 13.3364 54.1294C13.5486 54.1294 13.7628 54.0741 13.9589 53.9615L17.5778 51.8726C18.1746 51.5282 18.3782 50.7655 18.0338 50.1682C17.6899 49.5709 16.9267 49.3678 16.3299 49.7117L12.711 51.8011C12.1137 52.145 11.9106 52.9082 12.2545 53.5055L12.2545 53.5055Z" fill="url(#paint6_linear_34_10)"/>
<path d="M51.6355 17.6009C51.4234 17.6009 51.2097 17.5476 51.0136 17.4335C50.4163 17.0896 50.2112 16.3264 50.5571 15.7291L52.6466 12.1102C52.9905 11.5134 53.7537 11.3098 54.3509 11.6542C54.9477 11.9981 55.1529 12.7613 54.8069 13.358L52.718 16.9769C52.4877 17.3781 52.0669 17.6009 51.6355 17.6009L51.6355 17.6009Z" fill="url(#paint7_linear_34_10)"/>
<path d="M59.7841 26.2693C60.0159 26.6705 60.4347 26.8933 60.866 26.8933C61.0782 26.8933 61.2924 26.84 61.4885 26.7258L65.1074 24.6369C65.7042 24.2925 65.9078 23.5298 65.5634 22.9325C65.2195 22.3352 64.4563 22.1321 63.8595 22.476L60.2406 24.5655C59.6434 24.9094 59.4402 25.6726 59.7841 26.2693H59.7841Z" fill="url(#paint8_linear_34_10)"/>
<path d="M68.3896 39.556H64.211C63.5212 39.556 62.9632 38.998 62.9632 38.3082C62.9632 37.6184 63.5212 37.0603 64.211 37.0603H68.3896C69.0799 37.0603 69.6374 37.6184 69.6374 38.3082C69.6374 38.998 69.0799 39.556 68.3896 39.556Z" fill="url(#paint9_linear_34_10)"/>
<path d="M63.7728 54.1182C63.9689 54.2323 64.1826 54.2856 64.3947 54.2856C64.8246 54.2856 65.2454 54.0609 65.4772 53.6617C65.8231 53.0644 65.618 52.3017 65.0207 51.9573L61.4018 49.8683C60.8045 49.524 60.0413 49.7276 59.6974 50.3244C59.3515 50.9217 59.5566 51.6848 60.1539 52.0287L63.7728 54.1182Z" fill="url(#paint10_linear_34_10)"/>
<path fill-rule="evenodd" clip-rule="evenodd" d="M39.1443 40.1572C35.645 40.1572 33.005 37.3121 33.005 33.5382C33.005 29.7212 36.1227 27.7247 39.2017 27.7247C42.2248 27.7247 45.2842 29.7212 45.2842 33.5382C45.2842 37.3119 42.6442 40.1572 39.1445 40.1572H39.1443ZM39.2016 30.2205C37.4188 30.2205 35.5007 31.2577 35.5007 33.5382C35.5007 35.9269 37.0337 37.6614 39.1444 37.6614C41.2549 37.6614 42.7884 35.9268 42.7884 33.5382C42.7884 31.0887 40.8557 30.2205 39.2016 30.2205Z" fill="url(#paint11_linear_34_10)"/>
</g>
<defs>
<filter id="filter0_d_34_10" x="0" y="0.490601" width="78" height="78.0686" filterUnits="userSpaceOnUse" color-interpolation-filters="sRGB">
<feFlood flood-opacity="0" result="BackgroundImageFix"/>
<feColorMatrix in="SourceAlpha" type="matrix" values="0 0 0 0 0 0 0 0 0 0 0 0 0 0 0 0 0 0 127 0" result="hardAlpha"/>
<feOffset/>
<feGaussianBlur stdDeviation="3.5"/>
<feComposite in2="hardAlpha" operator="out"/>
<feColorMatrix type="matrix" values="0 0 0 0 0 0 0 0 0 0 0 0 0 0 0 0 0 0 1 0"/>
<feBlend mode="normal" in2="BackgroundImageFix" result="effect1_dropShadow_34_10"/>
<feBlend mode="normal" in="SourceGraphic" in2="effect1_dropShadow_34_10" result="shape"/>
</filter>
<linearGradient id="paint0_linear_34_10" x1="39.0009" y1="7.4906" x2="39.0009" y2="14.1654" gradientUnits="userSpaceOnUse">
<stop stop-color="#B315E8"/>
<stop offset="1" stop-color="#159CE8"/>
</linearGradient>
<linearGradient id="paint1_linear_34_10" x1="38.9953" y1="17.4676" x2="38.9953" y2="52.8001" gradientUnits="userSpaceOnUse">
<stop stop-color="#B315E8"/>
<stop offset="1" stop-color="#159CE8"/>
</linearGradient>
<linearGradient id="paint2_linear_34_10" x1="39" y1="41.4117" x2="39" y2="71.5592" gradientUnits="userSpaceOnUse">
<stop stop-color="#B315E8"/>
<stop offset="1" stop-color="#159CE8"/>
</linearGradient>
<linearGradient id="paint3_linear_34_10" x1="25.2916" y1="11.3964" x2="25.2916" y2="17.5107" gradientUnits="userSpaceOnUse">
<stop stop-color="#B315E8"/>
<stop offset="1" stop-color="#159CE8"/>
</linearGradient>
<linearGradient id="paint4_linear_34_10" x1="15.2355" y1="22.1545" x2="15.2355" y2="26.7392" gradientUnits="userSpaceOnUse">
<stop stop-color="#B315E8"/>
<stop offset="1" stop-color="#159CE8"/>
</linearGradient>
<linearGradient id="paint5_linear_34_10" x1="11.5203" y1="36.8801" x2="11.5203" y2="39.3759" gradientUnits="userSpaceOnUse">
<stop stop-color="#B315E8"/>
<stop offset="1" stop-color="#159CE8"/>
</linearGradient>
<linearGradient id="paint6_linear_34_10" x1="15.1443" y1="49.5444" x2="15.1443" y2="54.1294" gradientUnits="userSpaceOnUse">
<stop stop-color="#B315E8"/>
<stop offset="1" stop-color="#159CE8"/>
</linearGradient>
<linearGradient id="paint7_linear_34_10" x1="52.682" y1="11.4867" x2="52.682" y2="17.6009" gradientUnits="userSpaceOnUse">
<stop stop-color="#B315E8"/>
<stop offset="1" stop-color="#159CE8"/>
</linearGradient>
<linearGradient id="paint8_linear_34_10" x1="62.6739" y1="22.3088" x2="62.6739" y2="26.8933" gradientUnits="userSpaceOnUse">
<stop stop-color="#B315E8"/>
<stop offset="1" stop-color="#159CE8"/>
</linearGradient>
<linearGradient id="paint9_linear_34_10" x1="66.3003" y1="37.0603" x2="66.3003" y2="39.556" gradientUnits="userSpaceOnUse">
<stop stop-color="#B315E8"/>
<stop offset="1" stop-color="#159CE8"/>
</linearGradient>
<linearGradient id="paint10_linear_34_10" x1="62.5873" y1="49.7009" x2="62.5873" y2="54.2856" gradientUnits="userSpaceOnUse">
<stop stop-color="#B315E8"/>
<stop offset="1" stop-color="#159CE8"/>
</linearGradient>
<linearGradient id="paint11_linear_34_10" x1="39.1446" y1="27.7247" x2="39.1446" y2="40.1572" gradientUnits="userSpaceOnUse">
<stop stop-color="#B315E8"/>
<stop offset="1" stop-color="#159CE8"/>
</linearGradient>
</defs>
</svg>
