<svg width="64" height="65" viewBox="0 0 64 65" fill="none" xmlns="http://www.w3.org/2000/svg">
<path d="M31.681 16.4243C35.8402 16.4243 39.1891 11.6196 39.1891 7.64176C39.1891 3.67819 35.8207 0.453125 31.681 0.453125C27.5413 0.453125 24.1729 3.67819 24.1729 7.64176C24.1729 11.6196 27.5218 16.4243 31.681 16.4243ZM31.681 2.40441C34.697 2.40441 37.1506 4.75362 37.1506 7.64127C37.1506 10.6524 34.5756 14.472 31.681 14.472C28.7864 14.472 26.2114 10.6524 26.2114 7.64127C26.2114 4.75362 28.665 2.40441 31.681 2.40441Z" fill="url(#paint0_linear_56_370)"/>
<path d="M1.01911 64.8613H10.7678C11.3307 64.8613 11.7871 64.4243 11.7871 63.8854V54.5515C11.7871 54.0126 11.3307 53.5756 10.7678 53.5756H6.91273V44.1907H30.6615V53.5756H26.8064C26.2435 53.5756 25.7871 54.0126 25.7871 54.5515V63.8854C25.7871 64.4243 26.2435 64.8613 26.8064 64.8613H36.5551C37.118 64.8613 37.5744 64.4243 37.5744 63.8854V54.5515C37.5744 54.0126 37.118 53.5756 36.5551 53.5756H32.7V44.1907H56.4488V53.5756H52.5937C52.0308 53.5756 51.5745 54.0126 51.5745 54.5515V63.8854C51.5745 64.4243 52.0308 64.8613 52.5937 64.8613H62.3424C62.9053 64.8613 63.3617 64.4243 63.3617 63.8854V54.5515C63.3617 54.0126 62.9053 53.5756 62.3424 53.5756H58.4873V43.2148C58.4873 42.6759 58.031 42.239 57.4681 42.239H32.7V33.2287H44.0408C44.6037 33.2287 45.0601 32.7917 45.0601 32.2528V25.9448C45.0601 21.4585 41.5778 17.562 36.7796 16.6796C36.7657 16.6772 36.7527 16.682 36.7388 16.6801C36.6671 16.6696 36.5985 16.6777 36.5273 16.682C36.4656 16.6858 36.4044 16.682 36.3451 16.6958C36.2784 16.7115 36.2202 16.7439 36.1585 16.772C36.1028 16.7973 36.0455 16.8159 35.9958 16.8502C35.9425 16.8864 35.9027 16.9369 35.8569 16.9836C35.8111 17.0303 35.7624 17.0722 35.7265 17.128C35.7186 17.1399 35.7061 17.1466 35.6987 17.159L31.555 24.1874L27.6766 17.1818C27.6671 17.1646 27.6502 17.1551 27.6397 17.1389C27.6044 17.0827 27.5586 17.0383 27.5128 16.9902C27.4685 16.944 27.4282 16.8959 27.3765 16.8592C27.3247 16.8225 27.267 16.8001 27.2087 16.7734C27.149 16.7458 27.0928 16.7162 27.0291 16.7005C26.9699 16.6857 26.9091 16.6862 26.8469 16.6819C26.7753 16.6767 26.7061 16.671 26.6334 16.681C26.6155 16.6833 26.5986 16.6772 26.5802 16.681C21.7835 17.572 18.3016 21.4684 18.3016 25.9457V32.2537C18.3016 32.7926 18.758 33.2296 19.3209 33.2296L30.6617 33.2286V42.2389H5.89362C5.33073 42.2389 4.87436 42.6758 4.87436 43.2148V53.5755H1.01926C0.456374 53.5755 0 54.0125 0 54.5514V63.8853C0 64.4242 0.456374 64.8612 1.01926 64.8612L1.01911 64.8613ZM35.5351 62.9095H27.8249V55.5274H35.5351V62.9095ZM61.3224 62.9095H53.6122V55.5274H61.3224V62.9095ZM20.3392 25.9453C20.3392 22.6279 22.7813 19.7083 26.2433 18.7629L30.6249 26.6772C30.7996 26.9922 31.1396 27.1913 31.5123 27.1961H31.5258C31.893 27.1961 32.2325 27.0069 32.4131 26.7001L37.0974 18.7552C40.5692 19.6882 43.0208 22.6135 43.0208 25.9452V31.2773H39.1015V25.8299C39.1015 25.291 38.6451 24.8541 38.0822 24.8541C37.5194 24.8541 37.063 25.291 37.063 25.8299V31.2773H26.297V25.8299C26.297 25.291 25.8407 24.8541 25.2778 24.8541C24.7149 24.8541 24.2585 25.291 24.2585 25.8299V31.2773H20.3392L20.3392 25.9453ZM2.03837 55.5281H9.74857V62.9102H2.03837V55.5281Z" fill="url(#paint1_linear_56_370)"/>
<defs>
<linearGradient id="paint0_linear_56_370" x1="30.8144" y1="-6.84605" x2="48.1696" y2="0.349095" gradientUnits="userSpaceOnUse">
<stop stop-color="#B315E8"/>
<stop offset="0.501961" stop-color="#8AE0E6"/>
<stop offset="1" stop-color="#7FE3AF"/>
</linearGradient>
<linearGradient id="paint1_linear_56_370" x1="28.0243" y1="-5.34734" x2="92.2503" y2="31.8917" gradientUnits="userSpaceOnUse">
<stop stop-color="#B315E8"/>
<stop offset="0.501961" stop-color="#8AE0E6"/>
<stop offset="1" stop-color="#7FE3AF"/>
</linearGradient>
</defs>
</svg>
