<svg width="65" height="67" viewBox="0 0 65 67" fill="none" xmlns="http://www.w3.org/2000/svg">
<path d="M58.5719 23.3703H39.0001C39.1329 22.8534 39.2 22.3215 39.2 21.7877V6.84945C39.1981 5.1536 38.5199 3.52782 37.3147 2.3286C36.11 1.12938 34.4756 0.455051 32.7713 0.453125H6.42872C4.72441 0.455006 3.09004 1.12939 1.88531 2.3286C0.680114 3.52781 0.00193589 5.1536 0 6.84945V21.7877C0.00236311 23.4836 0.680114 25.1093 1.88531 26.3086C3.09051 27.5078 4.72441 28.1821 6.42872 28.184H9.98047C11.7822 31.4549 15.1576 33.2227 20.0318 33.4413H7.9548C6.25001 33.4437 4.61564 34.1185 3.41043 35.3182C2.20523 36.5179 1.5279 38.1447 1.52657 39.8404V54.7751C1.52846 56.4709 2.20668 58.0967 3.4114 59.2959C4.6166 60.4951 6.2505 61.1695 7.9548 61.1719H11.5075C13.4245 64.6492 17.1243 66.4292 22.5155 66.4531H22.5207H22.5202C22.9347 66.4531 23.3095 66.2076 23.473 65.8286C23.6365 65.4491 23.5571 65.0098 23.2712 64.7107C22.2546 63.701 21.4539 62.4971 20.9175 61.1718H34.2981C36.0024 61.1699 37.6363 60.4951 38.8415 59.2958C40.0467 58.0971 40.7244 56.4708 40.7264 54.775V51.1006H45.6095C45.0731 52.4264 44.2724 53.6303 43.2563 54.6404C42.9709 54.939 42.8915 55.3783 43.055 55.7573C43.2185 56.1363 43.5928 56.3818 44.0073 56.3818H44.0116C49.4033 56.3579 53.1031 54.5816 55.02 51.1006H58.5718C60.2761 51.0987 61.91 50.4239 63.1152 49.2251C64.3204 48.0259 64.9981 46.4001 65 44.7043V29.766C64.9981 28.0706 64.3199 26.4449 63.1152 25.2456C61.9104 24.0469 60.2766 23.3721 58.5723 23.3697L58.5719 23.3703ZM11.5565 26.7173H11.557C11.3863 26.3538 11.0201 26.1215 10.6169 26.121H6.42898C5.27387 26.12 4.16701 25.6634 3.35031 24.8507C2.53361 24.0385 2.07468 22.9367 2.07323 21.7878V6.84955C2.07465 5.70065 2.53357 4.59882 3.35031 3.78665C4.16701 2.97401 5.27386 2.51688 6.42898 2.51543H32.7716C33.9267 2.51684 35.0335 2.97396 35.8502 3.78665C36.6669 4.59883 37.1259 5.70065 37.1273 6.84955V21.7878C37.1259 22.9367 36.6665 24.0381 35.8498 24.8507C35.0335 25.6629 33.9262 26.12 32.7716 26.121H18.0274C17.7187 26.1215 17.4262 26.2583 17.2291 26.4949C17.0325 26.7314 16.9521 27.0432 17.0093 27.3447C17.2901 28.7551 17.8657 30.0907 18.6985 31.2649C15.1245 30.828 12.7778 29.3245 11.5571 26.7173H11.5565ZM21.744 31.7234H21.7444C20.7283 30.7138 19.9276 29.5098 19.3908 28.1842H26.0033C25.8691 28.7015 25.801 29.2329 25.8005 29.7667V33.4414H21.2033C21.5719 33.3671 21.8706 33.0986 21.9836 32.7417C22.0961 32.3842 22.0044 31.9944 21.7444 31.7235L21.744 31.7234ZM38.654 54.7762C38.6525 55.9255 38.1931 57.0269 37.3769 57.8395C36.5602 58.6522 35.4533 59.1088 34.2982 59.1103H19.554C19.2454 59.1107 18.9528 59.2476 18.7557 59.4842C18.5586 59.7207 18.4778 60.032 18.5355 60.334C18.8162 61.7439 19.3919 63.0795 20.2242 64.2542C16.6511 63.8135 14.3045 62.3148 13.0828 59.7066C12.9127 59.3431 12.5464 59.1107 12.1437 59.1112H7.9548C6.80017 59.1098 5.69332 58.6527 4.87662 57.84C4.06039 57.0273 3.60099 55.926 3.60002 54.7771V39.8412C3.60097 38.6923 4.06037 37.591 4.87662 36.7787C5.69332 35.966 6.80017 35.5089 7.9548 35.5075H25.8013V44.7057C25.8032 46.4015 26.4814 48.0273 27.6866 49.2265C28.8913 50.4253 30.5257 51.1001 32.23 51.102H38.655L38.654 54.7762ZM62.9276 44.7056C62.9262 45.8545 62.4672 46.9558 61.6505 47.7685C60.8337 48.5811 59.7269 49.0383 58.5718 49.0392H54.3839C53.9812 49.0392 53.6144 49.2715 53.4438 49.6346C52.223 52.2428 49.8778 53.7415 46.3025 54.1822C47.1352 53.0079 47.7109 51.6727 47.9916 50.2628C48.0493 49.9609 47.969 49.6491 47.7719 49.4125C47.5753 49.176 47.2822 49.0391 46.9736 49.0391H32.2294C31.0743 49.0382 29.9674 48.5811 29.1507 47.7684C28.334 46.9557 27.8751 45.8544 27.8737 44.7055V29.7672C27.8741 29.2255 27.9776 28.6889 28.178 28.1847H32.771C34.877 28.1837 36.8493 27.1562 38.0489 25.4339H58.5717C59.7268 25.4354 60.8337 25.892 61.6504 26.7047C62.4671 27.5169 62.926 28.6183 62.9274 29.7672L62.9276 44.7056ZM35.5493 33.5471C34.5657 33.5471 33.6223 33.9356 32.9266 34.6279C32.2314 35.3201 31.8405 36.2588 31.8405 37.2375C31.8405 38.2161 32.2314 39.1549 32.9266 39.8466C33.6223 40.5389 34.5657 40.9278 35.5493 40.9278C36.5328 40.9278 37.4762 40.5389 38.1719 39.8466C38.8676 39.1548 39.258 38.2162 39.258 37.2375C39.258 36.2588 38.8676 35.3201 38.1719 34.6279C37.4762 33.9356 36.5328 33.5471 35.5493 33.5471ZM35.5493 38.8632C34.8876 38.8637 34.2912 38.4672 34.0378 37.8591C33.7845 37.2506 33.9244 36.5508 34.3923 36.0853C34.8602 35.6197 35.5635 35.4805 36.175 35.7326C36.7861 35.9846 37.1846 36.5781 37.1841 37.2365C37.1808 38.1338 36.451 38.8599 35.5492 38.8633L35.5493 38.8632ZM45.4012 33.5471C44.4177 33.5471 43.4743 33.9356 42.7786 34.6279C42.0829 35.3201 41.6925 36.2588 41.6925 37.2375C41.6925 38.2161 42.0829 39.1549 42.7786 39.8466C43.4743 40.5389 44.4177 40.9278 45.4012 40.9278C46.3848 40.9278 47.3282 40.5389 48.0234 39.8466C48.7191 39.1548 49.11 38.2162 49.11 37.2375C49.11 36.2588 48.7191 35.3201 48.0234 34.6279C47.3282 33.9356 46.3848 33.5471 45.4012 33.5471ZM45.4012 38.8632C44.7396 38.8637 44.1432 38.4672 43.8898 37.8591C43.6365 37.2506 43.7764 36.5508 44.2438 36.0853C44.7117 35.6197 45.4155 35.4805 46.0265 35.7326C46.6376 35.9846 47.0361 36.5781 47.0356 37.2365C47.0346 38.1343 46.3035 38.8623 45.4012 38.8633L45.4012 38.8632ZM55.2523 33.5471C54.2687 33.5471 53.3253 33.9356 52.6296 34.6279C51.9339 35.3201 51.5435 36.2588 51.5435 37.2375C51.5435 38.2161 51.9339 39.1549 52.6296 39.8466C53.3253 40.5389 54.2687 40.9278 55.2523 40.9278C56.2358 40.9278 57.1792 40.5389 57.8744 39.8466C58.5701 39.1548 58.961 38.2162 58.961 37.2375C58.961 36.2588 58.5701 35.3201 57.8744 34.6279C57.1792 33.9356 56.2358 33.5471 55.2523 33.5471ZM55.2523 38.8632C54.5906 38.8632 53.9942 38.4667 53.7413 37.8587C53.488 37.2501 53.6283 36.5504 54.0962 36.0848C54.5637 35.6197 55.2674 35.4805 55.8785 35.7326C56.4895 35.9846 56.888 36.5786 56.8875 37.2365C56.8866 38.1347 56.1549 38.8628 55.2522 38.8632L55.2523 38.8632ZM8.08072 40.8455C8.08072 40.2759 8.54437 39.8137 9.1172 39.8137H22.2474H22.2469C22.8088 39.8282 23.2569 40.2858 23.2569 40.845C23.2569 41.4041 22.8088 41.8617 22.2469 41.8763H9.11672C8.54437 41.8763 8.08072 41.4145 8.08025 40.8455H8.08072ZM31.8159 53.7696C31.8159 54.3391 31.3518 54.8009 30.7794 54.8009H9.11686C8.5445 54.8009 8.08038 54.3391 8.08038 53.7696C8.08038 53.2 8.5445 52.7382 9.11686 52.7382H30.7794C31.3518 52.7387 31.8154 53.2005 31.8159 53.7696ZM8.08072 47.3074C8.08119 46.7379 8.54484 46.2765 9.1172 46.2761H22.2474H22.2469C22.8088 46.2906 23.2569 46.7482 23.2569 47.3074C23.2569 47.867 22.8088 48.3246 22.2469 48.3392H9.11672C8.54389 48.3387 8.08025 47.8769 8.08025 47.3074H8.08072ZM19.1558 25.2888H24.6747C25.395 25.2705 26.0822 24.9836 26.6001 24.4847C27.1181 23.9862 27.4291 23.3122 27.4712 22.5959L28.3049 13.5125C28.3682 12.7962 28.123 12.087 27.6295 11.5622C27.0855 10.9692 26.317 10.6301 25.5102 10.6283H24.2587C25.0026 8.44338 24.9005 6.33459 23.9354 4.88699C23.6249 4.3852 23.1815 3.97746 22.6546 3.70799C22.1276 3.43899 21.5368 3.31859 20.9455 3.35951C20.4634 3.39573 20.0707 3.75925 19.9998 4.23518C19.3915 8.28529 18.5776 9.99847 16.6606 11.2424V11.2428C16.4352 11.3618 16.2187 11.4968 16.0131 11.6473C15.8988 11.605 15.7782 11.5829 15.6563 11.5829H11.9197C11.3473 11.5829 10.8837 12.0442 10.8837 12.6137V23.2063C10.8837 23.7758 11.3473 24.2376 11.9197 24.2376H15.6521C15.7419 24.2376 15.8312 24.2254 15.9177 24.2019C16.8497 24.904 17.9864 25.2854 19.1557 25.2887L19.1558 25.2888ZM17.658 13.0522C17.6878 13.0371 17.7166 13.0207 17.745 13.0028C20.3038 11.3624 21.2533 9.10558 21.8668 5.65176C22.0005 5.75852 22.1163 5.88596 22.2094 6.0294C22.7879 6.89472 23.0204 8.76591 21.7722 11.1903V11.1898C21.6082 11.51 21.6229 11.8919 21.811 12.1981C21.9996 12.5047 22.3342 12.6914 22.6953 12.6919H25.5103C25.7343 12.6942 25.947 12.7869 26.1001 12.9491C26.1989 13.0479 26.2504 13.1833 26.2429 13.3221L26.2008 13.7782H25.1908C24.6288 13.7928 24.1812 14.2504 24.1812 14.8096C24.1812 15.3692 24.6288 15.8268 25.1908 15.8414H26.0098L25.9101 16.9277H24.902C24.3297 16.9277 23.8655 17.3895 23.8655 17.959C23.8655 18.5285 24.3297 18.9899 24.902 18.9899H25.7201L25.6209 20.0772H24.6132C24.0409 20.0772 23.5768 20.539 23.5768 21.1085C23.5768 21.678 24.0409 22.1398 24.6132 22.1398H25.4314L25.4073 22.4093H25.4068C25.4143 22.8302 25.0953 23.1857 24.6747 23.2271H19.1558C18.2125 23.2229 17.3159 22.8199 16.6891 22.1182V13.8003C16.9628 13.4942 17.2903 13.2407 17.6557 13.0521L17.658 13.0522ZM14.6162 22.1761H12.9577V13.6457H14.6166L14.6162 22.1761Z" fill="url(#paint0_linear_56_191)"/>
<defs>
<linearGradient id="paint0_linear_56_191" x1="28.7489" y1="-29.7104" x2="102.817" y2="2.45487" gradientUnits="userSpaceOnUse">
<stop stop-color="#B315E8"/>
<stop offset="0.501961" stop-color="#8AE0E6"/>
<stop offset="1" stop-color="#7FE3AF"/>
</linearGradient>
</defs>
</svg>
