<svg width="65" height="66" viewBox="0 0 65 66" fill="none" xmlns="http://www.w3.org/2000/svg">
<path d="M60.5604 8.50896H64.5881V6.49507H60.3446C59.9132 5.34416 58.834 4.48118 57.5396 4.48118C57.1798 4.48118 56.7484 4.55293 56.3887 4.69692C56.0289 3.40253 54.878 2.46739 53.4396 2.46739C53.0799 2.46739 52.6484 2.53913 52.2887 2.68312C51.929 1.38873 50.778 0.453588 49.3397 0.453588C47.973 0.453588 46.7504 1.38876 46.3906 2.68312C46.0309 2.53913 45.6712 2.46739 45.2397 2.46739C43.5856 2.46739 42.2189 3.83408 42.2189 5.48822V6.49513H29.2725C28.553 6.49513 27.9058 6.92661 27.5462 7.50205H26.3952L22.225 6.2794V0.453125H20.2112V5.63169L16.4709 4.55303L8.12757 4.48129V0.453126H6.11368V4.69706C4.96277 5.12853 4.09979 6.20773 4.09979 7.50212C4.09979 7.86184 4.17153 8.29331 4.31553 8.65303C3.02063 9.01225 2.08599 10.1632 2.08599 11.6015C2.08599 11.9613 2.15774 12.3927 2.30173 12.7525C1.00734 13.1122 0.0721947 14.2631 0.0721947 15.7015C0.0721947 17.1399 1.00737 18.2908 2.30173 18.6505C2.15774 19.0098 2.08599 19.3695 2.08599 19.8009C2.08599 21.4551 3.45269 22.8218 5.10682 22.8218H6.11374V35.912C6.11374 36.6315 6.54521 37.2787 7.12066 37.6384V38.6448L5.82628 42.8164H0V44.8303H5.17857L4.09991 48.5705L4.02816 56.9139H9.79894e-07V58.9278H4.24394C4.67541 60.0787 5.75461 60.9416 7.04899 60.9416C7.40872 60.9416 7.84019 60.8699 8.1999 60.7259C8.55963 62.0203 9.71058 62.9554 11.1489 62.9554C11.5087 62.9554 11.9401 62.8837 12.2998 62.7397C12.6596 64.0341 13.8105 64.9692 15.2489 64.9692C16.6156 64.9692 17.8382 64.0341 18.1979 62.7397C18.5576 62.8837 18.9174 62.9554 19.3488 62.9554C21.003 62.9554 22.3697 61.5887 22.3697 59.9346V58.9277H35.4599C36.1794 58.9277 36.8266 58.4962 37.1863 57.9208H40.1353L42.5088 59.7189V65.0414H44.5211V61.0855L48.3331 63.0275H52.5766C54.2307 63.0275 55.5974 61.6608 55.5974 60.0067V58.9998H56.6043V65.0413H58.6182V58.9998L59.6256 58.9993C61.2798 58.9993 62.6465 57.6326 62.6465 55.9785C62.6465 55.6187 62.5747 55.1873 62.4307 54.8276C63.7251 54.4678 64.6603 53.3169 64.6603 51.8785C64.6603 50.5118 63.7251 49.2892 62.4307 48.9295C62.5747 48.5698 62.6465 48.21 62.6465 47.7786C62.6465 46.4119 61.7113 45.1893 60.4169 44.8295C60.5609 44.4698 60.6327 44.1101 60.6327 43.6786C60.6327 42.3842 59.7697 41.2333 58.6188 40.8736V29.7262C58.6188 29.0067 58.1873 28.3595 57.6119 27.9998V26.8489L58.8345 22.6773L64.6603 22.6778V20.6639H59.4817L60.6326 16.9237L60.5604 8.50896ZM29.2732 8.50896H42.3635V9.51588H41.3566C39.7024 9.51588 38.3357 10.8826 38.3357 12.5367V16.7801L40.2056 20.5921H29.2735L29.2732 8.50896ZM4.02769 19.6569C4.02769 19.0814 4.45916 18.65 5.0346 18.65H11.0761V16.6361H3.0202C2.44474 16.6361 2.01328 16.2046 2.01328 15.6292C2.01328 15.0537 2.44475 14.6222 3.0202 14.6222H11.0756L11.0761 12.6083H5.03459C4.45913 12.6083 4.02767 12.1769 4.02767 11.6014C4.02767 11.026 4.45914 10.5945 5.03459 10.5945H11.0761V8.58063H7.04848C6.47302 8.58063 6.04156 8.14916 6.04156 7.57371C6.04156 6.99826 6.47303 6.56679 7.04848 6.56679H15.9673L25.893 9.51583H27.1874V19.6573H23.8069L19.5635 22.8221L15.8233 24.692H12.0113C11.4358 24.692 11.0044 24.2606 11.0044 23.6851L11.0039 22.6782H14.0247V20.6643H5.03463C4.45917 20.6643 4.02771 20.1606 4.02771 19.6569H4.02769ZM9.06228 22.6781V23.685C9.06228 25.3391 10.429 26.7058 12.0831 26.7058H16.3265L20.1385 24.8359V35.8404L8.05546 35.8399V22.6777L9.06228 22.6781ZM20.2107 60.0069C20.2107 60.5824 19.7792 61.0139 19.2038 61.0139C18.6283 61.0139 18.1969 60.5824 18.1969 60.0069V53.9654H16.183V62.0208C16.183 62.5963 15.7515 63.0277 15.1761 63.0277C14.6006 63.0277 14.1692 62.5963 14.1692 62.0208V53.9654H12.1547V60.0069C12.1547 60.5824 11.7233 61.0139 11.1478 61.0139C10.5724 61.0139 10.1409 60.5824 10.1409 60.0069V53.9654H8.12703V57.9931C8.12703 58.5685 7.69556 59 7.12011 59C6.54466 59 6.11319 58.5685 6.11319 57.9931V49.0747L9.06223 39.1489V37.8546H19.2037V41.235L22.3685 45.4784L24.2384 49.2186V53.0306C24.2384 53.6061 23.807 54.0376 23.2315 54.0376H22.2246V51.0167H20.2107V60.0069ZM35.3149 56.9861H22.2246V55.9792H23.2315C24.8857 55.9792 26.2524 54.6125 26.2524 52.9584V48.7149L24.3821 44.9029H35.3865V56.986L35.3149 56.9861ZM23.2318 42.817V43.1767L21.2179 40.4434V37.4949C21.7934 37.1352 22.2248 36.488 22.2248 35.7686V23.3976L24.5983 21.6713H27.5474C27.9071 22.2467 28.5543 22.6782 29.2737 22.6782L41.6442 22.6787L43.3705 25.0522V28.0012C42.7951 28.3609 42.3636 29.0081 42.3636 29.7275V42.602L38.192 43.8247H37.0411C36.6814 43.2492 36.0342 42.8178 35.3148 42.8178C35.3148 42.8173 23.2317 42.8173 23.2317 42.8173L23.2318 42.817ZM56.5329 29.7267V40.8028H48.4058L44.3781 42.0255L44.3776 29.7266L56.5329 29.7267ZM60.5605 47.8517C60.5605 48.4272 60.1291 48.8586 59.5536 48.8586H53.5121V50.8725H61.5675C62.143 50.8725 62.5744 51.304 62.5744 51.8794C62.5749 52.4549 62.1429 52.8863 61.568 52.8863H53.5126V54.9002H59.5541C60.1296 54.9002 60.561 55.3317 60.561 55.9071C60.561 56.4826 60.1296 56.9141 59.5541 56.9141H50.4914V58.9279H53.5122V59.9349C53.5122 60.5103 53.0807 60.9418 52.5053 60.9418H48.6933L44.9531 59.0719L40.7096 55.9071H37.3292V45.8379H38.3361L48.6216 42.8167H57.5403C58.1158 42.8167 58.5473 43.2481 58.5473 43.8236C58.5473 44.399 58.1158 44.8305 57.5403 44.8305H53.5127V46.8444H59.5542C60.1292 46.8449 60.5606 47.3481 60.5606 47.8518L60.5605 47.8517ZM55.5259 26.4182V27.7131H45.385V24.3326L42.2201 20.0892L40.3502 16.349V12.537C40.3502 11.9615 40.7817 11.5301 41.3572 11.5301H42.3636V14.5509H44.3775V5.48854C44.3775 4.91308 44.8089 4.48162 45.3844 4.48162C45.9598 4.48162 46.3913 4.91309 46.3913 5.48854V11.5301H48.4052V5.48854L48.4057 3.47414C48.4057 2.89868 48.8372 2.46722 49.4126 2.46722C49.988 2.46722 50.4195 2.89869 50.4195 3.47414V11.5296L52.4334 11.5301V5.48853C52.4334 4.91306 52.8649 4.48161 53.4403 4.48161C54.0158 4.48161 54.4472 4.91308 54.4472 5.48853V11.5301H56.4611V7.50241C56.4611 6.92695 56.8926 6.4955 57.4681 6.4955C58.0435 6.4955 58.475 6.92697 58.475 7.50241V16.4212L55.5259 26.4182Z" fill="url(#paint0_linear_56_290)"/>
<defs>
<linearGradient id="paint0_linear_56_290" x1="28.5986" y1="-29.0652" x2="101.893" y2="3.28943" gradientUnits="userSpaceOnUse">
<stop stop-color="#B315E8"/>
<stop offset="0.501961" stop-color="#8AE0E6"/>
<stop offset="1" stop-color="#7FE3AF"/>
</linearGradient>
</defs>
</svg>
