<svg width="38" height="29" viewBox="0 0 38 29" fill="none" xmlns="http://www.w3.org/2000/svg">
<path d="M32.1528 2.41008C29.7461 1.28662 27.1403 0.47121 24.4259 8.33499e-05C24.4021 -0.000678794 24.3784 0.00379343 24.3566 0.0131857C24.3347 0.0225779 24.3151 0.0366621 24.2992 0.0544445C23.9735 0.652413 23.5935 1.43158 23.3402 2.02955C20.4611 1.59467 17.5333 1.59467 14.6542 2.02955C14.4009 1.41346 14.0209 0.652413 13.6771 0.0544445C13.659 0.018204 13.6047 8.33499e-05 13.5504 8.33499e-05C10.836 0.47121 8.24833 1.28662 5.8235 2.41008C5.80541 2.41008 5.78731 2.4282 5.76922 2.44632C0.847178 9.82126 -0.510003 16.9969 0.159539 24.1C0.159539 24.1363 0.177635 24.1725 0.213827 24.1906C3.47106 26.5825 6.60162 28.0321 9.69599 28.9925C9.75028 29.0106 9.80457 28.9925 9.82266 28.9563C10.5465 27.9596 11.1979 26.9087 11.7589 25.8033C11.7951 25.7308 11.7589 25.6584 11.6865 25.6402C10.6551 25.2416 9.6779 24.7705 8.71882 24.2269C8.64644 24.1906 8.64644 24.0819 8.70073 24.0275C8.89978 23.8826 9.09883 23.7195 9.29788 23.5745C9.33408 23.5383 9.38836 23.5383 9.42456 23.5564C15.6495 26.4013 22.363 26.4013 28.5156 23.5564C28.5517 23.5383 28.606 23.5383 28.6422 23.5745C28.8413 23.7376 29.0403 23.8826 29.2394 24.0457C29.3118 24.1 29.3118 24.2087 29.2213 24.245C28.2803 24.8067 27.285 25.2597 26.2536 25.6584C26.1812 25.6765 26.1631 25.7671 26.1812 25.8214C26.7603 26.9268 27.4117 27.9778 28.1175 28.9744C28.1717 28.9925 28.226 29.0106 28.2803 28.9925C31.3928 28.0321 34.5233 26.5825 37.7806 24.1906C37.8168 24.1725 37.8349 24.1363 37.8349 24.1C38.6311 15.8915 36.5139 8.77029 32.2252 2.44632C32.2071 2.4282 32.189 2.41008 32.1528 2.41008ZM12.6999 19.7693C10.836 19.7693 9.27979 18.0479 9.27979 15.9278C9.27979 13.8077 10.7998 12.0863 12.6999 12.0863C14.618 12.0863 16.1381 13.8258 16.12 15.9278C16.12 18.0479 14.5999 19.7693 12.6999 19.7693ZM25.3126 19.7693C23.4487 19.7693 21.8925 18.0479 21.8925 15.9278C21.8925 13.8077 23.4126 12.0863 25.3126 12.0863C27.2308 12.0863 28.7508 13.8258 28.7327 15.9278C28.7327 18.0479 27.2308 19.7693 25.3126 19.7693Z" fill="#462A50"/>
</svg>
