<svg width="226" height="52" viewBox="0 0 226 52" fill="none" xmlns="http://www.w3.org/2000/svg">
<g clip-path="url(#clip0_57_449)">
<path d="M8.5351 51.9998L19.1607 25.1551C20.1712 22.6365 21.2736 20.3944 22.131 18.6129C22.7434 19.8415 23.907 22.2372 25.0094 25.0937L31.3174 41.3725C33.6753 39.9289 35.4819 38.3318 36.9211 36.6732C33.7978 29.0559 30.215 20.5479 27.8572 15.6643C26.5405 12.9307 25.9281 11.6714 22.376 11.6714C19.6813 11.6714 18.089 12.7157 16.711 15.7257C11.2298 27.9809 5.47295 41.7411 1.64528 51.9998H8.50447H8.5351ZM33.7671 47.6383L35.4513 51.9998H42.9842C42.4636 50.5255 41.1775 47.2083 39.524 43.0618C38.0235 44.5668 36.125 46.164 33.7671 47.669V47.6383Z" fill="white"/>
<path fill-rule="evenodd" clip-rule="evenodd" d="M32.665 21.9611C53.855 21.0397 47.4551 47.2701 10.6176 51.8158L13.0673 45.3657C39.4936 41.5571 45.8935 26.6912 34.3186 26.0462C33.7674 24.664 33.2162 23.3126 32.6344 21.9611H32.665ZM8.07602 31.2063C-3.89695 33.4791 -5.24429 18.2139 23.1111 3.90088L23.6011 4.91446C16.2826 8.07808 -5.48926 27.8276 10.4339 25.6776C9.63771 27.5205 8.84156 29.3941 8.07602 31.237V31.2063ZM22.7131 24.2033L21.3351 24.6026C21.182 25.0019 20.9983 25.4012 20.8451 25.8312L19.4978 29.2405L24.2441 28.2269L23.3561 25.7698C23.1418 25.2476 22.958 24.7255 22.7437 24.234L22.7131 24.2033Z" fill="url(#paint0_linear_57_449)"/>
<path fill-rule="evenodd" clip-rule="evenodd" d="M30.8887 0.0922741C30.2763 1.68944 28.9289 3.2866 27.061 4.45376C27.0304 5.28306 26.6936 6.11236 26.1118 6.72665C25.8668 5.65164 25.4381 4.60734 24.8563 3.59375C24.2745 2.58017 23.5702 1.72015 22.774 0.952286C23.6008 0.737283 24.4582 0.860142 25.2238 1.25943C27.1529 0.215133 29.2045 -0.153444 30.8887 0.0922741Z" fill="white"/>
<path d="M52.1094 49.6965C52.1094 49.6965 52.5993 48.7751 53.5792 46.9322C53.8548 47.0551 54.161 47.2086 54.4978 47.3622C54.8653 47.5158 55.2327 47.6694 55.6308 47.7922C56.0289 47.9151 56.4576 48.0379 56.8863 48.1301C57.315 48.2222 57.7437 48.2529 58.1418 48.2529C58.6317 48.2529 59.0604 48.2222 59.3973 48.1301C59.7341 48.0379 60.0403 47.9151 60.2547 47.7615C60.469 47.6079 60.6527 47.4236 60.7446 47.2086C60.8365 46.9936 60.8977 46.7479 60.8977 46.5022C60.8977 46.2872 60.8365 46.1029 60.6834 45.9186C60.5609 45.7651 60.3465 45.6115 60.1015 45.4886C59.8566 45.3658 59.5504 45.2429 59.1829 45.12C58.8154 44.9972 58.4174 44.8743 57.958 44.7515C57.7437 44.69 57.4681 44.6286 57.1925 44.5365C56.9169 44.4443 56.6107 44.3522 56.3351 44.2293C56.0289 44.1065 55.7533 43.9529 55.4777 43.7993C55.2021 43.6457 54.9572 43.4307 54.7428 43.2157C54.5285 43.0007 54.3447 42.755 54.2222 42.4479C54.0998 42.1714 54.0385 41.8336 54.0385 41.465C54.0385 40.7893 54.161 40.1443 54.406 39.5607C54.6509 38.9771 55.049 38.455 55.5696 38.0249C56.0901 37.5949 56.7638 37.2571 57.56 37.0114C58.3867 36.7656 59.336 36.6428 60.469 36.6428C60.9589 36.6428 61.4489 36.6735 61.9082 36.7656C62.3675 36.8271 62.7962 36.9499 63.1943 37.0728C63.5924 37.1956 63.9905 37.3185 64.3579 37.4721C64.7254 37.6257 65.0622 37.7792 65.399 37.9328L64.0823 40.5743C63.9292 40.4821 63.6536 40.3593 63.3168 40.2364C62.98 40.1135 62.6125 39.9907 62.2144 39.8678C61.8163 39.745 61.3876 39.6528 60.9589 39.5607C60.5302 39.4685 60.1322 39.4378 59.7341 39.4378C59.2748 39.4378 58.8767 39.4685 58.5705 39.5607C58.2643 39.6528 58.0193 39.7757 57.8356 39.8985C57.6518 40.0521 57.5293 40.2057 57.4375 40.39C57.3456 40.5743 57.315 40.7586 57.315 40.9121C57.315 41.1271 57.3762 41.3114 57.5293 41.465C57.6518 41.6186 57.8662 41.7414 58.0805 41.8643C58.3255 41.9871 58.6011 42.0793 58.9073 42.1714C59.2441 42.2636 59.581 42.325 59.9484 42.4171C60.5609 42.5707 61.1121 42.7243 61.6326 42.9086C62.1532 43.0929 62.6125 43.3386 62.98 43.615C63.3474 43.8915 63.6536 44.2293 63.868 44.6286C64.0823 45.0279 64.2048 45.5193 64.2048 46.1029C64.2048 46.9322 64.0211 47.6386 63.6843 48.2529C63.3474 48.8672 62.8575 49.3894 62.245 49.8194C61.6326 50.2494 60.9283 50.5565 60.1015 50.7716C59.2748 50.9866 58.4174 51.1094 57.4681 51.1094C56.8557 51.1094 56.2739 51.0787 55.7227 50.9866C55.2021 50.8944 54.6816 50.8023 54.2529 50.6487C53.7935 50.5258 53.3955 50.3723 53.0586 50.2187C52.6912 50.0651 52.385 49.9115 52.1094 49.758V49.6965ZM73.5137 47.5772L75.0448 49.543C74.4324 50.0344 73.7587 50.403 73.0238 50.6794C72.2889 50.9251 71.554 51.048 70.7578 51.048C69.9923 51.048 69.3186 50.9251 68.7062 50.6487C68.0937 50.403 67.5732 50.0651 67.1751 49.6351C66.7464 49.2051 66.4402 48.7137 66.1952 48.1301C65.9502 47.5465 65.8584 46.9322 65.8584 46.2872C65.8584 45.4272 66.0421 44.6286 66.4096 43.8607C66.777 43.0929 67.267 42.4171 67.8794 41.8336C68.4918 41.25 69.2267 40.7893 70.0535 40.4207C70.8803 40.0828 71.7683 39.8985 72.7176 39.8985C73.4831 39.8985 74.1874 40.0214 74.8304 40.2671C75.4735 40.5128 75.9941 40.8814 76.4534 41.3728L74.2486 43.3386C74.0649 43.0929 73.7893 42.9086 73.4525 42.7857C73.1156 42.6629 72.7176 42.6014 72.2889 42.6014C71.8602 42.6014 71.4621 42.6936 71.064 42.8472C70.6659 43.0007 70.3291 43.2464 70.0229 43.5229C69.7167 43.83 69.4717 44.1679 69.288 44.5979C69.1042 45.0279 69.0124 45.4886 69.0124 46.0108C69.0124 46.3793 69.0736 46.7172 69.1961 46.9936C69.3186 47.3008 69.4717 47.5465 69.6554 47.7308C69.8698 47.9458 70.0841 48.0994 70.3597 48.1915C70.6353 48.2837 70.9415 48.3451 71.2477 48.3451C71.7071 48.3451 72.1358 48.2837 72.5032 48.1608C72.8707 48.0379 73.2075 47.8229 73.5137 47.5772ZM88.3345 45.0893C88.3345 45.0893 87.9976 46.9629 87.3546 50.7101H84.2312L85.2111 45.1508C85.303 44.6593 85.3336 44.2293 85.2723 43.8915C85.2417 43.5536 85.1192 43.3079 84.9661 43.1236C84.813 42.9393 84.5987 42.7857 84.3231 42.7243C84.0475 42.6629 83.7719 42.6014 83.4044 42.6014C83.0676 42.6014 82.7308 42.6629 82.4246 42.7857C82.1183 42.9086 81.8427 43.0929 81.5978 43.3386C81.3528 43.5843 81.1385 43.83 80.9547 44.1679C80.771 44.475 80.6485 44.8436 80.5873 45.2122L79.6074 50.7408H76.484L78.995 36.5199H82.0571L81.2609 40.9428C81.6896 40.6664 82.2102 40.4207 82.7308 40.2364C83.2819 40.0521 83.8331 39.9293 84.4149 39.9293C85.2417 39.9293 85.946 40.0521 86.4972 40.2978C87.0484 40.5436 87.4771 40.8814 87.7833 41.3114C88.0895 41.7414 88.2732 42.2943 88.3345 42.9393C88.3957 43.5843 88.3651 44.2907 88.212 45.12L88.3345 45.0893ZM89.988 46.3179C89.988 45.4579 90.1718 44.6593 90.5086 43.8915C90.8761 43.1236 91.3354 42.4479 91.9784 41.8643C92.5909 41.2807 93.3258 40.82 94.1525 40.4514C94.9793 40.1135 95.8673 39.9293 96.8166 39.9293C97.5821 39.9293 98.2864 40.0521 98.8989 40.2978C99.5113 40.5436 100.032 40.8814 100.461 41.3114C100.889 41.7414 101.226 42.2329 101.44 42.8164C101.685 43.4 101.777 44.0143 101.777 44.6593C101.777 45.5193 101.594 46.3486 101.257 47.1165C100.889 47.8844 100.43 48.5601 99.7869 49.1437C99.1745 49.7273 98.4395 50.188 97.6128 50.5258C96.786 50.8637 95.8673 51.048 94.9181 51.048C94.1525 51.048 93.4789 50.9251 92.8665 50.6794C92.254 50.4337 91.7335 50.0958 91.3048 49.6658C90.8761 49.2358 90.5392 48.7444 90.3249 48.1608C90.0799 47.5772 89.988 46.9629 89.988 46.3179ZM93.1114 45.9801C93.1114 46.3486 93.1727 46.6558 93.2645 46.9629C93.387 47.2701 93.5401 47.5158 93.7239 47.7308C93.9382 47.9458 94.1525 48.0994 94.4281 48.2222C94.7037 48.3451 95.0099 48.4065 95.3468 48.4065C95.7755 48.4065 96.2042 48.3144 96.6023 48.1608C97.0003 48.0072 97.3372 47.7615 97.6434 47.4544C97.9496 47.1472 98.1946 46.8094 98.3783 46.3793C98.562 45.9801 98.6539 45.5193 98.6539 44.9972C98.6539 44.6286 98.5927 44.3215 98.5008 44.0143C98.3783 43.7072 98.2252 43.4614 98.0415 43.2772C97.8577 43.0622 97.6128 42.9086 97.3372 42.7857C97.0616 42.6629 96.7554 42.6322 96.4185 42.6322C95.9898 42.6322 95.5918 42.7243 95.1937 42.8779C94.7956 43.0314 94.4588 43.2772 94.1525 43.5843C93.8463 43.8915 93.6014 44.2293 93.4176 44.6593C93.2339 45.0586 93.142 45.5193 93.142 46.0415L93.1114 45.9801ZM103.094 46.3179C103.094 45.4579 103.278 44.6593 103.615 43.8915C103.982 43.1236 104.441 42.4479 105.084 41.8643C105.697 41.2807 106.432 40.82 107.259 40.4514C108.085 40.1135 108.973 39.9293 109.923 39.9293C110.688 39.9293 111.392 40.0521 112.005 40.2978C112.617 40.5436 113.138 40.8814 113.567 41.3114C113.995 41.7414 114.332 42.2329 114.546 42.8164C114.791 43.4 114.883 44.0143 114.883 44.6593C114.883 45.5193 114.7 46.3486 114.363 47.1165C113.995 47.8844 113.536 48.5601 112.893 49.1437C112.28 49.7273 111.546 50.188 110.719 50.5258C109.892 50.8637 108.973 51.048 108.024 51.048C107.259 51.048 106.585 50.9251 105.972 50.6794C105.36 50.4337 104.839 50.0958 104.411 49.6658C103.982 49.2358 103.645 48.7444 103.431 48.1608C103.186 47.5772 103.094 46.9629 103.094 46.3179ZM106.217 45.9801C106.217 46.3486 106.279 46.6558 106.37 46.9629C106.493 47.2701 106.646 47.5158 106.83 47.7308C107.044 47.9458 107.259 48.0994 107.534 48.2222C107.81 48.3451 108.116 48.4065 108.453 48.4065C108.881 48.4065 109.31 48.3144 109.708 48.1608C110.106 48.0072 110.443 47.7615 110.749 47.4544C111.056 47.1472 111.301 46.8094 111.484 46.3793C111.668 45.9801 111.76 45.5193 111.76 44.9972C111.76 44.6286 111.699 44.3215 111.607 44.0143C111.484 43.7072 111.331 43.4614 111.147 43.2772C110.964 43.0622 110.719 42.9086 110.443 42.7857C110.168 42.6629 109.861 42.6322 109.524 42.6322C109.096 42.6322 108.698 42.7243 108.3 42.8779C107.902 43.0314 107.565 43.2772 107.259 43.5843C106.952 43.8915 106.707 44.2293 106.524 44.6593C106.34 45.0586 106.248 45.5193 106.248 46.0415L106.217 45.9801ZM118.527 36.4892H121.62L119.783 46.9015C119.752 47.1472 119.721 47.3315 119.721 47.4851C119.721 47.6386 119.752 47.7615 119.813 47.8229C119.875 47.9151 119.936 47.9765 120.058 48.0072C120.181 48.0379 120.303 48.0379 120.487 48.0379H121.008L120.548 50.6794H119.905C119.109 50.6794 118.497 50.618 118.007 50.4951C117.517 50.3723 117.18 50.1573 116.935 49.8808C116.69 49.5737 116.567 49.2051 116.537 48.7137C116.506 48.2222 116.567 47.6386 116.69 46.9015L118.527 36.4585V36.4892Z" fill="url(#paint1_linear_57_449)"/>
<path d="M65.8584 21.7768L65.4297 22.7904L62.49 26.8754H65.9196V21.7768H65.8277H65.8584ZM69.2267 31.544H65.9196V29.3019H60.7446L59.1523 31.544H55.2021L65.6746 16.9238H69.1961V31.544H69.2267ZM80.526 27.674H79.6686L75.9941 22.4832V31.544H72.5951V16.9546H75.5654L80.0973 23.1589L84.6599 16.9546H87.6302V31.544H84.2618V22.5139L80.526 27.674ZM94.3669 25.3704V28.749H97.7352C97.919 28.749 98.1027 28.7183 98.3171 28.6569C98.5314 28.5954 98.7151 28.4726 98.8682 28.3497C99.052 28.1961 99.1745 28.0426 99.2969 27.8276C99.4194 27.6126 99.4807 27.3668 99.4807 27.0597C99.4807 26.814 99.4194 26.5683 99.3276 26.3533C99.2357 26.1383 99.1132 25.9847 98.9601 25.8311C98.807 25.6775 98.6233 25.5854 98.4089 25.4932C98.1946 25.4011 97.9802 25.3704 97.7352 25.3704H94.3669ZM97.2759 19.7496C97.2759 19.7496 96.296 19.7496 94.3669 19.7496V22.7904H97.2453C97.429 22.7904 97.5821 22.7596 97.7659 22.6982C97.9496 22.6368 98.1027 22.5139 98.2252 22.3911C98.3477 22.2682 98.4702 22.1146 98.562 21.8996C98.6539 21.7153 98.6845 21.5003 98.6845 21.2853C98.6845 21.0703 98.6539 20.8553 98.562 20.671C98.4702 20.4868 98.3783 20.3332 98.2252 20.1796C98.1027 20.0567 97.9496 19.9339 97.7659 19.8725C97.5821 19.7803 97.429 19.7496 97.2453 19.7496H97.2759ZM98.0721 31.544H90.9985V16.9546H97.4597C98.1639 16.9546 98.807 17.0467 99.3888 17.231C99.9706 17.4153 100.461 17.6917 100.859 18.0296C101.257 18.3674 101.594 18.7974 101.808 19.3196C102.022 19.811 102.145 20.3946 102.145 21.0396C102.145 21.3468 102.083 21.6232 101.992 21.9303C101.9 22.2375 101.777 22.4832 101.594 22.7289C101.44 22.9746 101.257 23.1896 101.042 23.3739C100.828 23.5582 100.614 23.7118 100.369 23.8039C100.706 23.9268 101.042 24.0804 101.349 24.3261C101.655 24.5411 101.93 24.7868 102.175 25.094C102.42 25.4011 102.604 25.7083 102.727 26.0768C102.88 26.4454 102.941 26.814 102.941 27.2133C102.941 27.9811 102.788 28.6569 102.512 29.2097C102.237 29.7626 101.869 30.2233 101.41 30.5612C100.95 30.899 100.43 31.1755 99.8481 31.329C99.2663 31.4826 98.6539 31.5748 98.0721 31.5748V31.544ZM111.852 21.4389L111.729 21.8996L109.953 26.3225H113.72L111.944 21.8996L111.852 21.4389H111.821H111.852ZM119.415 31.544H115.832L114.914 29.2097H108.82L107.902 31.544H104.319L110.29 16.9238H113.475L119.446 31.544H119.415ZM120.426 26.9983C120.426 26.9983 121.559 26.9983 123.794 26.9983C123.794 27.6126 124.039 28.0733 124.529 28.4419C125.019 28.8104 125.723 28.9947 126.611 28.9947C127.101 28.9947 127.53 28.964 127.867 28.8719C128.204 28.8104 128.479 28.6876 128.693 28.5647C128.908 28.4111 129.061 28.2576 129.153 28.0733C129.245 27.8583 129.306 27.6433 129.306 27.3976C129.306 27.0597 129.214 26.7526 129.061 26.5375C128.908 26.3225 128.663 26.1383 128.357 25.9847C128.05 25.8311 127.683 25.7083 127.254 25.5854C126.826 25.4625 126.305 25.3397 125.754 25.1861C125.478 25.1247 125.172 25.0325 124.835 24.9404C124.498 24.8482 124.131 24.7561 123.794 24.6332C123.427 24.5104 123.09 24.3568 122.753 24.1725C122.416 23.9882 122.11 23.7732 121.834 23.4968C121.559 23.2204 121.344 22.9132 121.191 22.5446C121.038 22.1761 120.946 21.7461 120.946 21.2853C120.946 20.5482 121.069 19.9032 121.314 19.3196C121.559 18.736 121.896 18.2446 122.385 17.8453C122.875 17.446 123.488 17.1388 124.253 16.9238C125.019 16.7088 125.907 16.6167 126.948 16.6167C127.805 16.6167 128.571 16.7396 129.214 16.9546C129.888 17.1696 130.439 17.4767 130.898 17.876C131.358 18.2753 131.694 18.7667 131.939 19.3196C132.184 19.8725 132.307 20.5175 132.307 21.2239H128.908C128.908 21.0089 128.877 20.7939 128.785 20.5789C128.693 20.3639 128.571 20.2103 128.418 20.0567C128.234 19.9032 128.02 19.7803 127.714 19.6882C127.438 19.596 127.071 19.5346 126.672 19.5346C126.213 19.5346 125.846 19.5653 125.539 19.6575C125.233 19.7496 125.019 19.8417 124.835 19.9646C124.651 20.0875 124.529 20.241 124.468 20.4253C124.406 20.5789 124.376 20.7632 124.376 20.9475C124.376 21.1932 124.468 21.4082 124.621 21.5925C124.774 21.7768 124.988 21.9303 125.264 22.0532C125.539 22.1761 125.876 22.2989 126.244 22.3911C126.611 22.4832 127.04 22.5754 127.469 22.6368C128.234 22.8211 128.938 23.0054 129.582 23.2511C130.225 23.4661 130.776 23.7732 131.266 24.1111C131.756 24.449 132.123 24.9097 132.368 25.4318C132.644 25.954 132.766 26.599 132.766 27.3668C132.766 28.104 132.613 28.749 132.307 29.3019C132.001 29.8547 131.572 30.3462 131.021 30.7148C130.47 31.0833 129.826 31.3905 129.061 31.5748C128.295 31.7591 127.469 31.8819 126.581 31.8819C125.478 31.8819 124.529 31.7283 123.733 31.4519C122.967 31.1755 122.324 30.7762 121.834 30.3155C121.344 29.8547 120.977 29.3326 120.763 28.749C120.548 28.1654 120.426 27.5819 120.426 26.9983ZM134.818 26.9983C134.818 26.9983 135.951 26.9983 138.186 26.9983C138.186 27.6126 138.431 28.0733 138.921 28.4419C139.411 28.8104 140.115 28.9947 141.003 28.9947C141.493 28.9947 141.922 28.964 142.259 28.8719C142.596 28.8104 142.871 28.6876 143.086 28.5647C143.3 28.4111 143.453 28.2576 143.545 28.0733C143.637 27.8583 143.698 27.6433 143.698 27.3976C143.698 27.0597 143.606 26.7526 143.453 26.5375C143.3 26.3225 143.055 26.1383 142.749 25.9847C142.442 25.8311 142.075 25.7083 141.646 25.5854C141.218 25.4625 140.697 25.3397 140.146 25.1861C139.87 25.1247 139.564 25.0325 139.227 24.9404C138.89 24.8482 138.523 24.7561 138.186 24.6332C137.819 24.5104 137.482 24.3568 137.145 24.1725C136.808 23.9882 136.502 23.7732 136.226 23.4968C135.951 23.2204 135.736 22.9132 135.583 22.5446C135.43 22.1761 135.338 21.7461 135.338 21.2853C135.338 20.5482 135.461 19.9032 135.706 19.3196C135.951 18.736 136.288 18.2446 136.778 17.8453C137.267 17.446 137.88 17.1388 138.645 16.9238C139.411 16.7088 140.299 16.6167 141.34 16.6167C142.198 16.6167 142.963 16.7396 143.606 16.9546C144.28 17.1696 144.831 17.4767 145.29 17.876C145.75 18.2753 146.086 18.7667 146.331 19.3196C146.576 19.8725 146.699 20.5175 146.699 21.2239H143.3C143.3 21.0089 143.269 20.7939 143.177 20.5789C143.086 20.3639 142.963 20.2103 142.81 20.0567C142.626 19.9032 142.412 19.7803 142.106 19.6882C141.83 19.596 141.463 19.5346 141.065 19.5346C140.605 19.5346 140.238 19.5653 139.932 19.6575C139.625 19.7496 139.411 19.8417 139.227 19.9646C139.044 20.0875 138.921 20.241 138.86 20.4253C138.799 20.5789 138.768 20.7632 138.768 20.9475C138.768 21.1932 138.86 21.4082 139.013 21.5925C139.166 21.7768 139.38 21.9303 139.656 22.0532C139.932 22.1761 140.268 22.2989 140.636 22.3911C141.003 22.4832 141.432 22.5754 141.861 22.6368C142.626 22.8211 143.331 23.0054 143.974 23.2511C144.617 23.4661 145.168 23.7732 145.658 24.1111C146.148 24.449 146.515 24.9097 146.76 25.4318C147.036 25.954 147.158 26.599 147.158 27.3668C147.158 28.104 147.005 28.749 146.699 29.3019C146.393 29.8547 145.964 30.3462 145.413 30.7148C144.862 31.0833 144.219 31.3905 143.453 31.5748C142.687 31.7591 141.861 31.8819 140.973 31.8819C139.87 31.8819 138.921 31.7283 138.125 31.4519C137.359 31.1755 136.716 30.7762 136.226 30.3155C135.736 29.8547 135.369 29.3326 135.155 28.749C134.94 28.1654 134.818 27.5819 134.818 26.9983ZM156.192 21.4389L156.069 21.8996L154.293 26.3225H158.059L156.283 21.8996L156.192 21.4389H156.161H156.192ZM163.755 31.544H160.172L159.254 29.2097H153.16L152.241 31.544H148.659L154.63 16.9238H157.814L163.786 31.544H163.755ZM169.267 28.6262H171.717C173.156 28.6262 174.258 28.2576 175.024 27.5204C175.789 26.7833 176.157 25.7083 176.157 24.2954C176.157 23.6197 176.065 23.0054 175.881 22.4832C175.697 21.9303 175.422 21.4696 175.054 21.101C174.687 20.7325 174.228 20.4253 173.676 20.2103C173.125 19.9953 172.482 19.9032 171.717 19.9032H169.267V28.6569V28.6262ZM165.868 31.544V16.9546H171.778C172.88 16.9546 173.921 17.1081 174.871 17.4153C175.82 17.7224 176.647 18.1831 177.351 18.7974C178.055 19.4117 178.606 20.1796 178.974 21.0703C179.372 21.9611 179.556 23.0361 179.556 24.2032C179.556 25.2782 179.403 26.2918 179.035 27.1826C178.698 28.0733 178.208 28.8412 177.535 29.4862C176.861 30.1312 176.065 30.6226 175.085 30.9912C174.136 31.3598 173.033 31.5133 171.778 31.5133H165.837L165.868 31.544ZM181.515 24.2339C181.515 23.1589 181.73 22.1761 182.158 21.2546C182.587 20.3332 183.138 19.5039 183.873 18.8282C184.578 18.1217 185.435 17.5996 186.384 17.2003C187.364 16.801 188.375 16.6167 189.477 16.6167C190.579 16.6167 191.62 16.801 192.57 17.2003C193.55 17.5996 194.376 18.1524 195.111 18.8282C195.816 19.5039 196.397 20.3332 196.826 21.2546C197.255 22.1761 197.469 23.1896 197.469 24.2339C197.469 25.2782 197.255 26.2918 196.826 27.2133C196.397 28.1347 195.846 28.964 195.111 29.6397C194.407 30.3155 193.55 30.8683 192.57 31.2676C191.62 31.6669 190.579 31.8819 189.477 31.8819C188.375 31.8819 187.333 31.6669 186.384 31.2676C185.404 30.8683 184.578 30.3155 183.873 29.6397C183.169 28.9333 182.587 28.1347 182.158 27.2133C181.73 26.2918 181.515 25.2782 181.515 24.2339ZM184.884 24.2339C184.884 24.9097 185.006 25.524 185.251 26.1075C185.496 26.6911 185.802 27.1826 186.231 27.6126C186.66 28.0426 187.119 28.3497 187.701 28.5954C188.252 28.8412 188.834 28.964 189.477 28.964C190.12 28.964 190.732 28.8412 191.284 28.5954C191.835 28.3497 192.325 28.0119 192.723 27.6126C193.121 27.1826 193.458 26.6911 193.703 26.1075C193.948 25.524 194.07 24.9097 194.07 24.2339C194.07 23.5582 193.948 22.9439 193.703 22.3603C193.458 21.7768 193.152 21.2853 192.723 20.8553C192.325 20.4253 191.835 20.0875 191.284 19.8725C190.732 19.6267 190.12 19.5039 189.477 19.5039C188.834 19.5039 188.252 19.6267 187.701 19.8725C187.15 20.1182 186.66 20.456 186.231 20.8553C185.833 21.2853 185.496 21.7768 185.251 22.3603C185.006 22.9439 184.884 23.5582 184.884 24.2339ZM203.41 23.8654H206.258C206.533 23.8654 206.809 23.8039 207.054 23.7118C207.299 23.6197 207.513 23.4661 207.697 23.3125C207.88 23.1282 208.034 22.9439 208.125 22.6982C208.217 22.4525 208.279 22.1761 208.279 21.8689C208.279 21.5618 208.217 21.316 208.125 21.0703C208.034 20.8246 207.88 20.6096 207.697 20.4253C207.513 20.241 207.299 20.1182 207.054 19.9953C206.809 19.9032 206.564 19.8417 206.258 19.8417H203.41V23.8347V23.8654ZM212.014 31.544H208.125L205.584 26.7833H203.44V31.544H200.041V16.9546H206.411C207.176 16.9546 207.88 17.0774 208.523 17.3231C209.167 17.5689 209.718 17.9067 210.177 18.3367C210.636 18.7667 211.004 19.2889 211.249 19.9032C211.524 20.5175 211.647 21.1932 211.647 21.8996C211.647 22.4218 211.586 22.9132 211.463 23.3432C211.341 23.8039 211.157 24.2032 210.912 24.5718C210.667 24.9404 210.391 25.2782 210.055 25.5547C209.718 25.8311 209.35 26.0768 208.922 26.2611L211.984 31.5133L212.014 31.544ZM213.607 26.9983C213.607 26.9983 214.74 26.9983 216.975 26.9983C216.975 27.6126 217.22 28.0733 217.71 28.4419C218.2 28.8104 218.904 28.9947 219.792 28.9947C220.282 28.9947 220.711 28.964 221.048 28.8719C221.384 28.8104 221.66 28.6876 221.874 28.5647C222.089 28.4111 222.242 28.2576 222.334 28.0733C222.426 27.8583 222.487 27.6433 222.487 27.3976C222.487 27.0597 222.395 26.7526 222.242 26.5375C222.089 26.3225 221.844 26.1383 221.538 25.9847C221.231 25.8311 220.864 25.7083 220.435 25.5854C220.007 25.4625 219.486 25.3397 218.935 25.1861C218.659 25.1247 218.353 25.0325 218.016 24.9404C217.679 24.8482 217.312 24.7561 216.975 24.6332C216.608 24.5104 216.271 24.3568 215.934 24.1725C215.597 23.9882 215.291 23.7732 215.015 23.4968C214.74 23.2204 214.525 22.9132 214.372 22.5446C214.219 22.1761 214.127 21.7461 214.127 21.2853C214.127 20.5482 214.25 19.9032 214.495 19.3196C214.74 18.736 215.076 18.2446 215.566 17.8453C216.056 17.446 216.669 17.1388 217.434 16.9238C218.2 16.7088 219.088 16.6167 220.129 16.6167C220.986 16.6167 221.752 16.7396 222.395 16.9546C223.069 17.1696 223.62 17.4767 224.079 17.876C224.538 18.2753 224.875 18.7667 225.12 19.3196C225.365 19.8725 225.488 20.5175 225.488 21.2239H222.089C222.089 21.0089 222.058 20.7939 221.966 20.5789C221.874 20.3639 221.752 20.2103 221.599 20.0567C221.415 19.9032 221.201 19.7803 220.895 19.6882C220.619 19.596 220.251 19.5346 219.853 19.5346C219.394 19.5346 219.027 19.5653 218.72 19.6575C218.414 19.7496 218.2 19.8417 218.016 19.9646C217.832 20.0875 217.71 20.241 217.649 20.4253C217.587 20.5789 217.557 20.7632 217.557 20.9475C217.557 21.1932 217.649 21.4082 217.802 21.5925C217.955 21.7768 218.169 21.9303 218.445 22.0532C218.72 22.1761 219.057 22.2989 219.425 22.3911C219.792 22.4832 220.221 22.5754 220.65 22.6368C221.415 22.8211 222.119 23.0054 222.762 23.2511C223.405 23.4661 223.957 23.7732 224.447 24.1111C224.937 24.449 225.304 24.9097 225.549 25.4318C225.825 25.954 225.947 26.599 225.947 27.3668C225.947 28.104 225.794 28.749 225.488 29.3019C225.182 29.8547 224.753 30.3462 224.202 30.7148C223.65 31.0833 223.007 31.3905 222.242 31.5748C221.476 31.7591 220.65 31.8819 219.762 31.8819C218.659 31.8819 217.71 31.7283 216.914 31.4519C216.148 31.1755 215.505 30.7762 215.015 30.3155C214.525 29.8547 214.158 29.3326 213.943 28.749C213.729 28.1654 213.607 27.5819 213.607 26.9983Z" fill="white"/>
</g>
<defs>
<linearGradient id="paint0_linear_57_449" x1="26.2039" y1="8.87666" x2="41.7216" y2="54.6744" gradientUnits="userSpaceOnUse">
<stop stop-color="#B315E8"/>
<stop offset="0.329412" stop-color="#318BEF"/>
<stop offset="0.690196" stop-color="#99FFFF"/>
<stop offset="1" stop-color="#7AE6BD"/>
</linearGradient>
<linearGradient id="paint1_linear_57_449" x1="82.8533" y1="29.7627" x2="100.363" y2="66.3947" gradientUnits="userSpaceOnUse">
<stop stop-color="#B315E8"/>
<stop offset="0.501961" stop-color="#8AE0E6"/>
<stop offset="1" stop-color="#7FE3AF"/>
</linearGradient>
<clipPath id="clip0_57_449">
<rect width="226" height="52" fill="white"/>
</clipPath>
</defs>
</svg>
