<svg width="40" height="32" viewBox="0 0 40 32" fill="none" xmlns="http://www.w3.org/2000/svg">
<path d="M36.8073 3.76039L40 0.675613V0H28.9427L21.0625 19.818L12.099 0H0.505208V0.675613L4.23438 5.21113C4.59896 5.54632 4.78646 6.03863 4.73958 6.53093V24.3535C4.85417 24.9977 4.65104 25.6524 4.20312 26.1185L0 31.2668V31.9319H11.9062V31.2563L7.70833 26.1237C7.48341 25.8941 7.31423 25.6154 7.21395 25.3092C7.11368 25.0031 7.08502 24.6778 7.13021 24.3588V8.9401L17.5833 31.9424H18.7969L27.7865 8.9401V27.2655C27.7865 27.7473 27.7865 27.8468 27.474 28.1663L24.2396 31.3244V32H39.9271V31.3244L36.8073 28.2396C36.5365 28.0301 36.3958 27.6792 36.4531 27.3388V4.66121C36.4262 4.49291 36.4448 4.32041 36.5071 4.16188C36.5695 4.00335 36.6732 3.86465 36.8073 3.76039Z" fill="#462A50"/>
</svg>
