<svg width="21" height="21" viewBox="0 0 21 21" fill="none" xmlns="http://www.w3.org/2000/svg">
<path d="M18.6648 10.5H20.9982C20.9982 7.71523 19.8919 5.04451 17.9228 3.07538C15.9537 1.10625 13.283 0 10.4982 0V2.33333C15.0132 2.33333 18.6648 5.985 18.6648 10.5ZM13.9982 10.5H16.3315C16.3315 7.28 13.7182 4.66667 10.4982 4.66667V7C12.4348 7 13.9982 8.56333 13.9982 10.5ZM11.9098 16.765C8.5979 15.0806 5.90592 12.3886 4.22151 9.07667L7.17318 6.125L6.46151 0H0.0331773C-0.643489 11.8767 9.12151 21.6417 20.9982 20.965V14.5367L14.8498 13.825L11.9098 16.765Z" fill="white"/>
</svg>
