<svg width="38" height="37" viewBox="0 0 38 37" fill="none" xmlns="http://www.w3.org/2000/svg">
<path d="M34.4191 0.276828C34.4191 0.276828 37.8994 -1.08036 37.6082 2.21541C37.5124 3.5726 36.6425 8.3232 35.9653 13.4608L33.6451 28.681C33.6451 28.681 33.4516 30.9107 31.711 31.2986C29.9713 31.6856 27.3608 29.9415 26.8771 29.5536C26.4901 29.2624 19.6262 24.8997 17.2092 22.7676C16.532 22.1853 15.758 21.0225 17.306 19.6653L27.4567 9.97064C28.6168 8.80785 29.7769 6.09347 24.943 9.38925L11.4069 18.5984C11.4069 18.5984 9.85981 19.5686 6.95999 18.6961L0.674826 16.7566C0.674826 16.7566 -1.64538 15.3026 2.31868 13.8487C11.9874 9.29249 23.8796 4.63954 34.4173 0.276828H34.4191Z" fill="#462A50"/>
<path d="M0.84 34V25.36H6.48V26.884H2.472V28.732H5.76V30.256H2.472V32.476H6.48V34H0.84ZM7.91813 34V25.36H9.57413L13.3301 31.12V25.36H14.9861V34H13.3301L9.57413 28.24V34H7.91813Z" fill="#462A50"/>
</svg>
