<svg width="38" height="37" viewBox="0 0 38 37" fill="none" xmlns="http://www.w3.org/2000/svg">
<path d="M1.15366 34V25.36H4.80166C4.88566 25.36 4.99766 25.364 5.13766 25.372C5.28166 25.376 5.40966 25.388 5.52166 25.408C6.03766 25.488 6.45966 25.658 6.78766 25.918C7.11966 26.178 7.36366 26.506 7.51966 26.902C7.67566 27.294 7.75366 27.732 7.75366 28.216C7.75366 28.94 7.57366 29.56 7.21366 30.076C6.85366 30.588 6.28966 30.904 5.52166 31.024L4.80166 31.072H2.78566V34H1.15366ZM6.02566 34L4.32166 30.484L6.00166 30.16L7.87366 34H6.02566ZM2.78566 29.548H4.72966C4.81366 29.548 4.90566 29.544 5.00566 29.536C5.10566 29.528 5.19766 29.512 5.28166 29.488C5.50166 29.428 5.67166 29.328 5.79166 29.188C5.91166 29.044 5.99366 28.886 6.03766 28.714C6.08566 28.538 6.10966 28.372 6.10966 28.216C6.10966 28.06 6.08566 27.896 6.03766 27.724C5.99366 27.548 5.91166 27.39 5.79166 27.25C5.67166 27.106 5.50166 27.004 5.28166 26.944C5.19766 26.92 5.10566 26.904 5.00566 26.896C4.90566 26.888 4.81366 26.884 4.72966 26.884H2.78566V29.548ZM12.7087 34.18C12.0127 34.18 11.4007 34.04 10.8727 33.76C10.3447 33.476 9.93272 33.078 9.63672 32.566C9.34072 32.054 9.19272 31.452 9.19272 30.76V25.372L10.8487 25.36V30.748C10.8487 31.032 10.8967 31.29 10.9927 31.522C11.0887 31.754 11.2207 31.954 11.3887 32.122C11.5607 32.29 11.7587 32.42 11.9827 32.512C12.2107 32.6 12.4527 32.644 12.7087 32.644C12.9727 32.644 13.2167 32.598 13.4407 32.506C13.6687 32.414 13.8667 32.284 14.0347 32.116C14.2027 31.948 14.3327 31.748 14.4247 31.516C14.5207 31.284 14.5687 31.028 14.5687 30.748V25.36H16.2247V30.76C16.2247 31.452 16.0767 32.054 15.7807 32.566C15.4847 33.078 15.0727 33.476 14.5447 33.76C14.0167 34.04 13.4047 34.18 12.7087 34.18Z" fill="#462A50"/>
<path d="M34.4191 0.547824C34.4191 0.547824 37.8994 -0.809364 37.6082 2.48641C37.5124 3.84359 36.6425 8.5942 35.9653 13.7318L33.6451 28.952C33.6451 28.952 33.4516 31.1817 31.711 31.5696C29.9713 31.9566 27.3608 30.2124 26.8771 29.8246C26.4901 29.5334 19.6262 25.1707 17.2092 23.0386C16.532 22.4563 15.758 21.2935 17.306 19.9363L27.4567 10.2416C28.6168 9.07884 29.7769 6.36447 24.943 9.66024L11.4069 18.8694C11.4069 18.8694 9.85981 19.8396 6.95999 18.9671L0.674826 17.0276C0.674826 17.0276 -1.64538 15.5736 2.31868 14.1197C11.9874 9.56349 23.8796 4.91053 34.4173 0.547824H34.4191Z" fill="#462A50"/>
</svg>
