<svg width="40" height="32" viewBox="0 0 40 32" fill="none" xmlns="http://www.w3.org/2000/svg">
<path d="M39.998 3.79875C38.4999 4.45077 36.9112 4.87898 35.2845 5.06922C36.9991 4.06024 38.2824 2.47232 38.8952 0.601347C37.2861 1.54358 35.522 2.20391 33.6833 2.56111C32.4482 1.26087 30.8111 0.398542 29.0266 0.108192C27.2421 -0.182159 25.41 0.115734 23.8153 0.955558C22.2205 1.79538 20.9525 3.13008 20.2082 4.75216C19.464 6.37424 19.2852 8.19282 19.6998 9.92517C16.4366 9.76425 13.2444 8.92989 10.3302 7.47627C7.41609 6.02265 4.84523 3.98227 2.78454 1.48758C2.05512 2.7203 1.67181 4.12163 1.67386 5.54805C1.67386 8.34771 3.12206 10.8211 5.32378 12.2692C4.02082 12.2288 2.74653 11.8826 1.60714 11.2594V11.3598C1.60754 13.2243 2.26328 15.0314 3.4632 16.4746C4.66312 17.9177 6.33336 18.9082 8.19074 19.278C6.98119 19.6005 5.71293 19.648 4.48195 19.417C5.00563 21.0219 6.02631 22.4255 7.40108 23.4313C8.77586 24.4371 10.4359 24.9947 12.1487 25.0259C10.4464 26.3415 8.49721 27.3139 6.41264 27.8877C4.32807 28.4615 2.14899 28.6254 0 28.3701C3.75137 30.7439 8.11832 32.0041 12.5785 32C27.6746 32 35.9301 19.695 35.9301 9.02349C35.9301 8.67595 35.9203 8.32454 35.9046 7.98086C37.5115 6.83815 38.8983 5.42259 40 3.80068L39.998 3.79875Z" fill="#462A50"/>
</svg>
