<svg width="228" height="52" viewBox="0 0 228 52" fill="none" xmlns="http://www.w3.org/2000/svg">
<g clip-path="url(#clip0_28_78)">
<path d="M8.61062 52L19.3303 25.1553C20.3497 22.6367 21.4619 20.3946 22.3268 18.6131C22.9447 19.8417 24.1186 22.2374 25.2307 25.0939L31.5946 41.3727C33.9733 39.9291 35.7959 38.332 37.2479 36.6734C34.0968 29.0561 30.4824 20.5481 28.1037 15.6645C26.7753 12.9309 26.1575 11.6716 22.574 11.6716C19.8555 11.6716 18.249 12.7159 16.8589 15.7259C11.3292 27.9811 5.52138 41.7413 1.65984 52H8.57973H8.61062ZM34.066 47.6385L35.765 52H43.3646C42.8394 50.5257 41.5419 47.2085 39.8737 43.062C38.36 44.567 36.4447 46.1642 34.066 47.6692V47.6385Z" fill="white"/>
<path fill-rule="evenodd" clip-rule="evenodd" d="M32.9541 21.961C54.3316 21.0396 47.8751 47.2699 10.7116 51.8157L13.183 45.3656C39.8431 41.557 46.2996 26.6911 34.6223 26.0461C34.0662 24.6639 33.5101 23.3125 32.9232 21.961H32.9541ZM8.14749 31.2061C-3.93143 33.479 -5.2907 18.2138 23.3157 3.90077L23.8099 4.91436C16.4267 8.07797 -5.53784 27.8275 10.5262 25.6775C9.723 27.5204 8.9198 29.394 8.14749 31.2369V31.2061ZM22.9141 24.2032L21.5239 24.6025C21.3694 25.0018 21.1841 25.4011 21.0296 25.8311L19.6704 29.2404L24.4587 28.2268L23.5628 25.7696C23.3465 25.2475 23.1612 24.7253 22.9449 24.2339L22.9141 24.2032Z" fill="url(#paint0_linear_28_78)"/>
<path fill-rule="evenodd" clip-rule="evenodd" d="M31.1621 0.0921367C30.5442 1.6893 29.185 3.28647 27.3005 4.45363C27.2696 5.28292 26.9298 6.11222 26.3429 6.72651C26.0957 5.6515 25.6632 4.6072 25.0763 3.59361C24.4893 2.58003 23.7788 1.72002 22.9756 0.952149C23.8097 0.737146 24.6747 0.860004 25.447 1.2593C27.3932 0.214996 29.463 -0.153581 31.1621 0.0921367Z" fill="white"/>
<path d="M52.5705 49.6964C52.5705 49.6964 53.0648 48.775 54.0533 46.9321C54.3314 47.0549 54.6403 47.2085 54.9801 47.3621C55.3508 47.5157 55.7215 47.6692 56.1231 47.7921C56.5247 47.9149 56.9572 48.0378 57.3897 48.1299C57.8222 48.2221 58.2547 48.2528 58.6563 48.2528C59.1506 48.2528 59.5831 48.2221 59.9229 48.1299C60.2627 48.0378 60.5716 47.9149 60.7879 47.7614C61.0041 47.6078 61.1895 47.4235 61.2821 47.2085C61.3748 46.9935 61.4366 46.7478 61.4366 46.5021C61.4366 46.2871 61.3748 46.1028 61.2204 45.9185C61.0968 45.7649 60.8805 45.6113 60.6334 45.4885C60.3863 45.3656 60.0773 45.2428 59.7066 45.1199C59.3359 44.997 58.9343 44.8742 58.4709 44.7513C58.2547 44.6899 57.9767 44.6285 57.6986 44.5363C57.4206 44.4442 57.1117 44.352 56.8336 44.2292C56.5247 44.1063 56.2467 43.9527 55.9687 43.7992C55.6906 43.6456 55.4435 43.4306 55.2272 43.2156C55.011 43.0006 54.8256 42.7549 54.7021 42.4477C54.5785 42.1713 54.5167 41.8334 54.5167 41.4649C54.5167 40.7891 54.6403 40.1441 54.8874 39.5605C55.1346 38.977 55.5362 38.4548 56.0613 38.0248C56.5865 37.5948 57.2661 37.2569 58.0693 37.0112C58.9034 36.7655 59.8611 36.6426 61.0041 36.6426C61.4984 36.6426 61.9927 36.6734 62.4561 36.7655C62.9194 36.8269 63.3519 36.9498 63.7535 37.0727C64.1551 37.1955 64.5567 37.3184 64.9275 37.4719C65.2982 37.6255 65.638 37.7791 65.9778 37.9327L64.6494 40.5741C64.495 40.482 64.2169 40.3591 63.8771 40.2363C63.5373 40.1134 63.1666 39.9906 62.765 39.8677C62.3634 39.7448 61.9309 39.6527 61.4984 39.5605C61.0659 39.4684 60.6643 39.4377 60.2627 39.4377C59.7993 39.4377 59.3977 39.4684 59.0888 39.5605C58.7799 39.6527 58.5327 39.7755 58.3474 39.8984C58.162 40.052 58.0384 40.2056 57.9458 40.3898C57.8531 40.5741 57.8222 40.7584 57.8222 40.912C57.8222 41.127 57.884 41.3113 58.0384 41.4649C58.162 41.6184 58.3783 41.7413 58.5945 41.8641C58.8417 41.987 59.1197 42.0792 59.4286 42.1713C59.7684 42.2634 60.1082 42.3249 60.4789 42.417C61.0968 42.5706 61.6529 42.7242 62.178 42.9084C62.7032 43.0927 63.1666 43.3385 63.5373 43.6149C63.908 43.8913 64.2169 44.2292 64.4332 44.6285C64.6494 45.0278 64.773 45.5192 64.773 46.1028C64.773 46.9321 64.5876 47.6385 64.2478 48.2528C63.908 48.8671 63.4137 49.3893 62.7959 49.8193C62.178 50.2493 61.4675 50.5564 60.6334 50.7714C59.7993 50.9864 58.9343 51.1093 57.9767 51.1093C57.3588 51.1093 56.7719 51.0786 56.2158 50.9864C55.6906 50.8943 55.1655 50.8021 54.733 50.6486C54.2696 50.5257 53.868 50.3721 53.5282 50.2185C53.1575 50.065 52.8485 49.9114 52.5705 49.7578V49.6964ZM74.1643 47.5771L75.7089 49.5428C75.091 50.0343 74.4114 50.4028 73.67 50.6793C72.9286 50.925 72.1872 51.0478 71.384 51.0478C70.6117 51.0478 69.932 50.925 69.3142 50.6486C68.6963 50.4028 68.1712 50.065 67.7696 49.635C67.3371 49.205 67.0281 48.7135 66.781 48.1299C66.5339 47.5464 66.4412 46.9321 66.4412 46.2871C66.4412 45.4271 66.6265 44.6285 66.9972 43.8606C67.3679 43.0927 67.8622 42.417 68.4801 41.8334C69.0979 41.2499 69.8393 40.7891 70.6734 40.4206C71.5075 40.0827 72.4034 39.8984 73.3611 39.8984C74.1334 39.8984 74.8439 40.0213 75.4926 40.267C76.1414 40.5127 76.6666 40.8813 77.1299 41.3727L74.9057 43.3385C74.7203 43.0927 74.4423 42.9084 74.1025 42.7856C73.7627 42.6627 73.3611 42.6013 72.9286 42.6013C72.4961 42.6013 72.0945 42.6934 71.6929 42.847C71.2913 43.0006 70.9515 43.2463 70.6425 43.5227C70.3336 43.8299 70.0865 44.1678 69.9011 44.5978C69.7158 45.0278 69.6231 45.4885 69.6231 46.0106C69.6231 46.3792 69.6849 46.7171 69.8084 46.9935C69.932 47.3007 70.0865 47.5464 70.2718 47.7307C70.4881 47.9457 70.7043 48.0992 70.9824 48.1914C71.2604 48.2835 71.5693 48.345 71.8782 48.345C72.3416 48.345 72.7741 48.2835 73.1448 48.1607C73.5155 48.0378 73.8554 47.8228 74.1643 47.5771ZM89.1162 45.0892C89.1162 45.0892 88.7764 46.9628 88.1276 50.71H84.9766L85.9652 45.1506C86.0578 44.6592 86.0887 44.2292 86.027 43.8913C85.9961 43.5535 85.8725 43.3077 85.718 43.1235C85.5636 42.9392 85.3473 42.7856 85.0693 42.7242C84.7913 42.6627 84.5132 42.6013 84.1425 42.6013C83.8027 42.6013 83.4629 42.6627 83.154 42.7856C82.845 42.9084 82.567 43.0927 82.3199 43.3385C82.0727 43.5842 81.8565 43.8299 81.6711 44.1678C81.4858 44.4749 81.3622 44.8435 81.3004 45.2121L80.3119 50.7407H77.1608L79.694 36.5198H82.7833L81.98 40.9427C82.4125 40.6663 82.9377 40.4206 83.4629 40.2363C84.0189 40.052 84.575 39.9291 85.162 39.9291C85.9961 39.9291 86.7066 40.052 87.2626 40.2977C87.8187 40.5434 88.2512 40.8813 88.5601 41.3113C88.8691 41.7413 89.0544 42.2942 89.1162 42.9392C89.178 43.5842 89.1471 44.2906 88.9926 45.1199L89.1162 45.0892ZM90.7844 46.3178C90.7844 45.4578 90.9697 44.6592 91.3096 43.8913C91.6803 43.1235 92.1436 42.4477 92.7924 41.8641C93.4102 41.2806 94.1517 40.8198 94.9857 40.4513C95.8198 40.1134 96.7157 39.9291 97.6734 39.9291C98.4457 39.9291 99.1562 40.052 99.7741 40.2977C100.392 40.5434 100.917 40.8813 101.35 41.3113C101.782 41.7413 102.122 42.2327 102.338 42.8163C102.585 43.3999 102.678 44.0142 102.678 44.6592C102.678 45.5192 102.493 46.3485 102.153 47.1164C101.782 47.8842 101.319 48.56 100.67 49.1435C100.052 49.7271 99.3107 50.1878 98.4766 50.5257C97.6425 50.8636 96.7157 51.0478 95.7581 51.0478C94.9857 51.0478 94.3061 50.925 93.6883 50.6793C93.0704 50.4336 92.5452 50.0957 92.1128 49.6657C91.6803 49.2357 91.3404 48.7442 91.1242 48.1607C90.8771 47.5771 90.7844 46.9628 90.7844 46.3178ZM93.9354 45.9799C93.9354 46.3485 93.9972 46.6556 94.0899 46.9628C94.2134 47.2699 94.3679 47.5157 94.5533 47.7307C94.7695 47.9457 94.9857 48.0992 95.2638 48.2221C95.5418 48.345 95.8507 48.4064 96.1905 48.4064C96.623 48.4064 97.0555 48.3142 97.4571 48.1607C97.8587 48.0071 98.1986 47.7614 98.5075 47.4542C98.8164 47.1471 99.0635 46.8092 99.2489 46.3792C99.4342 45.9799 99.5269 45.5192 99.5269 44.997C99.5269 44.6285 99.4651 44.3213 99.3725 44.0142C99.2489 43.707 99.0944 43.4613 98.9091 43.277C98.7237 43.062 98.4766 42.9084 98.1986 42.7856C97.9205 42.6627 97.6116 42.632 97.2718 42.632C96.8393 42.632 96.4377 42.7242 96.0361 42.8777C95.6345 43.0313 95.2947 43.277 94.9857 43.5842C94.6768 43.8913 94.4297 44.2292 94.2443 44.6592C94.059 45.0585 93.9663 45.5192 93.9663 46.0413L93.9354 45.9799ZM104.006 46.3178C104.006 45.4578 104.192 44.6592 104.531 43.8913C104.902 43.1235 105.366 42.4477 106.014 41.8641C106.632 41.2806 107.374 40.8198 108.208 40.4513C109.042 40.1134 109.938 39.9291 110.895 39.9291C111.668 39.9291 112.378 40.052 112.996 40.2977C113.614 40.5434 114.139 40.8813 114.572 41.3113C115.004 41.7413 115.344 42.2327 115.56 42.8163C115.807 43.3999 115.9 44.0142 115.9 44.6592C115.9 45.5192 115.715 46.3485 115.375 47.1164C115.004 47.8842 114.541 48.56 113.892 49.1435C113.274 49.7271 112.533 50.1878 111.699 50.5257C110.864 50.8636 109.938 51.0478 108.98 51.0478C108.208 51.0478 107.528 50.925 106.91 50.6793C106.292 50.4336 105.767 50.0957 105.335 49.6657C104.902 49.2357 104.562 48.7442 104.346 48.1607C104.099 47.5771 104.006 46.9628 104.006 46.3178ZM107.157 45.9799C107.157 46.3485 107.219 46.6556 107.312 46.9628C107.435 47.2699 107.59 47.5157 107.775 47.7307C107.991 47.9457 108.208 48.0992 108.486 48.2221C108.764 48.345 109.073 48.4064 109.412 48.4064C109.845 48.4064 110.277 48.3142 110.679 48.1607C111.081 48.0071 111.42 47.7614 111.729 47.4542C112.038 47.1471 112.285 46.8092 112.471 46.3792C112.656 45.9799 112.749 45.5192 112.749 44.997C112.749 44.6285 112.687 44.3213 112.594 44.0142C112.471 43.707 112.316 43.4613 112.131 43.277C111.946 43.062 111.699 42.9084 111.42 42.7856C111.142 42.6627 110.834 42.632 110.494 42.632C110.061 42.632 109.66 42.7242 109.258 42.8777C108.856 43.0313 108.517 43.277 108.208 43.5842C107.899 43.8913 107.652 44.2292 107.466 44.6592C107.281 45.0585 107.188 45.5192 107.188 46.0413L107.157 45.9799ZM119.576 36.4891H122.696L120.843 46.9014C120.812 47.1471 120.781 47.3314 120.781 47.4849C120.781 47.6385 120.812 47.7614 120.874 47.8228C120.935 47.9149 120.997 47.9764 121.121 48.0071C121.244 48.0378 121.368 48.0378 121.553 48.0378H122.078L121.615 50.6793H120.966C120.163 50.6793 119.545 50.6178 119.051 50.495C118.557 50.3721 118.217 50.1571 117.97 49.8807C117.723 49.5735 117.599 49.205 117.568 48.7135C117.537 48.2221 117.599 47.6385 117.723 46.9014L119.576 36.4584V36.4891Z" fill="url(#paint1_linear_28_78)"/>
<path d="M66.4412 21.7767L66.0087 22.7903L63.043 26.8754H66.503V21.7767H66.4103H66.4412ZM69.8393 31.544H66.503V29.3018H61.2822L59.6757 31.544H55.6906L66.2558 16.9238H69.8085V31.544H69.8393ZM81.2386 27.6739H80.3736L76.6666 22.4832V31.544H73.2375V16.9545H76.2341L80.8061 23.1589L85.4091 16.9545H88.4057V31.544H85.0075V22.5139L81.2386 27.6739ZM95.202 25.3703V28.749H98.6002C98.7855 28.749 98.9709 28.7182 99.1871 28.6568C99.4034 28.5954 99.5887 28.4725 99.7432 28.3497C99.9285 28.1961 100.052 28.0425 100.176 27.8275C100.299 27.6125 100.361 27.3668 100.361 27.0597C100.361 26.8139 100.299 26.5682 100.207 26.3532C100.114 26.1382 99.9903 25.9846 99.8359 25.8311C99.6814 25.6775 99.496 25.5853 99.2798 25.4932C99.0635 25.4011 98.8473 25.3703 98.6002 25.3703H95.202ZM98.1368 19.7496C98.1368 19.7496 97.1482 19.7496 95.202 19.7496V22.7903H98.1059C98.2912 22.7903 98.4457 22.7596 98.6311 22.6982C98.8164 22.6367 98.9709 22.5139 99.0944 22.391C99.218 22.2682 99.3416 22.1146 99.4343 21.8996C99.5269 21.7153 99.5578 21.5003 99.5578 21.2853C99.5578 21.0703 99.5269 20.8553 99.4343 20.671C99.3416 20.4867 99.2489 20.3331 99.0944 20.1796C98.9709 20.0567 98.8164 19.9338 98.6311 19.8724C98.4457 19.7803 98.2912 19.7496 98.1059 19.7496H98.1368ZM98.94 31.544H91.8038V16.9545H98.3221C99.0327 16.9545 99.6814 17.0467 100.268 17.2309C100.855 17.4152 101.35 17.6917 101.751 18.0295C102.153 18.3674 102.493 18.7974 102.709 19.3195C102.925 19.811 103.049 20.3946 103.049 21.0396C103.049 21.3467 102.987 21.6232 102.894 21.9303C102.802 22.2374 102.678 22.4832 102.493 22.7289C102.338 22.9746 102.153 23.1896 101.937 23.3739C101.72 23.5582 101.504 23.7118 101.257 23.8039C101.597 23.9268 101.937 24.0803 102.245 24.326C102.554 24.541 102.832 24.7868 103.08 25.0939C103.327 25.4011 103.512 25.7082 103.636 26.0768C103.79 26.4454 103.852 26.8139 103.852 27.2132C103.852 27.9811 103.697 28.6568 103.419 29.2097C103.141 29.7625 102.771 30.2233 102.307 30.5611C101.844 30.899 101.319 31.1754 100.732 31.329C100.145 31.4826 99.5269 31.5747 98.94 31.5747V31.544ZM112.842 21.4389L112.718 21.8996L110.926 26.3225H114.726L112.934 21.8996L112.842 21.4389H112.811H112.842ZM120.472 31.544H116.858L115.931 29.2097H109.783L108.856 31.544H105.242L111.266 16.9238H114.479L120.503 31.544H120.472ZM121.491 26.9982C121.491 26.9982 122.634 26.9982 124.89 26.9982C124.89 27.6125 125.137 28.0732 125.631 28.4418C126.125 28.8104 126.836 28.9947 127.732 28.9947C128.226 28.9947 128.658 28.964 128.998 28.8718C129.338 28.8104 129.616 28.6875 129.832 28.5647C130.049 28.4111 130.203 28.2575 130.296 28.0732C130.388 27.8582 130.45 27.6432 130.45 27.3975C130.45 27.0597 130.358 26.7525 130.203 26.5375C130.049 26.3225 129.801 26.1382 129.493 25.9846C129.184 25.8311 128.813 25.7082 128.38 25.5853C127.948 25.4625 127.423 25.3396 126.867 25.1861C126.589 25.1246 126.28 25.0325 125.94 24.9403C125.6 24.8482 125.229 24.7561 124.89 24.6332C124.519 24.5103 124.179 24.3568 123.839 24.1725C123.499 23.9882 123.191 23.7732 122.912 23.4967C122.634 23.2203 122.418 22.9132 122.264 22.5446C122.109 22.176 122.017 21.746 122.017 21.2853C122.017 20.5481 122.14 19.9031 122.387 19.3195C122.634 18.736 122.974 18.2445 123.469 17.8452C123.963 17.446 124.581 17.1388 125.353 16.9238C126.125 16.7088 127.021 16.6167 128.071 16.6167C128.936 16.6167 129.709 16.7395 130.358 16.9545C131.037 17.1695 131.593 17.4767 132.057 17.876C132.52 18.2752 132.86 18.7667 133.107 19.3195C133.354 19.8724 133.478 20.5174 133.478 21.2239H130.049C130.049 21.0089 130.018 20.7939 129.925 20.5789C129.832 20.3638 129.709 20.2103 129.554 20.0567C129.369 19.9031 129.153 19.7803 128.844 19.6881C128.566 19.596 128.195 19.5346 127.793 19.5346C127.33 19.5346 126.959 19.5653 126.65 19.6574C126.342 19.7496 126.125 19.8417 125.94 19.9646C125.755 20.0874 125.631 20.241 125.569 20.4253C125.507 20.5789 125.477 20.7631 125.477 20.9474C125.477 21.1931 125.569 21.4081 125.724 21.5924C125.878 21.7767 126.094 21.9303 126.372 22.0532C126.65 22.176 126.99 22.2989 127.361 22.391C127.732 22.4832 128.164 22.5753 128.597 22.6367C129.369 22.821 130.08 23.0053 130.728 23.251C131.377 23.466 131.933 23.7732 132.427 24.111C132.922 24.4489 133.292 24.9096 133.539 25.4318C133.817 25.9539 133.941 26.5989 133.941 27.3668C133.941 28.104 133.787 28.749 133.478 29.3018C133.169 29.8547 132.736 30.3461 132.18 30.7147C131.624 31.0833 130.975 31.3904 130.203 31.5747C129.431 31.759 128.597 31.8819 127.701 31.8819C126.589 31.8819 125.631 31.7283 124.828 31.4519C124.055 31.1754 123.407 30.7761 122.912 30.3154C122.418 29.8547 122.047 29.3325 121.831 28.749C121.615 28.1654 121.491 27.5818 121.491 26.9982ZM136.011 26.9982C136.011 26.9982 137.154 26.9982 139.409 26.9982C139.409 27.6125 139.656 28.0732 140.15 28.4418C140.645 28.8104 141.355 28.9947 142.251 28.9947C142.745 28.9947 143.178 28.964 143.518 28.8718C143.858 28.8104 144.136 28.6875 144.352 28.5647C144.568 28.4111 144.722 28.2575 144.815 28.0732C144.908 27.8582 144.97 27.6432 144.97 27.3975C144.97 27.0597 144.877 26.7525 144.722 26.5375C144.568 26.3225 144.321 26.1382 144.012 25.9846C143.703 25.8311 143.332 25.7082 142.9 25.5853C142.467 25.4625 141.942 25.3396 141.386 25.1861C141.108 25.1246 140.799 25.0325 140.459 24.9403C140.12 24.8482 139.749 24.7561 139.409 24.6332C139.038 24.5103 138.698 24.3568 138.359 24.1725C138.019 23.9882 137.71 23.7732 137.432 23.4967C137.154 23.2203 136.938 22.9132 136.783 22.5446C136.629 22.176 136.536 21.746 136.536 21.2853C136.536 20.5481 136.66 19.9031 136.907 19.3195C137.154 18.736 137.494 18.2445 137.988 17.8452C138.482 17.446 139.1 17.1388 139.872 16.9238C140.645 16.7088 141.541 16.6167 142.591 16.6167C143.456 16.6167 144.228 16.7395 144.877 16.9545C145.557 17.1695 146.113 17.4767 146.576 17.876C147.039 18.2752 147.379 18.7667 147.626 19.3195C147.874 19.8724 147.997 20.5174 147.997 21.2239H144.568C144.568 21.0089 144.537 20.7939 144.444 20.5789C144.352 20.3638 144.228 20.2103 144.074 20.0567C143.888 19.9031 143.672 19.7803 143.363 19.6881C143.085 19.596 142.714 19.5346 142.313 19.5346C141.85 19.5346 141.479 19.5653 141.17 19.6574C140.861 19.7496 140.645 19.8417 140.459 19.9646C140.274 20.0874 140.15 20.241 140.089 20.4253C140.027 20.5789 139.996 20.7631 139.996 20.9474C139.996 21.1931 140.089 21.4081 140.243 21.5924C140.398 21.7767 140.614 21.9303 140.892 22.0532C141.17 22.176 141.51 22.2989 141.88 22.391C142.251 22.4832 142.684 22.5753 143.116 22.6367C143.888 22.821 144.599 23.0053 145.248 23.251C145.896 23.466 146.452 23.7732 146.947 24.111C147.441 24.4489 147.812 24.9096 148.059 25.4318C148.337 25.9539 148.46 26.5989 148.46 27.3668C148.46 28.104 148.306 28.749 147.997 29.3018C147.688 29.8547 147.256 30.3461 146.7 30.7147C146.144 31.0833 145.495 31.3904 144.722 31.5747C143.95 31.759 143.116 31.8819 142.22 31.8819C141.108 31.8819 140.15 31.7283 139.347 31.4519C138.575 31.1754 137.926 30.7761 137.432 30.3154C136.938 29.8547 136.567 29.3325 136.351 28.749C136.134 28.1654 136.011 27.5818 136.011 26.9982ZM157.574 21.4389L157.45 21.8996L155.658 26.3225H159.458L157.666 21.8996L157.574 21.4389H157.543H157.574ZM165.204 31.544H161.59L160.663 29.2097H154.515L153.589 31.544H149.974L155.998 16.9238H159.211L165.235 31.544H165.204ZM170.765 28.6261H173.236C174.688 28.6261 175.8 28.2575 176.573 27.5204C177.345 26.7832 177.716 25.7082 177.716 24.2953C177.716 23.6196 177.623 23.0053 177.438 22.4832C177.252 21.9303 176.974 21.4696 176.603 21.101C176.233 20.7324 175.769 20.4253 175.213 20.2103C174.657 19.9953 174.008 19.9031 173.236 19.9031H170.765V28.6568V28.6261ZM167.336 31.544V16.9545H173.298C174.41 16.9545 175.46 17.1081 176.418 17.4152C177.376 17.7224 178.21 18.1831 178.92 18.7974C179.631 19.4117 180.187 20.1796 180.558 21.0703C180.959 21.961 181.145 23.036 181.145 24.2032C181.145 25.2782 180.99 26.2918 180.619 27.1825C180.28 28.0732 179.785 28.8411 179.106 29.4861C178.426 30.1311 177.623 30.6226 176.634 30.9911C175.677 31.3597 174.565 31.5133 173.298 31.5133H167.305L167.336 31.544ZM183.122 24.2339C183.122 23.1589 183.338 22.176 183.77 21.2546C184.203 20.3331 184.759 19.5038 185.5 18.8281C186.211 18.1217 187.076 17.5995 188.034 17.2002C189.022 16.8009 190.042 16.6167 191.154 16.6167C192.266 16.6167 193.316 16.8009 194.274 17.2002C195.262 17.5995 196.097 18.1524 196.838 18.8281C197.548 19.5038 198.135 20.3331 198.568 21.2546C199 22.176 199.217 23.1896 199.217 24.2339C199.217 25.2782 199 26.2918 198.568 27.2132C198.135 28.1347 197.579 28.964 196.838 29.6397C196.127 30.3154 195.262 30.8683 194.274 31.2676C193.316 31.6669 192.266 31.8819 191.154 31.8819C190.042 31.8819 188.991 31.6669 188.034 31.2676C187.045 30.8683 186.211 30.3154 185.5 29.6397C184.79 28.9333 184.203 28.1347 183.77 27.2132C183.338 26.2918 183.122 25.2782 183.122 24.2339ZM186.52 24.2339C186.52 24.9096 186.643 25.5239 186.891 26.1075C187.138 26.6911 187.447 27.1825 187.879 27.6125C188.312 28.0425 188.775 28.3497 189.362 28.5954C189.918 28.8411 190.505 28.964 191.154 28.964C191.803 28.964 192.42 28.8411 192.976 28.5954C193.532 28.3497 194.027 28.0118 194.428 27.6125C194.83 27.1825 195.17 26.6911 195.417 26.1075C195.664 25.5239 195.788 24.9096 195.788 24.2339C195.788 23.5582 195.664 22.9439 195.417 22.3603C195.17 21.7767 194.861 21.2853 194.428 20.8553C194.027 20.4253 193.532 20.0874 192.976 19.8724C192.42 19.6267 191.803 19.5038 191.154 19.5038C190.505 19.5038 189.918 19.6267 189.362 19.8724C188.806 20.1181 188.312 20.456 187.879 20.8553C187.478 21.2853 187.138 21.7767 186.891 22.3603C186.643 22.9439 186.52 23.5582 186.52 24.2339ZM205.21 23.8653H208.083C208.361 23.8653 208.639 23.8039 208.886 23.7118C209.133 23.6196 209.349 23.466 209.535 23.3125C209.72 23.1282 209.875 22.9439 209.967 22.6982C210.06 22.4524 210.122 22.176 210.122 21.8689C210.122 21.5617 210.06 21.316 209.967 21.0703C209.875 20.8246 209.72 20.6096 209.535 20.4253C209.349 20.241 209.133 20.1181 208.886 19.9953C208.639 19.9031 208.392 19.8417 208.083 19.8417H205.21V23.8346V23.8653ZM213.891 31.544H209.967L207.403 26.7832H205.241V31.544H201.812V16.9545H208.237C209.01 16.9545 209.72 17.0774 210.369 17.3231C211.018 17.5688 211.574 17.9067 212.037 18.3367C212.5 18.7667 212.871 19.2888 213.118 19.9031C213.396 20.5174 213.52 21.1931 213.52 21.8996C213.52 22.4217 213.458 22.9132 213.334 23.3432C213.211 23.8039 213.026 24.2032 212.778 24.5718C212.531 24.9403 212.253 25.2782 211.913 25.5546C211.574 25.8311 211.203 26.0768 210.77 26.2611L213.86 31.5133L213.891 31.544ZM215.497 26.9982C215.497 26.9982 216.64 26.9982 218.895 26.9982C218.895 27.6125 219.142 28.0732 219.637 28.4418C220.131 28.8104 220.841 28.9947 221.737 28.9947C222.232 28.9947 222.664 28.964 223.004 28.8718C223.344 28.8104 223.622 28.6875 223.838 28.5647C224.054 28.4111 224.209 28.2575 224.301 28.0732C224.394 27.8582 224.456 27.6432 224.456 27.3975C224.456 27.0597 224.363 26.7525 224.209 26.5375C224.054 26.3225 223.807 26.1382 223.498 25.9846C223.189 25.8311 222.818 25.7082 222.386 25.5853C221.953 25.4625 221.428 25.3396 220.872 25.1861C220.594 25.1246 220.285 25.0325 219.945 24.9403C219.606 24.8482 219.235 24.7561 218.895 24.6332C218.524 24.5103 218.185 24.3568 217.845 24.1725C217.505 23.9882 217.196 23.7732 216.918 23.4967C216.64 23.2203 216.424 22.9132 216.269 22.5446C216.115 22.176 216.022 21.746 216.022 21.2853C216.022 20.5481 216.146 19.9031 216.393 19.3195C216.64 18.736 216.98 18.2445 217.474 17.8452C217.968 17.446 218.586 17.1388 219.359 16.9238C220.131 16.7088 221.027 16.6167 222.077 16.6167C222.942 16.6167 223.714 16.7395 224.363 16.9545C225.043 17.1695 225.599 17.4767 226.062 17.876C226.526 18.2752 226.865 18.7667 227.113 19.3195C227.36 19.8724 227.483 20.5174 227.483 21.2239H224.054C224.054 21.0089 224.023 20.7939 223.931 20.5789C223.838 20.3638 223.714 20.2103 223.56 20.0567C223.375 19.9031 223.158 19.7803 222.849 19.6881C222.571 19.596 222.201 19.5346 221.799 19.5346C221.336 19.5346 220.965 19.5653 220.656 19.6574C220.347 19.7496 220.131 19.8417 219.945 19.9646C219.76 20.0874 219.637 20.241 219.575 20.4253C219.513 20.5789 219.482 20.7631 219.482 20.9474C219.482 21.1931 219.575 21.4081 219.729 21.5924C219.884 21.7767 220.1 21.9303 220.378 22.0532C220.656 22.176 220.996 22.2989 221.367 22.391C221.737 22.4832 222.17 22.5753 222.602 22.6367C223.375 22.821 224.085 23.0053 224.734 23.251C225.383 23.466 225.939 23.7732 226.433 24.111C226.927 24.4489 227.298 24.9096 227.545 25.4318C227.823 25.9539 227.947 26.5989 227.947 27.3668C227.947 28.104 227.792 28.749 227.483 29.3018C227.174 29.8547 226.742 30.3461 226.186 30.7147C225.63 31.0833 224.981 31.3904 224.209 31.5747C223.436 31.759 222.602 31.8819 221.706 31.8819C220.594 31.8819 219.637 31.7283 218.833 31.4519C218.061 31.1754 217.412 30.7761 216.918 30.3154C216.424 29.8547 216.053 29.3325 215.837 28.749C215.621 28.1654 215.497 27.5818 215.497 26.9982Z" fill="white"/>
</g>
<defs>
<linearGradient id="paint0_linear_28_78" x1="26.4358" y1="8.87655" x2="41.8451" y2="54.7568" gradientUnits="userSpaceOnUse">
<stop stop-color="#B315E8"/>
<stop offset="0.329412" stop-color="#318BEF"/>
<stop offset="0.690196" stop-color="#99FFFF"/>
<stop offset="1" stop-color="#7AE6BD"/>
</linearGradient>
<linearGradient id="paint1_linear_28_78" x1="83.5865" y1="29.7626" x2="101" y2="66.5139" gradientUnits="userSpaceOnUse">
<stop stop-color="#B315E8"/>
<stop offset="0.501961" stop-color="#8AE0E6"/>
<stop offset="1" stop-color="#7FE3AF"/>
</linearGradient>
<clipPath id="clip0_28_78">
<rect width="228" height="52" fill="white"/>
</clipPath>
</defs>
</svg>
