<svg width="1440" height="210" viewBox="0 0 1440 210" fill="none" xmlns="http://www.w3.org/2000/svg">
<rect y="5.43115" width="1440" height="203.664" fill="#202020"/>
<g clip-path="url(#clip0_425_194)">
<path d="M8.2357 94.304H4.94142L3.29428 96.8923L4.94142 99.4721H8.2357L9.89226 96.8923L8.2357 94.304Z" stroke="#CCCCCC" stroke-width="0.5" stroke-miterlimit="10"/>
<g style="mix-blend-mode:multiply" opacity="0.4">
<path d="M290.236 65.8666H159.067L140.073 48.6848H-0.470612V50.6601H120.006L139.941 68.6933H291.177L290.236 65.8666Z" fill="#CCCCCC"/>
</g>
<g style="mix-blend-mode:multiply" opacity="0.4">
<path d="M286.198 134.713H184.32L176.479 141.814H25.253L8.31101 157.139H-3.9249L-6.27795 159.268H21.8082L37.7242 144.862H221.197L230.28 136.654H290.236L286.198 134.713Z" fill="#CCCCCC"/>
</g>
<g style="mix-blend-mode:multiply" opacity="0.4">
<path d="M135.96 75.5812H225.103L226.835 77.1564H130.19L113.54 62.0946H50.9767L48.9248 60.2385H119.837L135.96 75.5812Z" fill="#CCCCCC"/>
</g>
<g style="mix-blend-mode:multiply" opacity="0.4">
<path d="M-0.470612 127.544V130.949H128.477L132.242 127.544H-0.470612Z" fill="#CCCCCC"/>
</g>
<g style="mix-blend-mode:multiply" opacity="0.4">
<path d="M193.704 148.106H79.7781L75.7685 151.733H189.788L193.704 148.106Z" fill="#CCCCCC"/>
</g>
<g style="mix-blend-mode:multiply" opacity="0.4">
<path d="M159.679 58.425H175.218L179.228 62.0521H163.594L159.679 58.425Z" fill="#CCCCCC"/>
</g>
<g style="mix-blend-mode:multiply" opacity="0.4">
<path d="M151.377 85.679L142.595 93.6313H64.6338L71.6459 87.2796V91.9284H141.974L148.883 85.679H151.377Z" fill="#CCCCCC"/>
</g>
<g style="mix-blend-mode:multiply" opacity="0.4">
<path d="M6.58856 35.1639H101.182L125.682 57.3265V49.4849L122.877 52.0222L102.471 33.5632H6.58856V35.1639Z" fill="#CCCCCC"/>
</g>
<path d="M268.362 86.2495H155.772L144.638 96.3218H62.5914L25.3001 62.5798H0" stroke="#999999" stroke-width="0.5" stroke-miterlimit="10"/>
<path d="M272.296 120.264H216.481L168.272 163.874H53.6497L39.249 176.901H0" stroke="#999999" stroke-width="0.5" stroke-miterlimit="10"/>
<path d="M276.155 130.949H204.669" stroke="#999999" stroke-width="0.5" stroke-miterlimit="10"/>
<path d="M0 37.1477H149.655L155.932 42.8267" stroke="#999999" stroke-width="0.5" stroke-miterlimit="10"/>
<path d="M157.909 44.4786L157.57 41.1665L155.914 42.6735L154.257 44.172L157.909 44.4786Z" fill="#999999"/>
<path d="M61.8007 109.519L64.6338 111.639V109.519V107.399L61.8007 109.519Z" fill="#999999"/>
<path d="M266.479 106.684H186.362L172.423 119.293H148.403" stroke="#999999" stroke-width="0.5" stroke-miterlimit="10"/>
<path d="M149.193 119.259C149.193 119.522 149.107 119.779 148.946 119.997C148.785 120.216 148.555 120.386 148.287 120.486C148.019 120.587 147.723 120.613 147.439 120.562C147.154 120.511 146.892 120.384 146.687 120.199C146.481 120.013 146.342 119.776 146.285 119.519C146.228 119.261 146.257 118.994 146.368 118.751C146.48 118.508 146.668 118.301 146.909 118.155C147.151 118.009 147.435 117.931 147.725 117.931C147.918 117.931 148.109 117.966 148.287 118.032C148.465 118.099 148.627 118.197 148.763 118.32C148.9 118.444 149.008 118.59 149.082 118.751C149.155 118.912 149.193 119.085 149.193 119.259Z" fill="#999999"/>
<path d="M90.0563 27.1861C90.0563 27.4488 89.9701 27.7056 89.8088 27.9241C89.6475 28.1425 89.4182 28.3127 89.1499 28.4133C88.8816 28.5138 88.5863 28.5401 88.3015 28.4888C88.0167 28.4376 87.7551 28.3111 87.5497 28.1253C87.3444 27.9396 87.2045 27.7029 87.1479 27.4453C87.0912 27.1876 87.1203 26.9205 87.2314 26.6778C87.3425 26.4351 87.5307 26.2277 87.7722 26.0818C88.0137 25.9358 88.2976 25.8579 88.588 25.8579C88.9774 25.8579 89.3508 25.9978 89.6262 26.2469C89.9016 26.496 90.0563 26.8339 90.0563 27.1861Z" fill="#999999"/>
<path d="M82.6677 179.651C82.6677 179.914 82.5816 180.17 82.4202 180.389C82.2589 180.607 82.0296 180.778 81.7613 180.878C81.493 180.979 81.1977 181.005 80.9129 180.954C80.6281 180.902 80.3665 180.776 80.1611 180.59C79.9558 180.404 79.8159 180.168 79.7593 179.91C79.7026 179.652 79.7317 179.385 79.8428 179.143C79.954 178.9 80.1421 178.693 80.3836 178.547C80.6251 178.401 80.9089 178.323 81.1994 178.323C81.5888 178.323 81.9622 178.463 82.2376 178.712C82.513 178.961 82.6677 179.299 82.6677 179.651Z" fill="#999999"/>
<path d="M81.1993 202.554C95.2034 202.554 106.556 192.285 106.556 179.617C106.556 166.949 95.2034 156.679 81.1993 156.679C67.1953 156.679 55.8428 166.949 55.8428 179.617C55.8428 192.285 67.1953 202.554 81.1993 202.554Z" stroke="#999999" stroke-width="0.5" stroke-miterlimit="10"/>
<path d="M102.467 36.5255C108.171 29.5913 106.58 19.7878 98.9145 14.6287C91.2491 9.46961 80.4116 10.9085 74.7084 17.8426C69.0052 24.7767 70.5958 34.5802 78.2613 39.7394C85.9267 44.8985 96.7641 43.4596 102.467 36.5255Z" stroke="#999999" stroke-width="0.5" stroke-miterlimit="10"/>
<path d="M92.767 152.482C92.767 152.745 92.6809 153.002 92.5195 153.22C92.3582 153.438 92.1289 153.609 91.8606 153.709C91.5923 153.81 91.297 153.836 91.0122 153.785C90.7274 153.733 90.4658 153.607 90.2604 153.421C90.0551 153.235 89.9152 152.999 89.8586 152.741C89.8019 152.484 89.831 152.216 89.9421 151.974C90.0533 151.731 90.2414 151.524 90.4829 151.378C90.7244 151.232 91.0083 151.154 91.2987 151.154C91.6881 151.154 92.0616 151.294 92.3369 151.543C92.6123 151.792 92.767 152.13 92.767 152.482Z" fill="#999999"/>
<path d="M0 170.26H26.6649L46.3176 152.482H91.2987" stroke="#999999" stroke-width="0.5" stroke-miterlimit="10"/>
<path d="M268.38 71.7752H137.88L88.588 27.186" stroke="#999999" stroke-width="0.5" stroke-miterlimit="10"/>
<path d="M290.706 146.99H152.008L115.949 179.617H82.3571" stroke="#999999" stroke-width="0.5" stroke-miterlimit="10"/>
<path d="M280.174 52.1924H134.971L125.597 60.6641" stroke="#999999" stroke-width="0.5" stroke-miterlimit="10"/>
<path d="M263.543 101.294H182.287L173.185 109.519H64.6338" stroke="#999999" stroke-width="0.5" stroke-miterlimit="10"/>
<path d="M189.355 159.617L185.694 159.932L187.351 161.43L189.007 162.929L189.355 159.617Z" fill="#999999"/>
<path d="M70.187 173.691H173.75L187.332 161.413" stroke="#999999" stroke-width="0.5" stroke-miterlimit="10"/>
</g>
<g clip-path="url(#clip1_425_194)">
<g style="mix-blend-mode:multiply" opacity="0.4">
<path d="M1144.57 156.743H1275.73L1294.72 173.925H1435.27V171.95H1314.79L1294.86 153.917H1143.63L1144.57 156.743Z" fill="#CCCCCC"/>
</g>
<g style="mix-blend-mode:multiply" opacity="0.4">
<path d="M1152.44 75.2876H1254.33L1262.17 68.1952H1413.39L1430.34 52.8695H1442.57L1444.92 50.741H1416.84L1400.92 65.1386H1217.44L1208.37 73.3548H1148.41L1152.44 75.2876Z" fill="#CCCCCC"/>
</g>
<g style="mix-blend-mode:multiply" opacity="0.4">
<path d="M1302.69 134.419H1213.54L1211.81 132.853H1308.46L1325.11 147.914H1387.67L1389.72 149.77H1318.81L1302.69 134.419Z" fill="#CCCCCC"/>
</g>
<g style="mix-blend-mode:multiply" opacity="0.4">
<path d="M1439.12 82.465V79.0508H1310.17L1306.41 82.465H1439.12Z" fill="#CCCCCC"/>
</g>
<g style="mix-blend-mode:multiply" opacity="0.4">
<path d="M1244.94 61.8947H1358.87L1362.88 58.2676H1248.86L1244.94 61.8947Z" fill="#CCCCCC"/>
</g>
<g style="mix-blend-mode:multiply" opacity="0.4">
<path d="M1278.97 151.584H1263.43L1259.42 147.948H1275.05L1278.97 151.584Z" fill="#CCCCCC"/>
</g>
<g style="mix-blend-mode:multiply" opacity="0.4">
<path d="M1287.27 124.321L1296.05 116.377H1374.01L1367 122.72V118.08H1296.66L1289.76 124.321H1287.27Z" fill="#CCCCCC"/>
</g>
<g style="mix-blend-mode:multiply" opacity="0.4">
<path d="M1432.06 174.845H1337.47L1312.97 152.674V160.524L1315.77 157.978L1336.18 176.445H1432.06V174.845Z" fill="#CCCCCC"/>
</g>
<path d="M1170.29 123.759H1282.87L1294.01 113.687H1376.06L1413.35 147.42H1438.65" stroke="#999999" stroke-width="0.5" stroke-miterlimit="10"/>
<path d="M1166.35 89.7362H1222.17L1270.38 46.1262H1385L1399.4 33.0994H1441" stroke="#999999" stroke-width="0.5" stroke-miterlimit="10"/>
<path d="M1162.49 79.0508H1233.98" stroke="#999999" stroke-width="0.5" stroke-miterlimit="10"/>
<path d="M1439.92 183.802H1259.71L1253.43 178.131" stroke="#999999" stroke-width="0.5" stroke-miterlimit="10"/>
<path d="M1251.45 176.471L1251.8 179.783L1253.45 178.284L1255.11 176.786L1251.45 176.471Z" fill="#999999"/>
<path d="M1376.85 100.481L1374.01 98.3611V100.481V102.601L1376.85 100.481Z" fill="#999999"/>
<path d="M1172.17 103.325H1252.28L1266.22 90.7153H1290.24" stroke="#999999" stroke-width="0.5" stroke-miterlimit="10"/>
<path d="M1289.45 90.7408C1289.45 90.4781 1289.54 90.2213 1289.7 90.0029C1289.86 89.7845 1290.09 89.6142 1290.36 89.5137C1290.63 89.4132 1290.92 89.3869 1291.21 89.4381C1291.49 89.4894 1291.75 89.6159 1291.96 89.8016C1292.17 89.9874 1292.31 90.224 1292.36 90.4817C1292.42 90.7393 1292.39 91.0064 1292.28 91.2491C1292.17 91.4918 1291.98 91.6993 1291.74 91.8452C1291.5 91.9912 1291.21 92.069 1290.92 92.069C1290.73 92.0702 1290.54 92.0366 1290.36 91.9702C1290.18 91.9039 1290.02 91.8061 1289.88 91.6825C1289.74 91.559 1289.64 91.4121 1289.56 91.2504C1289.49 91.0888 1289.45 90.9156 1289.45 90.7408Z" fill="#999999"/>
<path d="M1348.62 182.814C1348.62 182.551 1348.7 182.295 1348.87 182.076C1349.03 181.858 1349.26 181.687 1349.53 181.587C1349.79 181.486 1350.09 181.46 1350.37 181.511C1350.66 181.563 1350.92 181.689 1351.13 181.875C1351.33 182.061 1351.47 182.297 1351.53 182.555C1351.58 182.813 1351.55 183.08 1351.44 183.322C1351.33 183.565 1351.14 183.772 1350.9 183.918C1350.66 184.064 1350.38 184.142 1350.09 184.142C1349.7 184.142 1349.32 184.002 1349.05 183.753C1348.77 183.504 1348.62 183.166 1348.62 182.814Z" fill="#999999"/>
<path d="M1355.98 30.3917C1355.98 30.129 1356.07 29.8722 1356.23 29.6538C1356.39 29.4354 1356.62 29.2651 1356.89 29.1646C1357.15 29.0641 1357.45 29.0377 1357.73 29.089C1358.02 29.1402 1358.28 29.2667 1358.49 29.4525C1358.69 29.6383 1358.83 29.8749 1358.89 30.1326C1358.94 30.3902 1358.92 30.6573 1358.8 30.9C1358.69 31.1427 1358.5 31.3501 1358.26 31.4961C1358.02 31.642 1357.74 31.7199 1357.45 31.7199C1357.06 31.7199 1356.68 31.58 1356.41 31.3309C1356.13 31.0818 1355.98 30.744 1355.98 30.3917Z" fill="#999999"/>
<path d="M1357.45 53.3292C1371.45 53.3292 1382.8 43.0598 1382.8 30.3918C1382.8 17.7238 1371.45 7.45435 1357.45 7.45435C1343.44 7.45435 1332.09 17.7238 1332.09 30.3918C1332.09 43.0598 1343.44 53.3292 1357.45 53.3292Z" stroke="#999999" stroke-width="0.5" stroke-miterlimit="10"/>
<path d="M1356.6 197.264C1365.45 193.992 1369.68 184.855 1366.07 176.856C1362.45 168.856 1352.35 165.022 1343.51 168.294C1334.66 171.565 1330.43 180.702 1334.04 188.702C1337.66 196.701 1347.76 200.535 1356.6 197.264Z" stroke="#999999" stroke-width="0.5" stroke-miterlimit="10"/>
<path d="M1345.88 57.5182C1345.88 57.2555 1345.97 56.9987 1346.13 56.7802C1346.29 56.5618 1346.52 56.3916 1346.79 56.291C1347.05 56.1905 1347.35 56.1642 1347.63 56.2155C1347.92 56.2667 1348.18 56.3932 1348.39 56.579C1348.59 56.7647 1348.73 57.0014 1348.79 57.259C1348.85 57.5167 1348.82 57.7838 1348.7 58.0265C1348.59 58.2692 1348.41 58.4766 1348.16 58.6225C1347.92 58.7685 1347.64 58.8464 1347.35 58.8464C1347.16 58.8475 1346.96 58.8139 1346.78 58.7476C1346.61 58.6812 1346.44 58.5834 1346.31 58.4599C1346.17 58.3363 1346.06 58.1895 1345.99 58.0278C1345.92 57.8661 1345.88 57.6929 1345.88 57.5182Z" fill="#999999"/>
<path d="M1439.12 39.749H1411.98L1392.33 57.5183H1347.35" stroke="#999999" stroke-width="0.5" stroke-miterlimit="10"/>
<path d="M1170.27 138.233H1300.77L1350.06 182.814" stroke="#999999" stroke-width="0.5" stroke-miterlimit="10"/>
<path d="M1147.94 63.01H1286.64L1322.7 30.3918H1356.29" stroke="#999999" stroke-width="0.5" stroke-miterlimit="10"/>
<path d="M1158.47 157.816H1303.68L1313.05 149.336" stroke="#999999" stroke-width="0.5" stroke-miterlimit="10"/>
<path d="M1175.1 108.714H1256.36L1265.46 100.481H1374.01" stroke="#999999" stroke-width="0.5" stroke-miterlimit="10"/>
<path d="M1249.29 50.3831L1252.95 50.0681L1251.3 48.5696L1249.64 47.071L1249.29 50.3831Z" fill="#999999"/>
<path d="M1368.46 36.3091H1264.9L1251.32 48.5952" stroke="#999999" stroke-width="0.5" stroke-miterlimit="10"/>
</g>
<defs>
<clipPath id="clip0_425_194">
<rect width="345" height="202.759" fill="white"/>
</clipPath>
<clipPath id="clip1_425_194">
<rect width="320" height="202.759" fill="white" transform="translate(1122 7.24146)"/>
</clipPath>
</defs>
</svg>
