<svg width="468" height="108" viewBox="0 0 468 108" fill="none" xmlns="http://www.w3.org/2000/svg">
<path d="M17.6178 107.36L39.6087 52.2665C41.7 47.0975 43.9815 42.4959 45.756 38.8398C47.0235 41.3613 49.4317 46.2781 51.7132 52.1404L64.7683 85.5493C69.6481 82.5867 73.3872 79.3088 76.3658 75.9049C69.9016 60.272 62.4868 42.8111 57.607 32.7884C54.8819 27.1782 53.6144 24.5938 46.263 24.5938C40.6861 24.5938 37.3906 26.737 34.5387 32.9145C23.1947 58.0657 11.2804 86.3058 3.35857 107.36H17.5544H17.6178ZM69.8383 98.4086L73.3238 107.36H88.9139C87.8366 104.334 85.1749 97.5261 81.7526 89.0163C78.6473 92.1051 74.7181 95.3829 69.8383 98.4717V98.4086Z" fill="white"/>
<path fill-rule="evenodd" clip-rule="evenodd" d="M67.5573 45.7108C111.412 43.8197 98.1671 97.6522 21.9278 106.982L26.9977 93.744C81.6898 85.9276 94.935 55.4183 70.9795 54.0945C69.8388 51.2579 68.6981 48.4843 67.4939 45.7108H67.5573ZM16.6677 64.6845C-8.11167 69.3492 -10.9001 38.0204 47.7845 8.64575L48.7985 10.7259C33.652 17.2186 -11.4071 57.7506 21.5475 53.3381C19.8998 57.1202 18.2521 60.9654 16.6677 64.7476V64.6845ZM46.9606 50.3124L44.1088 51.1319C43.7919 51.9513 43.4117 52.7708 43.0948 53.6533L40.3063 60.6502L50.1294 58.5701L48.2915 53.5272C47.8479 52.4556 47.4676 51.384 47.024 50.3754L46.9606 50.3124Z" fill="url(#paint0_linear_445_214)"/>
<path fill-rule="evenodd" clip-rule="evenodd" d="M63.8811 0.829247C62.6136 4.10711 59.8251 7.38497 55.9593 9.78032C55.8959 11.4823 55.1988 13.1843 53.9947 14.445C53.4877 12.2387 52.6004 10.0955 51.3963 8.01532C50.1922 5.93514 48.7346 4.17014 47.0869 2.59425C48.798 2.153 50.5725 2.40514 52.1568 3.22461C56.1494 1.08139 60.3955 0.324961 63.8811 0.829247Z" fill="white"/>
<path d="M107.799 102.632C107.799 102.632 108.813 100.741 110.841 96.9588C111.412 97.211 112.046 97.5261 112.743 97.8413C113.503 98.1565 114.264 98.4717 115.088 98.7238C115.911 98.976 116.799 99.2281 117.686 99.4172C118.573 99.6063 119.46 99.6694 120.284 99.6694C121.298 99.6694 122.185 99.6063 122.883 99.4172C123.58 99.2281 124.213 98.976 124.657 98.6608C125.101 98.3456 125.481 97.9674 125.671 97.5261C125.861 97.0849 125.988 96.5806 125.988 96.0763C125.988 95.6351 125.861 95.2569 125.544 94.8786C125.291 94.5635 124.847 94.2483 124.34 93.9961C123.833 93.744 123.199 93.4919 122.439 93.2397C121.678 92.9876 120.855 92.7354 119.904 92.4833C119.46 92.3572 118.89 92.2311 118.32 92.042C117.749 91.8529 117.116 91.6638 116.545 91.4117C115.911 91.1595 115.341 90.8443 114.771 90.5292C114.2 90.214 113.693 89.7727 113.25 89.3315C112.806 88.8902 112.426 88.386 112.172 87.7556C111.919 87.1883 111.792 86.4949 111.792 85.7385C111.792 84.3517 112.046 83.0279 112.553 81.8302C113.06 80.6326 113.883 79.5609 114.961 78.6784C116.038 77.7959 117.432 77.1026 119.08 76.5983C120.791 76.094 122.756 75.8418 125.101 75.8418C126.115 75.8418 127.129 75.9049 128.079 76.094C129.03 76.2201 129.917 76.4722 130.741 76.7243C131.565 76.9765 132.389 77.2286 133.149 77.5438C133.91 77.859 134.607 78.1742 135.304 78.4893L132.579 83.9104C132.262 83.7213 131.692 83.4692 130.995 83.217C130.297 82.9649 129.537 82.7127 128.713 82.4606C127.889 82.2084 127.002 82.0193 126.115 81.8302C125.227 81.6411 124.404 81.5781 123.58 81.5781C122.629 81.5781 121.805 81.6411 121.171 81.8302C120.538 82.0193 120.031 82.2715 119.65 82.5236C119.27 82.8388 119.017 83.154 118.827 83.5322C118.637 83.9104 118.573 84.2886 118.573 84.6038C118.573 85.0451 118.7 85.4233 119.017 85.7385C119.27 86.0536 119.714 86.3058 120.157 86.5579C120.664 86.8101 121.235 86.9992 121.869 87.1883C122.566 87.3774 123.263 87.5035 124.023 87.6926C125.291 88.0077 126.432 88.3229 127.509 88.7011C128.586 89.0793 129.537 89.5836 130.297 90.151C131.058 90.7183 131.692 91.4117 132.135 92.2311C132.579 93.0506 132.832 94.0592 132.832 95.2569C132.832 96.9588 132.452 98.4086 131.755 99.6694C131.058 100.93 130.044 102.002 128.776 102.884C127.509 103.767 126.051 104.397 124.34 104.838C122.629 105.28 120.855 105.532 118.89 105.532C117.623 105.532 116.418 105.469 115.278 105.28C114.2 105.09 113.123 104.901 112.236 104.586C111.285 104.334 110.461 104.019 109.764 103.704C109.004 103.388 108.37 103.073 107.799 102.758V102.632ZM152.098 98.2826L155.267 102.317C153.999 103.325 152.605 104.082 151.084 104.649C149.563 105.153 148.042 105.406 146.394 105.406C144.81 105.406 143.416 105.153 142.148 104.586C140.881 104.082 139.804 103.388 138.98 102.506C138.092 101.623 137.459 100.615 136.952 99.4172C136.445 98.2195 136.255 96.9588 136.255 95.6351C136.255 93.8701 136.635 92.2311 137.395 90.6552C138.156 89.0793 139.17 87.6926 140.437 86.4949C141.705 85.2972 143.226 84.3517 144.937 83.5952C146.648 82.9018 148.486 82.5236 150.45 82.5236C152.035 82.5236 153.492 82.7758 154.823 83.2801C156.154 83.7843 157.231 84.5408 158.182 85.5493L153.619 89.5836C153.239 89.0793 152.669 88.7011 151.971 88.449C151.274 88.1968 150.45 88.0708 149.563 88.0708C148.676 88.0708 147.852 88.2599 147.028 88.5751C146.204 88.8902 145.507 89.3945 144.873 89.9618C144.24 90.5922 143.733 91.2856 143.353 92.1681C142.972 93.0506 142.782 93.9961 142.782 95.0677C142.782 95.8242 142.909 96.5176 143.162 97.0849C143.416 97.7152 143.733 98.2195 144.113 98.5977C144.557 99.039 145 99.3542 145.571 99.5433C146.141 99.7324 146.775 99.8585 147.408 99.8585C148.359 99.8585 149.246 99.7324 150.007 99.4802C150.767 99.2281 151.464 98.7869 152.098 98.2826ZM182.771 93.1767C182.771 93.1767 182.074 97.0219 180.743 104.712H174.279L176.307 93.3027C176.497 92.2942 176.561 91.4117 176.434 90.7183C176.371 90.0249 176.117 89.5206 175.8 89.1424C175.483 88.7642 175.04 88.449 174.469 88.3229C173.899 88.1968 173.329 88.0708 172.568 88.0708C171.871 88.0708 171.174 88.1968 170.54 88.449C169.906 88.7011 169.336 89.0793 168.829 89.5836C168.322 90.0879 167.878 90.5922 167.498 91.2856C167.118 91.916 166.864 92.6724 166.738 93.4288L164.71 104.775H158.245L163.442 75.5897H169.78L168.132 84.6668C169.019 84.0995 170.096 83.5952 171.174 83.217C172.315 82.8388 173.455 82.5867 174.659 82.5867C176.371 82.5867 177.828 82.8388 178.969 83.3431C180.11 83.8474 180.997 84.5408 181.631 85.4233C182.264 86.3058 182.645 87.4404 182.771 88.7642C182.898 90.0879 182.835 91.5377 182.518 93.2397L182.771 93.1767ZM186.194 95.6981C186.194 93.9331 186.574 92.2942 187.271 90.7183C188.031 89.1424 188.982 87.7556 190.313 86.5579C191.58 85.3602 193.101 84.4147 194.812 83.6583C196.524 82.9649 198.361 82.5867 200.326 82.5867C201.91 82.5867 203.368 82.8388 204.635 83.3431C205.903 83.8474 206.98 84.5408 207.868 85.4233C208.755 86.3058 209.452 87.3143 209.896 88.512C210.403 89.7097 210.593 90.9704 210.593 92.2942C210.593 94.0592 210.212 95.7611 209.515 97.337C208.755 98.9129 207.804 100.3 206.473 101.497C205.206 102.695 203.685 103.641 201.974 104.334C200.263 105.027 198.361 105.406 196.397 105.406C194.812 105.406 193.418 105.153 192.151 104.649C190.883 104.145 189.806 103.452 188.919 102.569C188.031 101.687 187.334 100.678 186.891 99.4802C186.384 98.2826 186.194 97.0219 186.194 95.6981ZM192.658 95.0047C192.658 95.7611 192.784 96.3915 192.975 97.0219C193.228 97.6522 193.545 98.1565 193.925 98.5977C194.369 99.039 194.812 99.3542 195.383 99.6063C195.953 99.8585 196.587 99.9845 197.284 99.9845C198.171 99.9845 199.059 99.7954 199.882 99.4802C200.706 99.1651 201.403 98.6608 202.037 98.0304C202.671 97.4001 203.178 96.7067 203.558 95.8242C203.938 95.0047 204.129 94.0592 204.129 92.9876C204.129 92.2311 204.002 91.6008 203.812 90.9704C203.558 90.3401 203.241 89.8358 202.861 89.4576C202.481 89.0163 201.974 88.7011 201.403 88.449C200.833 88.1968 200.199 88.1338 199.502 88.1338C198.615 88.1338 197.791 88.3229 196.967 88.6381C196.143 88.9533 195.446 89.4576 194.812 90.0879C194.179 90.7183 193.672 91.4117 193.291 92.2942C192.911 93.1136 192.721 94.0592 192.721 95.1308L192.658 95.0047ZM213.318 95.6981C213.318 93.9331 213.698 92.2942 214.395 90.7183C215.156 89.1424 216.106 87.7556 217.437 86.5579C218.705 85.3602 220.226 84.4147 221.937 83.6583C223.648 82.9649 225.486 82.5867 227.45 82.5867C229.035 82.5867 230.492 82.8388 231.76 83.3431C233.027 83.8474 234.105 84.5408 234.992 85.4233C235.879 86.3058 236.576 87.3143 237.02 88.512C237.527 89.7097 237.717 90.9704 237.717 92.2942C237.717 94.0592 237.337 95.7611 236.64 97.337C235.879 98.9129 234.928 100.3 233.598 101.497C232.33 102.695 230.809 103.641 229.098 104.334C227.387 105.027 225.486 105.406 223.521 105.406C221.937 105.406 220.542 105.153 219.275 104.649C218.007 104.145 216.93 103.452 216.043 102.569C215.156 101.687 214.459 100.678 214.015 99.4802C213.508 98.2826 213.318 97.0219 213.318 95.6981ZM219.782 95.0047C219.782 95.7611 219.909 96.3915 220.099 97.0219C220.352 97.6522 220.669 98.1565 221.049 98.5977C221.493 99.039 221.937 99.3542 222.507 99.6063C223.077 99.8585 223.711 99.9845 224.408 99.9845C225.296 99.9845 226.183 99.7954 227.007 99.4802C227.831 99.1651 228.528 98.6608 229.161 98.0304C229.795 97.4001 230.302 96.7067 230.682 95.8242C231.063 95.0047 231.253 94.0592 231.253 92.9876C231.253 92.2311 231.126 91.6008 230.936 90.9704C230.682 90.3401 230.365 89.8358 229.985 89.4576C229.605 89.0163 229.098 88.7011 228.528 88.449C227.957 88.1968 227.324 88.1338 226.626 88.1338C225.739 88.1338 224.915 88.3229 224.091 88.6381C223.268 88.9533 222.57 89.4576 221.937 90.0879C221.303 90.7183 220.796 91.4117 220.416 92.2942C220.035 93.1136 219.845 94.0592 219.845 95.1308L219.782 95.0047ZM245.258 75.5267H251.659L247.857 96.8958C247.793 97.4001 247.73 97.7783 247.73 98.0935C247.73 98.4086 247.793 98.6608 247.92 98.7869C248.047 98.976 248.174 99.102 248.427 99.1651C248.681 99.2281 248.934 99.2281 249.314 99.2281H250.392L249.441 104.649H248.11C246.463 104.649 245.195 104.523 244.181 104.271C243.167 104.019 242.47 103.578 241.963 103.01C241.456 102.38 241.202 101.623 241.139 100.615C241.076 99.6063 241.202 98.4086 241.456 96.8958L245.258 75.4636V75.5267Z" fill="url(#paint1_linear_445_214)"/>
<path d="M136.255 45.3324L135.367 47.4126L129.283 55.7964H136.381V45.3324H136.191H136.255ZM143.226 65.3778H136.381V60.7762H125.671L122.376 65.3778H114.2L135.874 35.3728H143.162V65.3778H143.226ZM166.611 57.4353H164.836L157.231 46.7823V65.3778H150.197V35.4358H156.344L165.724 48.1691L175.166 35.4358H181.314V65.3778H174.343V46.8453L166.611 57.4353ZM195.256 52.7076V59.6416H202.227C202.608 59.6416 202.988 59.5785 203.431 59.4525C203.875 59.3264 204.255 59.0742 204.572 58.8221C204.952 58.5069 205.206 58.1917 205.459 57.7505C205.713 57.3092 205.84 56.805 205.84 56.1746C205.84 55.6703 205.713 55.166 205.523 54.7248C205.333 54.2835 205.079 53.9683 204.762 53.6532C204.445 53.338 204.065 53.1489 203.622 52.9598C203.178 52.7707 202.734 52.7076 202.227 52.7076H195.256ZM201.277 41.1721C201.277 41.1721 199.249 41.1721 195.256 41.1721V47.4126H201.213C201.594 47.4126 201.91 47.3496 202.291 47.2235C202.671 47.0974 202.988 46.8453 203.241 46.5932C203.495 46.341 203.748 46.0258 203.938 45.5846C204.129 45.2064 204.192 44.7651 204.192 44.3239C204.192 43.8826 204.129 43.4414 203.938 43.0632C203.748 42.6849 203.558 42.3698 203.241 42.0546C202.988 41.8024 202.671 41.5503 202.291 41.4242C201.91 41.2351 201.594 41.1721 201.213 41.1721H201.277ZM202.924 65.3778H188.285V35.4358H201.657C203.115 35.4358 204.445 35.6249 205.649 36.0031C206.854 36.3814 207.868 36.9487 208.691 37.6421C209.515 38.3355 210.212 39.218 210.656 40.2896C211.1 41.2982 211.353 42.4958 211.353 43.8196C211.353 44.4499 211.226 45.0173 211.036 45.6476C210.846 46.278 210.593 46.7823 210.212 47.2866C209.896 47.7908 209.515 48.2321 209.072 48.6103C208.628 48.9885 208.184 49.3037 207.677 49.4928C208.375 49.7449 209.072 50.0601 209.705 50.5644C210.339 51.0057 210.91 51.5099 211.417 52.1403C211.924 52.7707 212.304 53.401 212.557 54.1574C212.874 54.9139 213.001 55.6703 213.001 56.4898C213.001 58.0657 212.684 59.4525 212.114 60.5871C211.543 61.7217 210.783 62.6673 209.832 63.3607C208.882 64.0541 207.804 64.6214 206.6 64.9366C205.396 65.2517 204.129 65.4409 202.924 65.4409V65.3778ZM231.443 44.639L231.189 45.5846L227.514 54.6617H235.309L231.633 45.5846L231.443 44.639H231.379H231.443ZM247.096 65.3778H239.682L237.78 60.5871H225.169L223.268 65.3778H215.853L228.211 35.3728H234.802L247.16 65.3778H247.096ZM249.188 56.0485C249.188 56.0485 251.533 56.0485 256.159 56.0485C256.159 57.3092 256.666 58.2548 257.68 59.0112C258.694 59.7676 260.151 60.1458 261.989 60.1458C263.003 60.1458 263.891 60.0828 264.588 59.8937C265.285 59.7676 265.855 59.5155 266.299 59.2633C266.742 58.9482 267.059 58.633 267.249 58.2548C267.439 57.8135 267.566 57.3723 267.566 56.868C267.566 56.1746 267.376 55.5442 267.059 55.103C266.742 54.6617 266.235 54.2835 265.602 53.9683C264.968 53.6532 264.207 53.401 263.32 53.1489C262.433 52.8967 261.356 52.6446 260.215 52.3294C259.644 52.2033 259.011 52.0142 258.314 51.8251C257.616 51.636 256.856 51.4469 256.159 51.1948C255.398 50.9426 254.701 50.6274 254.004 50.2492C253.307 49.871 252.673 49.4298 252.103 48.8624C251.533 48.2951 251.089 47.6648 250.772 46.9083C250.455 46.1519 250.265 45.2694 250.265 44.3239C250.265 42.811 250.519 41.4873 251.026 40.2896C251.533 39.0919 252.23 38.0833 253.244 37.2639C254.258 36.4444 255.525 35.814 257.109 35.3728C258.694 34.9315 260.532 34.7424 262.686 34.7424C264.461 34.7424 266.045 34.9946 267.376 35.4358C268.77 35.8771 269.911 36.5074 270.862 37.3269C271.812 38.1464 272.509 39.1549 273.016 40.2896C273.523 41.4242 273.777 42.748 273.777 44.1978H266.742C266.742 43.7565 266.679 43.3153 266.489 42.874C266.299 42.4328 266.045 42.1176 265.728 41.8024C265.348 41.4873 264.905 41.2351 264.271 41.046C263.7 40.8569 262.94 40.7308 262.116 40.7308C261.165 40.7308 260.405 40.7939 259.771 40.983C259.137 41.1721 258.694 41.3612 258.314 41.6133C257.933 41.8655 257.68 42.1807 257.553 42.5589C257.426 42.874 257.363 43.2523 257.363 43.6305C257.363 44.1348 257.553 44.576 257.87 44.9542C258.187 45.3324 258.63 45.6476 259.201 45.8998C259.771 46.1519 260.468 46.404 261.229 46.5932C261.989 46.7823 262.877 46.9714 263.764 47.0974C265.348 47.4757 266.806 47.8539 268.137 48.3582C269.467 48.7994 270.608 49.4298 271.622 50.1232C272.636 50.8166 273.397 51.7621 273.904 52.8337C274.474 53.9053 274.728 55.2291 274.728 56.805C274.728 58.3178 274.411 59.6416 273.777 60.7762C273.143 61.9108 272.256 62.9194 271.115 63.6758C269.974 64.4323 268.644 65.0626 267.059 65.4409C265.475 65.8191 263.764 66.0712 261.926 66.0712C259.644 66.0712 257.68 65.756 256.032 65.1887C254.448 64.6214 253.117 63.8019 252.103 62.8564C251.089 61.9108 250.328 60.8392 249.885 59.6416C249.441 58.4439 249.188 57.2462 249.188 56.0485ZM278.974 56.0485C278.974 56.0485 281.318 56.0485 285.945 56.0485C285.945 57.3092 286.452 58.2548 287.466 59.0112C288.48 59.7676 289.937 60.1458 291.775 60.1458C292.789 60.1458 293.676 60.0828 294.374 59.8937C295.071 59.7676 295.641 59.5155 296.085 59.2633C296.528 58.9482 296.845 58.633 297.035 58.2548C297.225 57.8135 297.352 57.3723 297.352 56.868C297.352 56.1746 297.162 55.5442 296.845 55.103C296.528 54.6617 296.021 54.2835 295.388 53.9683C294.754 53.6532 293.993 53.401 293.106 53.1489C292.219 52.8967 291.141 52.6446 290.001 52.3294C289.43 52.2033 288.797 52.0142 288.1 51.8251C287.402 51.636 286.642 51.4469 285.945 51.1948C285.184 50.9426 284.487 50.6274 283.79 50.2492C283.093 49.871 282.459 49.4298 281.889 48.8624C281.318 48.2951 280.875 47.6648 280.558 46.9083C280.241 46.1519 280.051 45.2694 280.051 44.3239C280.051 42.811 280.304 41.4873 280.811 40.2896C281.318 39.0919 282.016 38.0833 283.03 37.2639C284.044 36.4444 285.311 35.814 286.895 35.3728C288.48 34.9315 290.318 34.7424 292.472 34.7424C294.247 34.7424 295.831 34.9946 297.162 35.4358C298.556 35.8771 299.697 36.5074 300.648 37.3269C301.598 38.1464 302.295 39.1549 302.802 40.2896C303.309 41.4242 303.563 42.748 303.563 44.1978H296.528C296.528 43.7565 296.465 43.3153 296.275 42.874C296.085 42.4328 295.831 42.1176 295.514 41.8024C295.134 41.4873 294.69 41.2351 294.057 41.046C293.486 40.8569 292.726 40.7308 291.902 40.7308C290.951 40.7308 290.191 40.7939 289.557 40.983C288.923 41.1721 288.48 41.3612 288.1 41.6133C287.719 41.8655 287.466 42.1807 287.339 42.5589C287.212 42.874 287.149 43.2523 287.149 43.6305C287.149 44.1348 287.339 44.576 287.656 44.9542C287.973 45.3324 288.416 45.6476 288.987 45.8998C289.557 46.1519 290.254 46.404 291.015 46.5932C291.775 46.7823 292.662 46.9714 293.55 47.0974C295.134 47.4757 296.592 47.8539 297.923 48.3582C299.253 48.7994 300.394 49.4298 301.408 50.1232C302.422 50.8166 303.183 51.7621 303.69 52.8337C304.26 53.9053 304.513 55.2291 304.513 56.805C304.513 58.3178 304.197 59.6416 303.563 60.7762C302.929 61.9108 302.042 62.9194 300.901 63.6758C299.76 64.4323 298.43 65.0626 296.845 65.4409C295.261 65.8191 293.55 66.0712 291.712 66.0712C289.43 66.0712 287.466 65.756 285.818 65.1887C284.234 64.6214 282.903 63.8019 281.889 62.8564C280.875 61.9108 280.114 60.8392 279.671 59.6416C279.227 58.4439 278.974 57.2462 278.974 56.0485ZM323.209 44.639L322.955 45.5846L319.28 54.6617H327.075L323.399 45.5846L323.209 44.639H323.146H323.209ZM338.862 65.3778H331.448L329.546 60.5871H316.935L315.034 65.3778H307.619L319.977 35.3728H326.568L338.926 65.3778H338.862ZM350.27 59.3894H355.34C358.318 59.3894 360.6 58.633 362.184 57.1201C363.768 55.6073 364.529 53.401 364.529 50.5014C364.529 49.1146 364.339 47.8539 363.959 46.7823C363.578 45.6476 363.008 44.7021 362.248 43.9457C361.487 43.1892 360.536 42.5589 359.396 42.1176C358.255 41.6764 356.924 41.4873 355.34 41.4873H350.27V59.4525V59.3894ZM343.235 65.3778V35.4358H355.466C357.748 35.4358 359.903 35.751 361.867 36.3814C363.832 37.0117 365.543 37.9573 367.001 39.218C368.458 40.4787 369.599 42.0546 370.359 43.8826C371.183 45.7107 371.564 47.9169 371.564 50.3123C371.564 52.5185 371.247 54.5987 370.486 56.4267C369.789 58.2548 368.775 59.8307 367.381 61.1544C365.987 62.4782 364.339 63.4867 362.311 64.2432C360.346 64.9996 358.065 65.3148 355.466 65.3148H343.172L343.235 65.3778ZM375.619 50.3753C375.619 48.1691 376.063 46.1519 376.95 44.2608C377.838 42.3698 378.978 40.6678 380.499 39.281C381.957 37.8312 383.731 36.7596 385.696 35.9401C387.724 35.1206 389.815 34.7424 392.097 34.7424C394.378 34.7424 396.533 35.1206 398.498 35.9401C400.526 36.7596 402.237 37.8942 403.758 39.281C405.215 40.6678 406.419 42.3698 407.307 44.2608C408.194 46.1519 408.638 48.2321 408.638 50.3753C408.638 52.5185 408.194 54.5987 407.307 56.4898C406.419 58.3808 405.279 60.0828 403.758 61.4696C402.3 62.8564 400.526 63.991 398.498 64.8105C396.533 65.63 394.378 66.0712 392.097 66.0712C389.815 66.0712 387.661 65.63 385.696 64.8105C383.668 63.991 381.957 62.8564 380.499 61.4696C379.042 60.0198 377.838 58.3808 376.95 56.4898C376.063 54.5987 375.619 52.5185 375.619 50.3753ZM382.591 50.3753C382.591 51.7621 382.844 53.0228 383.351 54.2205C383.858 55.4182 384.492 56.4267 385.379 57.3092C386.266 58.1917 387.217 58.8221 388.421 59.3264C389.562 59.8307 390.766 60.0828 392.097 60.0828C393.428 60.0828 394.695 59.8307 395.836 59.3264C396.977 58.8221 397.991 58.1287 398.815 57.3092C399.638 56.4267 400.336 55.4182 400.842 54.2205C401.349 53.0228 401.603 51.7621 401.603 50.3753C401.603 48.9885 401.349 47.7278 400.842 46.5301C400.336 45.3324 399.702 44.3239 398.815 43.4414C397.991 42.5589 396.977 41.8655 395.836 41.4242C394.695 40.9199 393.428 40.6678 392.097 40.6678C390.766 40.6678 389.562 40.9199 388.421 41.4242C387.28 41.9285 386.266 42.6219 385.379 43.4414C384.555 44.3239 383.858 45.3324 383.351 46.5301C382.844 47.7278 382.591 48.9885 382.591 50.3753ZM420.932 49.6189H426.826C427.396 49.6189 427.967 49.4928 428.474 49.3037C428.981 49.1146 429.424 48.7994 429.805 48.4842C430.185 48.106 430.502 47.7278 430.692 47.2235C430.882 46.7192 431.009 46.1519 431.009 45.5215C431.009 44.8912 430.882 44.3869 430.692 43.8826C430.502 43.3783 430.185 42.9371 429.805 42.5589C429.424 42.1807 428.981 41.9285 428.474 41.6764C427.967 41.4873 427.46 41.3612 426.826 41.3612H420.932V49.5558V49.6189ZM438.74 65.3778H430.692L425.432 55.6073H420.996V65.3778H413.961V35.4358H427.143C428.727 35.4358 430.185 35.688 431.516 36.1923C432.847 36.6965 433.987 37.3899 434.938 38.2724C435.889 39.1549 436.649 40.2265 437.156 41.4873C437.726 42.748 437.98 44.1348 437.98 45.5846C437.98 46.6562 437.853 47.6648 437.6 48.5473C437.346 49.4928 436.966 50.3123 436.459 51.0687C435.952 51.8251 435.381 52.5185 434.684 53.0858C433.987 53.6532 433.227 54.1574 432.34 54.5357L438.677 65.3148L438.74 65.3778ZM442.036 56.0485C442.036 56.0485 444.381 56.0485 449.007 56.0485C449.007 57.3092 449.514 58.2548 450.528 59.0112C451.542 59.7676 453 60.1458 454.837 60.1458C455.851 60.1458 456.739 60.0828 457.436 59.8937C458.133 59.7676 458.703 59.5155 459.147 59.2633C459.591 58.9482 459.907 58.633 460.097 58.2548C460.288 57.8135 460.414 57.3723 460.414 56.868C460.414 56.1746 460.224 55.5442 459.907 55.103C459.591 54.6617 459.084 54.2835 458.45 53.9683C457.816 53.6532 457.056 53.401 456.168 53.1489C455.281 52.8967 454.204 52.6446 453.063 52.3294C452.493 52.2033 451.859 52.0142 451.162 51.8251C450.465 51.636 449.704 51.4469 449.007 51.1948C448.246 50.9426 447.549 50.6274 446.852 50.2492C446.155 49.871 445.521 49.4298 444.951 48.8624C444.381 48.2951 443.937 47.6648 443.62 46.9083C443.303 46.1519 443.113 45.2694 443.113 44.3239C443.113 42.811 443.367 41.4873 443.874 40.2896C444.381 39.0919 445.078 38.0833 446.092 37.2639C447.106 36.4444 448.373 35.814 449.958 35.3728C451.542 34.9315 453.38 34.7424 455.535 34.7424C457.309 34.7424 458.893 34.9946 460.224 35.4358C461.618 35.8771 462.759 36.5074 463.71 37.3269C464.66 38.1464 465.358 39.1549 465.865 40.2896C466.372 41.4242 466.625 42.748 466.625 44.1978H459.591C459.591 43.7565 459.527 43.3153 459.337 42.874C459.147 42.4328 458.893 42.1176 458.577 41.8024C458.196 41.4873 457.753 41.2351 457.119 41.046C456.549 40.8569 455.788 40.7308 454.964 40.7308C454.014 40.7308 453.253 40.7939 452.619 40.983C451.986 41.1721 451.542 41.3612 451.162 41.6133C450.781 41.8655 450.528 42.1807 450.401 42.5589C450.274 42.874 450.211 43.2523 450.211 43.6305C450.211 44.1348 450.401 44.576 450.718 44.9542C451.035 45.3324 451.479 45.6476 452.049 45.8998C452.619 46.1519 453.316 46.404 454.077 46.5932C454.837 46.7823 455.725 46.9714 456.612 47.0974C458.196 47.4757 459.654 47.8539 460.985 48.3582C462.316 48.7994 463.456 49.4298 464.47 50.1232C465.484 50.8166 466.245 51.7621 466.752 52.8337C467.322 53.9053 467.576 55.2291 467.576 56.805C467.576 58.3178 467.259 59.6416 466.625 60.7762C465.991 61.9108 465.104 62.9194 463.963 63.6758C462.823 64.4323 461.492 65.0626 459.907 65.4409C458.323 65.8191 456.612 66.0712 454.774 66.0712C452.493 66.0712 450.528 65.756 448.88 65.1887C447.296 64.6214 445.965 63.8019 444.951 62.8564C443.937 61.9108 443.177 60.8392 442.733 59.6416C442.289 58.4439 442.036 57.2462 442.036 56.0485Z" fill="white"/>
<defs>
<linearGradient id="paint0_linear_445_214" x1="54.1853" y1="18.8575" x2="85.8201" y2="113.01" gradientUnits="userSpaceOnUse">
<stop stop-color="#B315E8"/>
<stop offset="0.329412" stop-color="#318BEF"/>
<stop offset="0.690196" stop-color="#99FFFF"/>
<stop offset="1" stop-color="#7AE6BD"/>
</linearGradient>
<linearGradient id="paint1_linear_445_214" x1="171.427" y1="61.7218" x2="207.174" y2="137.135" gradientUnits="userSpaceOnUse">
<stop stop-color="#B315E8"/>
<stop offset="0.501961" stop-color="#8AE0E6"/>
<stop offset="1" stop-color="#7FE3AF"/>
</linearGradient>
</defs>
</svg>
