<svg width="270" height="97" viewBox="0 0 270 97" fill="none" xmlns="http://www.w3.org/2000/svg">
<g style="mix-blend-mode:luminosity" opacity="0.5">
<path d="M37.53 81.9946C52.2896 81.9946 64.2546 70.0296 64.2546 55.27C64.2546 40.5104 52.2896 28.5454 37.53 28.5454C22.7704 28.5454 10.8054 40.5104 10.8054 55.27C10.8054 70.0296 22.7704 81.9946 37.53 81.9946Z" fill="#E71D20"/>
<path d="M43.9425 35.3548C41.9013 38.9323 37.4625 46.2898 37.4625 46.2898L39.5361 49.9132L47.4876 49.9321L43.47 56.7982L45.5436 60.4243C45.5436 60.4243 55.1799 60.4405 58.2606 60.3622C58.7007 59.8681 59.0868 56.7604 58.7493 55.7506C55.6686 55.8316 49.3992 55.81 49.3992 55.81L53.5896 48.8413L51.516 45.2179L43.3836 45.3016C43.3836 45.3016 46.4616 40.1716 48.168 37.2691C47.5686 36.64 44.4096 35.3305 43.9425 35.3548Z" fill="white" stroke="white" stroke-width="0.39" stroke-miterlimit="10"/>
<path d="M51.84 71.405C49.7475 67.8572 45.5652 60.335 45.5652 60.335H41.3775L37.4166 67.2308L33.4422 60.3431H29.268C29.268 60.3431 24.4728 68.6996 23.0121 71.4131C23.2227 72.0395 25.7283 73.9187 26.7732 74.1131C28.2312 71.3969 31.3632 65.9645 31.3632 65.9645L35.3322 73.0898H39.5091L43.47 65.9834C43.47 65.9834 46.3968 71.1998 48.06 74.1212C48.9051 73.9133 51.6159 71.8235 51.84 71.405Z" fill="white" stroke="white" stroke-width="0.39" stroke-miterlimit="10"/>
<path d="M31.1904 35.3575C33.1911 38.9566 37.5516 46.3681 37.5516 46.3681L35.4348 49.9672L27.4833 49.8916L31.4118 56.8036L29.295 60.4C29.295 60.4 19.6614 60.3055 16.5807 60.1894C16.146 59.6899 15.7977 56.5795 16.146 55.5724C19.2267 55.6885 25.4934 55.7425 25.4934 55.7425L21.3867 48.7225L23.5035 45.1234L31.6332 45.3016C31.6332 45.3016 28.62 40.15 26.946 37.2205C27.54 36.6049 30.7233 35.3251 31.1904 35.3575Z" fill="white" stroke="white" stroke-width="0.39" stroke-miterlimit="10"/>
<path d="M77.3631 72.6769V34.877H85.5711L99.3411 57.287L93.4551 57.233L107.387 34.877H115.271V72.6769H106.361V60.905C106.361 57.665 106.442 54.749 106.604 52.157C106.766 49.565 107.045 46.991 107.441 44.435L108.467 47.243L97.9911 63.4969H94.4271L84.1671 47.351L85.1931 44.435C85.5909 46.8488 85.8699 49.3238 86.0301 51.86C86.1903 54.3962 86.2713 57.4112 86.2731 60.905V72.6769H77.3631Z" fill="black"/>
<path d="M119.969 72.6769L134.927 34.877H142.703L157.553 72.6769H148.265L141.137 53.507C140.847 52.751 140.559 51.941 140.273 51.077C139.987 50.213 139.699 49.322 139.409 48.404C139.119 47.486 138.84 46.586 138.572 45.704C138.302 44.8238 138.078 44.003 137.897 43.247L139.517 43.193C139.301 44.0929 139.058 44.975 138.788 45.839C138.518 46.703 138.248 47.558 137.978 48.404C137.708 49.2518 137.411 50.0978 137.087 50.942C136.763 51.7862 136.457 52.6592 136.169 53.561L129.041 72.6769H119.969ZM127.097 65.4409L129.959 58.529H147.347L150.155 65.4409H127.097Z" fill="black"/>
<path d="M174.779 73.2169C172.507 73.2456 170.242 72.9455 168.056 72.3259C166.147 71.7755 164.347 70.8986 162.737 69.7339C161.175 68.5882 159.776 67.2347 158.579 65.7109L164.141 59.3929C165.941 61.8067 167.75 63.4267 169.568 64.2529C171.337 65.0707 173.262 65.4945 175.211 65.4949C176.107 65.5069 177 65.3794 177.857 65.1169C178.558 64.9209 179.193 64.5383 179.693 64.0099C180.13 63.5107 180.362 62.8642 180.341 62.2009C180.348 61.6863 180.207 61.1804 179.936 60.7429C179.648 60.2932 179.272 59.9073 178.829 59.6089C178.304 59.2546 177.743 58.956 177.155 58.7179C176.486 58.442 175.801 58.2075 175.103 58.0159C174.382 57.8188 173.645 57.646 172.889 57.5029C171.019 57.1064 169.192 56.5277 167.435 55.7749C166.01 55.1728 164.703 54.3226 163.574 53.2639C162.571 52.3105 161.787 51.1494 161.279 49.8619C160.758 48.4916 160.501 47.0349 160.523 45.5689C160.508 43.9386 160.907 42.3312 161.684 40.8979C162.462 39.4696 163.528 38.2191 164.816 37.2259C166.185 36.1711 167.73 35.3667 169.379 34.8499C171.124 34.29 172.946 34.0076 174.779 34.0129C176.938 33.972 179.092 34.2356 181.178 34.7959C182.833 35.2552 184.388 36.0148 185.768 37.0369C187.048 38.0134 188.153 39.2003 189.035 40.5469L183.365 46.0009C182.66 45.1149 181.833 44.3331 180.908 43.6789C180.045 43.0778 179.099 42.6049 178.1 42.2749C177.115 41.952 176.085 41.7879 175.049 41.7889C174.106 41.7681 173.166 41.905 172.268 42.1939C171.578 42.4104 170.955 42.8009 170.459 43.3279C170.029 43.8098 169.797 44.437 169.811 45.0829C169.795 45.6531 169.987 46.2096 170.351 46.6489C170.762 47.1221 171.256 47.5156 171.809 47.8099C172.476 48.1768 173.183 48.4666 173.915 48.6739C174.731 48.9143 175.56 49.1037 176.399 49.2409C178.235 49.5954 180.033 50.1197 181.772 50.8069C183.265 51.3942 184.666 52.1945 185.93 53.1829C187.064 54.0772 187.986 55.2113 188.63 56.5039C189.285 57.896 189.608 59.4209 189.575 60.9589C189.575 63.5851 188.936 65.8081 187.658 67.6279C186.338 69.4791 184.522 70.9202 182.42 71.7859C180.206 72.7399 177.659 73.2169 174.779 73.2169Z" fill="black"/>
<path d="M209.015 73.2169C206.743 73.2456 204.478 72.9455 202.292 72.3259C200.383 71.7755 198.583 70.8986 196.973 69.7339C195.411 68.5882 194.012 67.2347 192.815 65.7109L198.377 59.3929C200.177 61.8067 201.986 63.4267 203.804 64.2529C205.573 65.0707 207.498 65.4945 209.447 65.4949C210.343 65.5069 211.236 65.3794 212.093 65.1169C212.794 64.9209 213.429 64.5383 213.929 64.0099C214.366 63.5107 214.598 62.8642 214.577 62.2009C214.584 61.6863 214.443 61.1804 214.172 60.7429C213.885 60.2932 213.508 59.9073 213.065 59.6089C212.54 59.2546 211.979 58.956 211.391 58.7179C210.722 58.442 210.037 58.2075 209.339 58.0159C208.618 57.8188 207.881 57.646 207.125 57.5029C205.255 57.1064 203.428 56.5277 201.671 55.7749C200.246 55.1728 198.939 54.3226 197.81 53.2639C196.807 52.3105 196.023 51.1494 195.515 49.8619C194.994 48.4916 194.737 47.0349 194.759 45.5689C194.744 43.9386 195.143 42.3312 195.92 40.8979C196.698 39.4696 197.764 38.2191 199.052 37.2259C200.421 36.1711 201.966 35.3667 203.615 34.8499C205.36 34.29 207.182 34.0076 209.015 34.0129C211.174 33.972 213.329 34.2356 215.414 34.7959C217.069 35.2552 218.624 36.0148 220.004 37.0369C221.284 38.0134 222.389 39.2003 223.271 40.5469L217.601 46.0009C216.896 45.1149 216.069 44.3331 215.144 43.6789C214.281 43.0778 213.335 42.6049 212.336 42.2749C211.351 41.952 210.321 41.7879 209.285 41.7889C208.342 41.7681 207.402 41.905 206.504 42.1939C205.814 42.4104 205.191 42.8009 204.695 43.3279C204.265 43.8098 204.033 44.437 204.047 45.0829C204.031 45.6531 204.223 46.2096 204.587 46.6489C204.998 47.1221 205.492 47.5156 206.045 47.8099C206.712 48.1768 207.419 48.4666 208.151 48.6739C208.967 48.9143 209.796 49.1037 210.635 49.2409C212.471 49.5954 214.269 50.1197 216.008 50.8069C217.501 51.3942 218.902 52.1945 220.166 53.1829C221.3 54.0772 222.222 55.2113 222.866 56.5039C223.521 57.896 223.844 59.4209 223.811 60.9589C223.811 63.5851 223.172 65.8081 221.894 67.6279C220.574 69.4791 218.758 70.9202 216.656 71.7859C214.442 72.7399 211.895 73.2169 209.015 73.2169Z" fill="black"/>
<path d="M225.914 72.6769L240.872 34.877H248.648L263.498 72.6769H254.21L247.082 53.507C246.793 52.751 246.505 51.941 246.218 51.077C245.932 50.213 245.644 49.322 245.354 48.404C245.065 47.486 244.786 46.586 244.517 45.704C244.247 44.8238 244.023 44.003 243.842 43.247L245.462 43.193C245.246 44.0929 245.003 44.975 244.733 45.839C244.463 46.703 244.193 47.558 243.923 48.404C243.653 49.2518 243.356 50.0978 243.032 50.942C242.708 51.7862 242.402 52.6592 242.114 53.561L234.986 72.6769H225.914ZM233.042 65.4409L235.904 58.529H253.292L256.1 65.4409H233.042Z" fill="black"/>
</g>
</svg>
