<svg width="200" height="80" viewBox="0 0 200 80" fill="none" xmlns="http://www.w3.org/2000/svg">
<g style="mix-blend-mode:luminosity" opacity="0.5" clip-path="url(#clip0_441_214)">
<path d="M40.1069 1.6001C61.3716 1.6001 78.6096 18.7924 78.6096 40.0001C78.6096 61.2081 61.3716 78.4001 40.1069 78.4001C18.8425 78.4001 1.60425 61.2081 1.60425 40.0001C1.60425 18.7924 18.8425 1.6001 40.1069 1.6001Z" fill="black" stroke="white" stroke-width="6"/>
<path fill-rule="evenodd" clip-rule="evenodd" d="M30.26 19.1181C30.9321 19.7884 31.2611 20.6714 31.2471 21.5498L40.1069 30.3861L43.8879 26.6152C43.8738 25.7368 44.2028 24.8539 44.8749 24.1835C46.1915 22.8704 48.3262 22.8704 49.6429 24.1835C50.9595 25.4967 50.9595 27.6257 49.6429 28.9388C48.9707 29.6091 48.0856 29.9372 47.2048 29.9232L43.478 33.6401C43.492 34.5185 43.163 35.4013 42.4909 36.0717C41.1743 37.3848 39.0396 37.3848 37.7229 36.0717C37.0508 35.4013 36.7218 34.5185 36.7359 33.6401L27.9302 24.8578C27.0494 24.8718 26.1641 24.5437 25.492 23.8734C24.1754 22.5603 24.1754 20.4313 25.492 19.1181C26.8087 17.805 28.9434 17.805 30.26 19.1181ZM29.0162 30.4894C27.6996 29.1763 25.5649 29.1763 24.2482 30.4894C22.9316 31.8026 22.9316 33.9315 24.2482 35.2447C24.9204 35.915 25.8056 36.2432 26.6864 36.2291L30.4674 40L21.6075 48.8362C20.7267 48.8221 19.8414 49.1503 19.1693 49.8207C17.8527 51.1338 17.8527 53.2628 19.1693 54.576C20.4859 55.889 22.6206 55.889 23.9373 54.576C24.6094 53.9056 24.9384 53.0227 24.9243 52.1442L33.73 43.362C34.6108 43.3761 35.496 43.0479 36.1682 42.3776C37.4848 41.0644 37.4848 38.9355 36.1682 37.6223C35.496 36.952 34.6108 36.6239 33.73 36.6379L30.0033 32.9211C30.0173 32.0426 29.6883 31.1597 29.0162 30.4894ZM52.2837 55.1424L43.478 46.3599C43.492 45.4814 43.163 44.5986 42.491 43.9282C41.1743 42.6151 39.0396 42.6151 37.7229 43.9282C37.0508 44.5986 36.7218 45.4814 36.7359 46.3599L33.0091 50.0767C32.1283 50.0627 31.2431 50.3908 30.571 51.0611C29.2543 52.3743 29.2543 54.5034 30.571 55.8165C31.8876 57.1296 34.0223 57.1296 35.339 55.8165C36.0111 55.1461 36.3401 54.2634 36.326 53.3845L40.1069 49.6139L48.9668 58.4501C48.9527 59.3285 49.2818 60.2117 49.9539 60.8816C51.2705 62.1952 53.4052 62.1952 54.7219 60.8816C56.0385 59.5685 56.0385 57.4394 54.7219 56.1264C54.0497 55.4565 53.1645 55.128 52.2837 55.1424ZM61.0444 30.1793C60.3727 30.8497 59.4872 31.1778 58.6064 31.1637L49.7466 40L53.5273 43.7708C54.4086 43.7568 55.2936 44.0849 55.9658 44.7552C57.2823 46.0684 57.2823 48.1973 55.9658 49.5105C54.6492 50.8236 52.5143 50.8236 51.1977 49.5105C50.5256 48.8402 50.1966 47.9573 50.2106 47.0788L46.4839 43.362C45.603 43.3761 44.7179 43.0479 44.0457 42.3776C42.7291 41.0644 42.7291 38.9355 44.0457 37.6223C44.7179 36.952 45.603 36.6239 46.4839 36.6379L55.2898 27.8557C55.2754 26.9772 55.6048 26.0944 56.2765 25.4241C57.593 24.1109 59.7278 24.1109 61.0444 25.4241C62.3615 26.7372 62.3615 28.8662 61.0444 30.1793Z" fill="white"/>
<path d="M88.1289 56.5332H94.4818L101.755 45.376L109.006 56.5332H115.316L104.92 41.0027L115.059 25.8133H108.706L101.755 36.6293L94.7385 25.8133H88.4284L98.5674 41.0027L88.1289 56.5332ZM117.018 56.5332H126.836C127.078 56.5332 127.585 56.5263 128.355 56.5119C129.139 56.4975 129.88 56.4479 130.579 56.3626C133.032 56.0495 135.099 55.1892 136.782 53.7812C138.465 52.3591 139.741 50.5529 140.611 48.3627C141.481 46.1724 141.916 43.776 141.916 41.1733C141.916 38.5707 141.481 36.1742 140.611 33.984C139.741 31.7938 138.465 29.9876 136.782 28.5653C135.099 27.1431 133.032 26.2827 130.579 25.984C129.866 25.8987 129.125 25.8489 128.355 25.8347C127.599 25.8204 127.093 25.8133 126.836 25.8133H117.018V56.5332ZM122.258 51.6907V30.656H126.836C127.264 30.656 127.805 30.6702 128.462 30.6987C129.118 30.7129 129.709 30.7769 130.237 30.8907C131.663 31.1609 132.832 31.7938 133.745 32.7893C134.658 33.7849 135.335 35.0151 135.777 36.48C136.233 37.9307 136.462 39.4951 136.462 41.1733C136.462 42.7804 136.248 44.3164 135.82 45.7813C135.392 47.2463 134.714 48.4907 133.788 49.5147C132.875 50.5244 131.691 51.1716 130.237 51.456C129.709 51.5556 129.118 51.6196 128.462 51.648C127.805 51.6764 127.264 51.6907 126.836 51.6907H122.258ZM142.287 56.5332H147.591L149.688 49.8773H161.837L163.955 56.5332H169.26L159.549 25.8133H151.998L142.287 56.5332ZM151.206 45.0773L155.72 30.784L160.297 45.0773H151.206ZM183.607 57.1732C186.687 57.1732 189.326 56.505 191.521 55.1679C193.732 53.817 195.422 51.9396 196.591 49.536C197.775 47.1324 198.366 44.3449 198.366 41.1733C198.366 37.9876 197.775 35.2 196.591 32.8107C195.422 30.4071 193.732 28.5369 191.521 27.2C189.326 25.8489 186.687 25.1733 183.607 25.1733C180.541 25.1733 177.903 25.8489 175.693 27.2C173.497 28.5369 171.807 30.4071 170.623 32.8107C169.454 35.2 168.869 37.9876 168.869 41.1733C168.869 44.3449 169.454 47.1324 170.623 49.536C171.807 51.9396 173.497 53.817 175.693 55.1679C177.903 56.505 180.541 57.1732 183.607 57.1732ZM183.607 52.3307C180.513 52.288 178.188 51.2569 176.634 49.2373C175.08 47.2178 174.31 44.5298 174.324 41.1733C174.338 38.9262 174.687 36.9636 175.372 35.2853C176.056 33.6071 177.083 32.3058 178.452 31.3813C179.821 30.4427 181.54 29.9876 183.607 30.016C186.716 30.0587 189.04 31.0898 190.58 33.1093C192.135 35.1289 192.912 37.8169 192.912 41.1733C192.912 43.4062 192.563 45.3689 191.864 47.0613C191.179 48.7396 190.145 50.0409 188.762 50.9653C187.393 51.8898 185.675 52.3449 183.607 52.3307Z" fill="black"/>
</g>
<defs>
<clipPath id="clip0_441_214">
<rect width="200" height="80" fill="white"/>
</clipPath>
</defs>
</svg>
