<svg width="23" height="23" viewBox="0 0 23 23" fill="none"
    xmlns="http://www.w3.org/2000/svg">
    <path fill-rule="evenodd" clip-rule="evenodd" d="M1.6211 0.933597C1.02332 1.53137 0.6875 2.34212 0.6875 3.1875V19.125C0.6875 19.9704 1.02332 20.7811 1.6211 21.3789C2.21887 21.9767 3.02962 22.3125 3.875 22.3125H19.8125C20.6579 22.3125 21.4686 21.9767 22.0664 21.3789C22.6642 20.7811 23 19.9704 23 19.125V3.1875C23 2.34212 22.6642 1.53137 22.0664 0.933597C21.4686 0.335825 20.6579 0 19.8125 0H3.875C3.02962 0 2.21887 0.335825 1.6211 0.933597ZM17.123 4.68129C16.8059 4.68129 16.5018 4.80727 16.2775 5.03151L11.8437 9.46691L7.41071 5.03151C7.18648 4.80727 6.88235 4.68129 6.56523 4.68129C6.24811 4.68129 5.94398 4.80727 5.71974 5.03151C5.49551 5.25574 5.36953 5.55987 5.36953 5.87699C5.36953 6.19411 5.49551 6.49824 5.71974 6.72247L10.1544 11.1563L5.71895 15.5893C5.49471 15.8135 5.36874 16.1177 5.36874 16.4348C5.36874 16.7519 5.49471 17.056 5.71895 17.2803C5.94318 17.5045 6.24731 17.6305 6.56443 17.6305C6.88155 17.6305 7.18568 17.5045 7.40992 17.2803L11.8437 12.8457L16.2767 17.2811C16.501 17.5053 16.8051 17.6313 17.1222 17.6313C17.4393 17.6313 17.7435 17.5053 17.9677 17.2811C18.1919 17.0568 18.3179 16.7527 18.3179 16.4356C18.3179 16.1185 18.1919 15.8143 17.9677 15.5901L13.5331 11.1563L17.9685 6.72247C18.1927 6.49824 18.3187 6.19411 18.3187 5.87699C18.3187 5.55987 18.1927 5.25574 17.9685 5.03151C17.7443 4.80727 17.4401 4.68129 17.123 4.68129Z" fill="blue"/>
</svg>
