<svg width="24" height="24" viewBox="0 0 24 24" fill="none"
    xmlns="http://www.w3.org/2000/svg">
    <path d="M3.25 23.25C2.5625 23.25 1.97375 23.0054 1.48375 22.5163C0.994583 22.0263 0.75 21.4375 0.75 20.75V3.25C0.75 2.5625 0.994583 1.97375 1.48375 1.48375C1.97375 0.994583 2.5625 0.75 3.25 0.75H20.75C21.4375 0.75 22.0263 0.994583 22.5163 1.48375C23.0054 1.97375 23.25 2.5625 23.25 3.25V20.75C23.25 21.4375 23.0054 22.0263 22.5163 22.5163C22.0263 23.0054 21.4375 23.25 20.75 23.25H3.25ZM10.25 16.7187C10.4167 16.7187 10.5729 16.6929 10.7188 16.6413C10.8646 16.5888 11 16.5 11.125 16.375L18.2188 9.28125C18.4479 9.05208 18.5625 8.77083 18.5625 8.4375C18.5625 8.10417 18.4375 7.8125 18.1875 7.5625C17.9583 7.33333 17.6667 7.21875 17.3125 7.21875C16.9583 7.21875 16.6667 7.33333 16.4375 7.5625L10.25 13.75L7.53125 11.0313C7.30208 10.8021 7.02083 10.6875 6.6875 10.6875C6.35417 10.6875 6.0625 10.8125 5.8125 11.0625C5.58333 11.2917 5.46875 11.5833 5.46875 11.9375C5.46875 12.2917 5.58333 12.5833 5.8125 12.8125L9.375 16.375C9.5 16.5 9.63542 16.5888 9.78125 16.6413C9.92708 16.6929 10.0833 16.7187 10.25 16.7187Z" fill="red"/>
</svg>
