<svg width="1440" height="127" viewBox="0 0 1440 127" fill="none" xmlns="http://www.w3.org/2000/svg">
<g style="mix-blend-mode:hard-light">
<path d="M-32 87.783L141.5 1.78296L344.5 80.783L468 11.283L634.5 62.283L716 38.783L858 80.783L947.5 19.283L1055.5 87.783H1147L1211 100.783C1211 100.783 1354.53 7.60653 1358.99 2.04246C1358.83 1.87173 1358.83 1.78296 1359 1.78296C1359.13 1.78296 1359.13 1.87121 1358.99 2.04246C1363.07 6.32904 1468.5 62.283 1468.5 62.283V252.283H-32V87.783Z" fill="url(#paint0_linear_78_124)"/>
<path d="M-32 87.783L141.5 1.78296L344.5 80.783L468 11.283L634.5 62.283L716 38.783L858 80.783L947.5 19.283L1055.5 87.783H1147L1211 100.783C1211 100.783 1354.53 7.60653 1358.99 2.04246C1358.83 1.87173 1358.83 1.78296 1359 1.78296C1359.13 1.78296 1359.13 1.87121 1358.99 2.04246C1363.07 6.32904 1468.5 62.283 1468.5 62.283V252.283H-32V87.783Z" stroke="#99FFFF" stroke-width="3"/>
</g>
<defs>
<linearGradient id="paint0_linear_78_124" x1="718.25" y1="-145.5" x2="718.25" y2="127" gradientUnits="userSpaceOnUse">
<stop stop-color="#99FFFF"/>
<stop offset="1" stop-color="#D9D9D9" stop-opacity="0"/>
</linearGradient>
</defs>
</svg>
